<svg xmlns="http://www.w3.org/2000/svg" viewBox="0 0 85.66 36.81"><defs><style>.cls-1{fill:#231f20;}</style></defs><title>bench</title><g id="Layer_2" data-name="Layer 2"><g id="assets_copy" data-name="assets copy"><g id="bench"><path d="M19.14,32.2a5.36,5.36,0,0,0,1.34,3.54v1.07H14.37V35.74a5.36,5.36,0,0,0,1.34-3.54V20.57h3.43ZM18.33,3H16.52V17.85h1.81ZM70,32.2V20.57H66.52V32.2a5.36,5.36,0,0,1-1.34,3.54v1.07h6.11V35.74A5.36,5.36,0,0,1,70,32.2ZM69.14,3H67.33V17.85h1.81Z"/><path class="cls-1" d="M82.94,16.51H2.72v-5H82.94Zm0-10.75H2.72v5H82.94Zm0-5.76H2.72V5H82.94Zm0,17.85H2.72L0,19v1.55H85.66V19Z"/></g></g></g></svg>