<svg xmlns="http://www.w3.org/2000/svg" viewBox="0 0 322.15 108.61"><defs><style>.cls-1{fill:#fff8ee;}.cls-2{fill:#f4d242;}</style></defs><title>city</title><g id="Layer_2" data-name="Layer 2"><g id="assets_copy" data-name="assets copy"><g id="city"><path class="cls-1" d="M322.15,26.8v81.81H0V32.75H24.13v4.3h1.31v1.5h1.45v1.68h2.25l4.76,3v4.28h3V28.61H55.3V50.23l5.89-2.44,6.93,2.87V42.35h5.75V40.87h.55V35.09h16v-.21h.49V30.1l1-.74h16.66l1,.74V46.77L111,46l6.23-3,1.72.86v-.65l.76.42v.59l2.94,1.43,2.95-1.43v-.6l.76-.41v.65l1.71-.86,6.27,3,1.52.79V38.3h-.49V29.1h.49v-8l.95-.74h16.66l1,.74v4.79h.49v.21h15.94V40.87h.56v1.48h5.74v8L190,50.24V0h18.36V47.51h3V43.23l4.75-3h2.27V38.55h1.43v-1.5h1.34V24h20.57V60.83h7.15V49.24l-.34-.25.61-.4a7.58,7.58,0,0,1,.7-.4,14.78,14.78,0,0,1,5.61-1.61h.18l.17,0h.07a10.21,10.21,0,0,1,1.13,0,14.9,14.9,0,0,1,8.45,2.37h-.19l0,.71V60.79l3.48,2.08.68-18.31h3.12V40.1H274v-.9h1.34v-.38h11.31v.38H288v.9h1.45V54.55h12.29v-.36h.74v.36h3.57l2.56,2.08V26.8Z"/><path class="cls-2" d="M21.36,37.89H19V35.57h2.33Zm55.78,2.33h2.32V37.89H77.14Zm3.52,19.12H83V57H80.66Zm3.76,0h2.32V57H84.42Zm1.16-11.81h2.33V45.2H85.58Zm58.91-14h2.33V31.24h-2.33Zm0,12.8h2.33V44h-2.33ZM93.75,47.83h2.33V45.5H93.75Zm72-16.62h2.33V28.89h-2.33Zm1.16,9h-2.32V42.5h2.32Zm-1.16,18h2.33V55.85h-2.33Zm-4.25-27h2.33V28.89h-2.33Zm-4.24,5.52h2.32V34.4h-2.32ZM153,31.21h2.32V28.89H153ZM153,53h2.32V50.69H153Zm76.54,7.16h2.33V57.85h-2.33Zm25.66,9.45h2.32V67.31h-2.32Zm27.38,0h2.32V67.31h-2.32Zm8.14-7.07H293V60.24h-2.33Zm8.41,4h2.33V64.26h-2.33Zm4.21-4h2.33V60.24h-2.33Zm-43.58-2.05h2.33V58.18h-2.33Zm11.5,0h2.33V58.18h-2.33Zm-47.33-.33h2.33V57.85h-2.33ZM6.62,47.56H8.41V45.77H6.62Zm16.94,3.1H25v-3.1H23.56Zm-5-5.49h1.64V43.86H18.55Zm2.81,22.76H23V66.62H21.36ZM10.8,62.12h1.55V59.37H10.8Zm-5,6.53H7.4V65.9H5.85ZM39.67,33.6H41.1V31.21H39.67Zm4.42-2.39H42.66V33.6h1.43ZM99.21,33.6h1.43V31.21H99.21Zm6.09,14.26h1.43V45.47H105.3Zm-2.39,20.61h1.43V66.08h-1.43Zm.72-37.26h-1.44V33.6h1.44ZM191.44,4.84h1.43V2.46h-1.43Zm6.68,0h1.43V2.46h-1.43Zm-3.34,4.72h1.43V7.17h-1.43Zm-3.34,4.71h1.43V11.88h-1.43Zm6.68,0h1.43V11.88h-1.43Zm6.68,0h1.44V11.88H204.8ZM201.46,19h1.44V16.6h-1.44Zm3.34,0h1.44V16.6H204.8ZM191.44,23.7h1.43V21.31h-1.43ZM225.09,26h-1.43v2.39h1.43Zm2.09,7.58h1.43V31.21h-1.43Zm10.56,0h1.43V31.21h-1.43Zm-7-5.19h1.43V26H230.7Zm44.08,15.33h1.43V41.35h-1.43Zm3.76,0H280V41.31h-1.43Zm0,4.16H280V45.47h-1.43Zm0,11.51H280V57h-1.43Zm0,9.64H280V66.62h-1.43Zm7.52-15.77h1.43V50.86h-1.43Zm-2.33-7.54H282.3v2.38h1.43ZM237,67.81h1.43V65.43H237Zm14.78-7.25h1.43V58.18H251.8Zm0-7.32h1.43V50.86H251.8ZM272,50.66h-1.44v2.39H272ZM237.74,28.41h1.43V26h-1.43Zm-3.52,10.08h1.43V36.11h-1.43Zm3.52,7.91h1.43V44h-1.43Zm-24.17.26H215V44.28h-1.44Zm5-2.92H220V41.35h-1.43Zm7.87,6.92h1.43V48.28h-1.43Zm-31.68-27h1.43V21.31h-1.43Zm3.34,0h1.43V21.31h-1.43Zm117.05,5.84h-1.43v2.39h1.43Zm2.63,0v2.39h1.43V29.54Zm-6.69,7.76h1.44V34.91h-1.44Zm6.69,0h1.43V34.91H317.8Zm0,5.37h1.43V40.28H317.8Zm-6.69,10.74h1.44V51h-1.44Zm6.69,5.36h1.43V56.39H317.8Zm-3.34,5.37h1.43V61.76h-1.43Zm3.34,0h1.43V61.76H317.8Zm-6.69,5.37h1.44V67.13h-1.44ZM201.46,28.41h1.44V26h-1.44Zm-10,4.71h1.43V30.74h-1.43Zm10,4.72h1.44V35.45h-1.44Zm3.34,0h1.44V35.45H204.8Zm-10,4.71h1.43V40.16h-1.43Zm6.68,0h1.44V40.16h-1.44Zm-10,4.71h1.43V44.87h-1.43Zm13.36,0h1.44V44.87H204.8ZM191.44,52h1.43V49.59h-1.43Zm13.36,0h1.44V49.59H204.8Zm-6.68,4.72h1.43V54.3h-1.43Zm6.68,0h1.44V54.3H204.8ZM191.44,61.4h1.43V59h-1.43ZM144.49,24.65h-1.43V27h1.43Zm34.74,31.17h1.44V53.44h-1.44Zm-5.39-8.26h1.43V45.17h-1.43ZM84.42,45.17H83v2.39h1.44Zm-37,1.2h1.43V44H47.43Zm0,13h1.43V57H47.43Zm44.17,0H93V57H91.6ZM130.47,57h1.43V54.63h-1.43Zm-4.29-9.16h1.43V45.47h-1.43ZM139.66,27h1.43V24.65h-1.43ZM59.72,51.85h1.43V49.47H59.72ZM94.47,31.21H93V33.6h1.43Zm1.61,8.47h1.43V37.3H96.08Zm20.19,14.56h1.43V51.85h-1.43Zm-76.6-7.87H41.1V44H39.67Zm10-8.45h1.44V35.54H49.69Zm-5.6-2.38H42.66v2.38h1.43Zm0,23.83h1.43V57H44.09ZM70.46,47.86h1.43V45.47H70.46Zm42.47,2.06h1.43V47.53h-1.43Z"/></g></g></g></svg>