<svg xmlns="http://www.w3.org/2000/svg" viewBox="0 0 507.07 104.84"><defs><style>.cls-1{fill:#fff;}.cls-2{fill:#fff8ee;}</style></defs><title>cloud</title><g id="Layer_2" data-name="Layer 2"><g id="assets_copy" data-name="assets copy"><g id="cloud"><path class="cls-1" d="M35.32,81.94a3.69,3.69,0,0,0-2.51,1A8.39,8.39,0,0,0,16.5,81.32,5.86,5.86,0,0,0,5.76,82.94a3.49,3.49,0,0,0-2.21-.79A3.55,3.55,0,0,0,0,85.7a3.59,3.59,0,0,0,.2,1.14H38.88a3.59,3.59,0,0,0,.19-1.14A3.75,3.75,0,0,0,35.32,81.94Z"/><path class="cls-2" d="M37.64,82.76A65.45,65.45,0,0,1,20.21,85,64.82,64.82,0,0,1,2,82.53,3.53,3.53,0,0,0,0,85.7a3.59,3.59,0,0,0,.2,1.14H38.88a3.59,3.59,0,0,0,.19-1.14A3.73,3.73,0,0,0,37.64,82.76Z"/><path class="cls-1" d="M275.62,12.64a3,3,0,0,0-2.07.8c-.87-1.82-3.55-3.16-6.78-3.19a9.73,9.73,0,0,0-5.12,1.3,5.08,5.08,0,0,0-8-1.39c-1.8-2.71-5.53-4.6-9.86-4.63A13.24,13.24,0,0,0,236,7.84a11.81,11.81,0,0,0-22.14-.27,6.5,6.5,0,0,0-2.75-.65,6.59,6.59,0,0,0-6.63,6.53,6.47,6.47,0,0,0,.25,1.77l8.85.07,3.77,0,15.54.12,3.24,0,16.23.13h2.16l5.34.05h2.06l10.69.09h1.07l5,0a.43.43,0,0,0,0-.11A3,3,0,0,0,275.62,12.64Z"/><path class="cls-2" d="M275.62,12.64a3,3,0,0,0-2.07.8,3.78,3.78,0,0,0-.68-.95c-8.28.74-17.36,1.11-26.88,1a253.29,253.29,0,0,1-40.61-3.37,6.57,6.57,0,0,0-.94,3.29,6.47,6.47,0,0,0,.25,1.77l8.85.07,3.77,0,15.54.12,3.24,0,16.23.13h2.16l5.34.05h2.06l10.69.09h1.07l5,0a.43.43,0,0,0,0-.11A3,3,0,0,0,275.62,12.64Z"/><path class="cls-1" d="M384,51.11a2.63,2.63,0,0,1,1.76.68c.74-1.54,3-2.69,5.77-2.71a8.19,8.19,0,0,1,4.36,1.11A4.31,4.31,0,0,1,402.73,49c1.53-2.31,4.7-3.92,8.39-3.95a11.27,11.27,0,0,1,6.63,2,10,10,0,0,1,18.84-.22,5.41,5.41,0,0,1,2.34-.55,5.59,5.59,0,0,1,5.64,5.55,5.8,5.8,0,0,1-.22,1.51l-7.52.06-3.22,0-13.22.11-2.75,0-13.82.11H402l-4.54,0h-1.75l-9.09.08h-.92l-4.23,0s0-.06,0-.1A2.58,2.58,0,0,1,384,51.11Z"/><path class="cls-2" d="M384,51.11a2.63,2.63,0,0,1,1.76.68,3.32,3.32,0,0,1,.58-.8c7.05.62,14.77.94,22.87.88A215.62,215.62,0,0,0,443.77,49a5.57,5.57,0,0,1,.8,2.8,5.8,5.8,0,0,1-.22,1.51l-7.52.06-3.22,0-13.22.11-2.75,0-13.82.11H402l-4.54,0h-1.75l-9.09.08h-.92l-4.23,0s0-.06,0-.1A2.58,2.58,0,0,1,384,51.11Z"/><path class="cls-1" d="M479.41,101a2.91,2.91,0,0,1,2,.77,6.57,6.57,0,0,1,12.78-1.26,4.59,4.59,0,0,1,8.41,1.27,2.77,2.77,0,0,1,4.51,2.17,2.91,2.91,0,0,1-.15.89h-30.3a2.92,2.92,0,0,1,2.79-3.84Z"/><path class="cls-2" d="M477.59,101.65a51.65,51.65,0,0,0,13.65,1.72,50.42,50.42,0,0,0,14.28-1.91,2.77,2.77,0,0,1,1.55,2.49,2.91,2.91,0,0,1-.15.89h-30.3a3,3,0,0,1-.15-.89A2.92,2.92,0,0,1,477.59,101.65Z"/></g></g></g></svg>