<svg xmlns="http://www.w3.org/2000/svg" viewBox="0 0 163 163"><defs><style>.cls-1{fill:#0f0f0f;}</style></defs><title>ground</title><g id="Layer_2" data-name="Layer 2"><g id="assets_copy" data-name="assets copy"><g id="ground"><rect width="163" height="163"/><path class="cls-1" d="M0,22.26V9.12C3.53,5.86,7.46,2.51,10.65,0H22.33C24.82,2.82,27,6.37,26.21,8.26c-.95,2.37-11.73,13.11-13.8,14.14C11.17,23,5.42,22.84,0,22.26Zm43.86.51c2.41.35,14.83-14.48,14.48-16.55-.19-1.17-3.57-4-7-6.22H34.38c-2.1,1.19-3.8,2.7-4.32,4.49C28.92,8.49,41.44,22.43,43.86,22.77Zm-17-9.24c-2.64,1.32-11,10.69-11.38,15.52s7.93,21,11,21.38c1.14.13,9.66,0,10.7-2.07,3.07-6.15,4.48-17.91,4.48-19.66C41.7,25.94,30.32,11.8,26.87,13.53Zm34.4-.31c-2-1.93-14.49,12.41-15.52,15.17S41.27,45,42.3,47.71c.61,1.61,9,4.48,11.73,4.48,1.72,0,9-2.76,10.34-4.48C66,45.66,69.89,21.5,61.27,13.22ZM16.93,41.73C13.8,36.42,9.45,28.92,8,27.24c-1-1.12-4.22-1.52-8-1.43v15.8c8.23,3.78,16.75,7,18.31,7C22.11,48.63,19.61,46.27,16.93,41.73ZM9.16,78.55C13,76.83,24.81,57.43,22.61,54.41c-2.75-3.79-21-7-22.61-6.9H0V78.32C3.81,79.07,7.49,79.31,9.16,78.55Zm57-9.43c-3.19-2.28-20,6.4-25.9,10.53-4.46,3.15-1.53,4.91,2.41,10,5.87,7.58,9.8,12.8,11.38,12.07,4.14-1.9,18.32-19.58,17.86-23.29A14.77,14.77,0,0,0,66.16,69.12ZM34,52.79c-4.14.35-7.58,4.83-8.62,8.28C24.6,63.82,27,70.62,32,77.28,35.08,81.42,57.05,66,56.76,63.86A12.51,12.51,0,0,0,53,56.93C51.09,55,38.18,52.45,34,52.79Zm-11.71,16c-2.41.34-11.6,12.63-11.38,14.83.35,3.45,3.11,10,5.17,11.72S29.92,85.71,30.26,83,24.75,68.46,22.33,68.81Zm25.94,45.82c2.51-.1,3.65-5.53,3.45-6.89-.34-2.42-13.16-17.63-15.52-19.66s-14.72,7.11-15.86,11c-1.18,4.07,1.44,13.34,4.19,16.39C26.36,117.52,39.65,115,48.27,114.63ZM10.4,92.54c.58-.78-1.54-8.14-3.1-9.31C6.17,82.38,2,81.79,0,81.77V93.65C4.13,93.79,9.68,93.5,10.4,92.54Zm-.7,41c3.45-1,9.19-11.08,10.69-14.83.69-1.73-4.14-18.28-7.59-20.69C10.87,96.7,5.1,96.31,0,96.71V132.5C4.36,133.51,8.31,134,9.7,133.57ZM67,13.45c3.45.69,18-5.84,19-9.66.24-1,.5-2.26.75-3.79H58.47C59.07,2.85,63.8,12.81,67,13.45Zm3.06,3.34c-1.36,3.17-1.73,13.45.34,14.83S86,26.45,87.68,24.73s2.11-13.31-.35-13.8C83.88,10.24,71.12,14.38,70.09,16.79ZM72.4,35c-2.24,1.49-4.14,9.31-4.14,11.38s4.14,12.07,7.59,13.79C78.93,61.69,86.52,65,88.61,62.9S100.68,40.14,99.3,37s-9.66-6.56-12.07-6.9C84.31,29.72,75.5,32.9,72.4,35ZM66.93,53.19c-1.72-1-6.2.69-8.62,1.72-2,.87,1.38,10,2.76,11s9-2.76,9.66-4.14C71.13,61,68.66,54.22,66.93,53.19ZM78.79,78.26c1.72,1.38,10.69-3.11,10.69-6.21,0-2.51-9.66-8.28-13.8-8.28-2.75,0-4.48,2.42-3.79,4.49S76,76,78.79,78.26ZM112.62,56c-.35-2.76-7.93-11.38-10.35-11.38s-11,19.57-11,22.42c0,2.41,7.58,9.31,10,8.62S113,58.74,112.62,56Zm-19.08,52c4.83-1.38,10.69-16.21,9.65-19.66S96.3,76.9,93.88,76.56s-17.9,6.59-20,7.93c-3.79,2.41-6.21,11.38-5.17,14.14S88.71,109.32,93.54,107.94Zm-14.41,1.51c-1.72-3.1-12.42-7.24-15.17-7.58s-8.15,6.55-9.66,9c-1.73,2.76,13.45,20,15.52,18.63S80.85,112.56,79.13,109.45ZM93.92,9.84c-2.22,1.67-3.1,13.79-2.41,16.55s6.55,5.52,10,4.83,9.31-16.9,7.93-19S96.68,7.77,93.92,9.84Zm7.65-3.44c2.39.48,7.24,1,9.65,0,1-.44,1.64-3.21,1.84-6.4H93.94C96.85,3.08,100.54,6.2,101.57,6.4Zm30.85,21c-1.72-3.45-11.72-12.07-14.14-12.07S105.52,31.17,104.49,36c-.83,3.85,6.55,12.42,10,14.14s10.69-.69,13.8-2.07S134.15,30.83,132.42,27.38Zm2.34-4.94c1.38.34,9.66-4.48,9.32-6.9-.33-2.25-3.65-12-8.29-15.54H118.33a1,1,0,0,0-.12.23c-1.5,3.69,3.05,11.81,4.14,12.9C124.07,14.85,131.4,21.6,134.76,22.44Zm-21.84-7.51c.69,1,4.49-2.41,4.83-3.79S115.34,8,114,8.38C112.06,8.85,111.43,12.69,112.92,14.93ZM13.29,148.27C12.55,147,6.11,145.52,0,145v17.93c2.9.16,5.26,0,6.05-.64C10.19,158.82,14.71,150.73,13.29,148.27Zm128.58-117c-1.65,0-5,2.19-6.38,3.83-1.65,1.92-2.83,14.78-2.12,17s4,1.64,5.9,1.64,6.85-13.68,6.61-15.05C145.47,36.26,143.52,31.3,141.87,31.3ZM61.19,127.72c-1-2.07-6.9-8.62-10-9.31S31.53,119.79,27,119.79s-10.53,13-10.34,13.79c.69,2.76,22.76,6.55,26.21,6.55S62.22,129.79,61.19,127.72ZM16.38,143.05c1.09-.47,1-4.46-1.38-5.51-1.46-.64-9.68-1.71-15-2.19V143C6,143.5,14.72,143.77,16.38,143.05ZM150.71,16.54c3.8-2.42,13-11.39,10.69-13.11-1.18-.89-15.17-2.76-16.21.35C144.06,7.19,149,17.65,150.71,16.54ZM27.48,1.42c.3.2,1.14-.41,2.21-1.42H26A14,14,0,0,0,27.48,1.42ZM54.87,139.09c-2.76,1-15.18,5.18-16.21,7.93s3.67,7.38,5.17,8.28c1.73,1,8.63,5.17,11,5.17s6.9-9.65,7.59-11.38C63.74,145.89,57.63,138.06,54.87,139.09Zm-23.2,2.45c-.75,1,2.07,4.48,3.1,4.48s3.11-2.07,3.45-3.45S32.7,140.16,31.67,141.54Zm43.74-4.17c1.93-1.5-7.24-5.17-10-5.86s-4.83,4.48-4.48,7.59S72.31,139.78,75.41,137.37ZM150.93,24.2c1-1.38-2.06-5.18-3.79-5.18s-9,5.18-9.66,6.21c-1.38,2.07,0,4.83,1.38,4.83S149.9,25.58,150.93,24.2ZM158.18,44c0-2.07-5.52-5.17-7.59-4.48-1.76.58-6.55,12.41-6.9,14.48s9.31.35,9.31.35S158.18,46,158.18,44ZM134.8,57.75C131.89,59,127.56,76,128.25,78.1s18.27-2.42,19.31-3.11,2.07-12.07,1-14.48S137.9,56.37,134.8,57.75Zm-5.42.19c-.69-1.72-7.58-5.17-9.65-3.45a85.32,85.32,0,0,0-8.28,11.73c-1.76,3.3-.61,6.65,0,8.27.85,2.26,9.31.69,11.73,0S130.07,59.66,129.38,57.94Zm-15.29,44.41c1.38,1,11.73-.34,13.11-3.1s1.38-15.87,0-17.93-9.66-2.42-12.42-2.07-6.21,4.13-7.59,6.2S112.71,101.32,114.09,102.35ZM102.13,79a3.74,3.74,0,0,0,3.79,3.45c1.72,0,3.79-3.45,3.79-4.83S102.13,77,102.13,79Zm-2.27,52.82c.35-2.75-2.75-18.27-4.48-20s-10.69-1-12.07,0c-2,1.49-8.28,17.93-6.21,20S99.52,134.61,99.86,131.85ZM122,126.52c1.72-1.72-5.86-10.69-7.24-12.42s-14.14-5.86-15.18-3.79,1,14.14,2.76,16.55S120.3,128.24,122,126.52Zm-8.09-17c0-2.44-5.76-13.76-7.59-13.45-2.07.34-5.52,8.62-4.83,9.65S113.94,110.89,113.94,109.51ZM90.51,135.9c-2,1,0,9.31,2.07,10.34s6.55-6.21,6.2-8.28S91.89,135.21,90.51,135.9Zm17,4.78c1.73,1.38,21,9.31,23.46,7.93s-6.56-17.59-9-17.24-16.21.34-17.24,1.72C103.59,134.7,105.83,139.3,107.55,140.68Zm20.12,12.68c-1-1.38-14.49-9-15.18-7.25s3.45,12.07,5.52,12.42S128.7,154.73,127.67,153.36ZM130,103.2c-2.47,0-8.6,1.72-10.69,2.76-1.38.69-1.38,5.87-.69,8.28s6.9,10,9.66,11.73,14.14-1.38,15.52-2.07,1.38-13.45,1-15.18C144.6,107.76,132,103.24,130,103.2Zm22.62-8c.69-1.73,3.45-12.42.69-14.49s-20,.69-21.38,2.07-2.07,13.8-.69,16.21,11,5.18,13.1,4.83S151.89,96.88,152.58,95.16ZM135.24,147.5c2.07,1.73,13.8-4.14,15.52-5.17s2.42-6.9,1-8.62-16.9-5.18-19.66-4.14c-2,.73-3.79,3.45-3.45,4.83S133.17,145.78,135.24,147.5Zm-.84,3.93c-3.06.87-3.79,3.79-3.1,5.17s9.31,4.14,11,4.14,2.07-10,1-11S136.81,150.74,134.4,151.43ZM95.2,5.93C95.74,4.85,92.45,1,90.68,0h-1c-.9,1.68-2,6.3-1.69,8S94.51,7.31,95.2,5.93ZM16.9,158.84c-.65,0-3.09,1.68-6.25,4.16H22.33C20.28,160.68,18,158.84,16.9,158.84ZM154,20.68a51.45,51.45,0,0,0,9,1.58V9.12C157,14.69,152.12,20,154,20.68Zm-6.52,9c-1.28,3.86,4.27,6.41,10,9.31,1.75.89,3.61,1.78,5.48,2.64V25.81C156.41,26,148.17,27.68,147.51,29.66Zm4.31,44.41c1.35,1.54,6.36,3.3,11.18,4.25V47.51C155.22,48.21,149.4,71.31,151.82,74.07ZM162,81.85c-2.85.81-5.52,10.69-3.1,11.38a21.65,21.65,0,0,0,4.08.42V81.77A3.9,3.9,0,0,0,162,81.85Zm-7.6,17.23c-3.8,4.83-8.62,22.07-6.55,26.56,1.23,2.68,8.64,5.36,15.13,6.86V96.71C159,97,155.38,97.85,154.42,99.08Zm-2.61,47.12c-2.42,3.44-6.9,12.41-4.83,13.79,1.4.94,9.91,2.59,16,2.92V145C157.81,144.52,152.84,144.72,151.81,146.2Zm6.87-11.08c-3.11.26-3.79,6.55-1.38,7.24a42,42,0,0,0,5.7.68v-7.69A35.78,35.78,0,0,0,158.68,135.12ZM34.38,163H51.3c-2.68-1.72-5.4-3.09-6.75-3.09A25.54,25.54,0,0,0,34.38,163Zm51.28-20.69c-3.45-1.38-10.35-1.38-13.45,0s-13.8,18.28-13.8,20.21a2.49,2.49,0,0,0,.06.48H86.75C87.94,155.72,88.84,143.58,85.66,142.31Zm15.22-.5c-3.27,0-11,13.11-10.69,15.87.14,1.12,1.76,3.21,3.75,5.32h19.12c.26-4.19-.17-9.12-1.15-10.49C110.19,150.09,104.67,141.81,100.88,141.81ZM118.33,163h17.46a7.24,7.24,0,0,0-1-.67C129.75,159.66,119.87,160.61,118.33,163ZM23,141.32c-1.89,1.08-6.55,9.31-5.52,11.38.82,1.63,5.9,7.52,8.53,10.3h3.68c2.71-2.57,6.86-7.78,7.11-9.27C37.14,151.66,25.41,139.94,23,141.32Zm66.68,21.61,0,.07h1C90.2,162.73,89.83,162.67,89.68,162.93Z"/></g></g></g></svg>