<svg xmlns="http://www.w3.org/2000/svg" viewBox="0 0 35.41 172.7"><defs><style>.cls-1{fill:#f4d242;}.cls-2{fill:#fff8ee;}</style></defs><title>lamp-1-on</title><g id="Layer_2" data-name="Layer 2"><g id="assets_copy" data-name="assets copy"><g id="lamp"><g id="lamp-1-on"><path d="M26.77,157.39H24.91c-.71,4.7-1.48,9.62-1.93,12.49l-.17,0a1.41,1.41,0,0,0,.23,2.8H34a1.38,1.38,0,0,0,.22-2.75l-.17,0c-.47-3.13-1.29-8.59-2-12.53h-2a.86.86,0,0,0,0-.16h0V44.16a3.54,3.54,0,0,0,.77-.31,1.77,1.77,0,0,0,.92-1.13h0l2.91-14.88a3,3,0,0,0-1.81-2.63,7.72,7.72,0,0,0-2.22-.82V22.6h-.35c.2-.88.32-1.29.32-1.29a16.52,16.52,0,0,0,1-3.53.11.11,0,0,0,0-.08,2,2,0,0,0,0-.25c0-1.73-1.4-5.93-3.13-5.93a1.19,1.19,0,0,0-.32.05l-.22.09-.08,0a2.22,2.22,0,0,0-.27.19h0a1.69,1.69,0,0,0-.28.26h0a9.78,9.78,0,0,0-2,5.29,2.85,2.85,0,0,0,0,.29s0,0,0,0a16,16,0,0,0,1,3.53s.12.41.33,1.29h-.38v1.78a7.77,7.77,0,0,0-2.23.81,3,3,0,0,0-1.78,2.58l2.92,15h0a1.77,1.77,0,0,0,.93,1.12,3.64,3.64,0,0,0,.78.32v113Z"/><polygon class="cls-1" points="3.54 5.8 18.9 6.83 16.96 23.23 5.5 23.23 3.54 5.8"/><path d="M12.65,27.3V25.66h3.44v-1h.68l.45-3.39L19.14,7.43l.45-3.25h2.66l.22-.84H16.89L17.11,0H5.36l.22,3.34H0l.22.84H2.88l.17,1.21,2.2,15.9.45,3.39h.68v1H9.82v3.49H22.89V27.3Zm-3-6H5.93L4.23,7.43h14l-1.7,13.86H12.86v-3H9.62Z"/><g id="lamp-on"><path class="cls-2" d="M14,14.09a2.79,2.79,0,0,1-.82,2,3.13,3.13,0,0,0-.84,1.41l-.21.78H10.35l-.22-.82A3,3,0,0,0,9.32,16,2.76,2.76,0,1,1,14,14.09Zm-2.74-3.34c.11,0,.21-.64.21-.82s-.1-.32-.21-.32-.21.15-.21.32S11.17,10.75,11.29,10.75Zm3.11.48a.29.29,0,0,0,.11-.37.3.3,0,0,0-.38.05c-.14.12-.56.61-.49.7S14.27,11.35,14.4,11.23Zm.7,2.11c-.18,0-.8.2-.79.32s.66.13.84.1.31-.13.29-.25S15.27,13.32,15.1,13.34Zm-5.9-2c.07-.09-.37-.56-.51-.67s-.31-.12-.38,0,0,.25.12.36S9.13,11.46,9.2,11.37ZM7.41,12.89c-.18,0-.33,0-.35.17s.12.22.3.25.82,0,.83-.11S7.58,12.91,7.41,12.89Z"/><path d="M11.69,19.21h-.88a.47.47,0,0,1-.48-.42l-.07-.9h2l-.08.91A.47.47,0,0,1,11.69,19.21Z"/></g></g></g></g></g></svg>