<svg xmlns="http://www.w3.org/2000/svg" viewBox="0 0 72.52 83.05"><defs><style>.cls-1{fill:#f4d242;}</style></defs><title>light</title><g id="Layer_2" data-name="Layer 2"><g id="assets_copy" data-name="assets copy"><g id="light"><path class="cls-1" d="M12.24,38.75a23.75,23.75,0,0,0,7.13,17A27.1,27.1,0,0,1,26.59,68l1.82,6.73H44L46,67.61a27.15,27.15,0,0,1,7-12A23.84,23.84,0,1,0,12.24,38.75ZM36,9.84c-1,0-1.82-5.52-1.82-7.06S35,0,36,0s1.83,1.25,1.83,2.78S37,9.84,36,9.84ZM9,14c-1.16-1-1.57-2.43-.92-3.19s2.14-.58,3.3.43,4.82,5.22,4.17,6S10.19,15,9,14ZM3,32.3c1.52.19,6.9,1.7,6.77,2.7s-5.71,1.11-7.23.92S-.12,34.75,0,33.76,1.48,32.1,3,32.3ZM54,15.22c-.62-.79,3.23-4.84,4.44-5.79s2.69-1.07,3.31-.28.15,2.21-1.06,3.15S54.63,16,54,15.22ZM69.52,28.35c1.53-.2,2.87.46,3,1.46s-1,2-2.53,2.16-7.1.08-7.23-.92S68,28.54,69.52,28.35Z"/><path d="M32.47,83.05h7.62a4,4,0,0,0,4.13-3.62l.64-7.8-17.25-.11.73,7.91A4,4,0,0,0,32.47,83.05Z"/></g></g></g></svg>