<svg xmlns="http://www.w3.org/2000/svg" viewBox="0 0 117 305.74"><defs><style>.cls-1{fill:#fffbb8;}.cls-2{fill:#f4d242;}</style></defs><title>pole</title><g id="Layer_2" data-name="Layer 2"><g id="assets_copy" data-name="assets copy"><g id="pole"><g id="pole-2" data-name="pole"><circle class="cls-1" cx="92.5" cy="24.5" r="24.5" transform="translate(34.47 100.58) rotate(-67.5)"/><circle class="cls-1" cx="24.5" cy="24.5" r="24.5" transform="translate(-7.51 37.76) rotate(-67.5)"/><path d="M103.16,16.68l-4.62-4.61a3.62,3.62,0,0,0-5.14,0L80.55,24.91a3.65,3.65,0,0,0,0,5.15l1.3,1.3-9.39,9.43A54.19,54.19,0,0,0,58.62,64.51,54.19,54.19,0,0,0,44.78,40.79l-9.87-9.91.82-.82a3.65,3.65,0,0,0,0-5.15L22.88,12.07a3.62,3.62,0,0,0-5.14,0l-4.62,4.61a3.63,3.63,0,0,0,0,5.14L26,34.67a3.65,3.65,0,0,0,5.15,0l.95-1,9.87,9.91A50.37,50.37,0,0,1,56.61,79.18V243.35h0a3.23,3.23,0,0,0-3.23,3.09l-2.42,53.73H49.45a3.21,3.21,0,0,0-3.21,3.2h0a2.37,2.37,0,0,0,2.37,2.37h20A2.37,2.37,0,0,0,71,303.37h0a3.21,3.21,0,0,0-3.21-3.2H66.31l-2.42-53.73a3.23,3.23,0,0,0-3.23-3.09h0V79.18A50.37,50.37,0,0,1,75.3,43.63l9.39-9.43.47.47a3.65,3.65,0,0,0,5.15,0l12.85-12.85A3.63,3.63,0,0,0,103.16,16.68Z"/><path class="cls-2" d="M30.84,27c1.11,1.11,1.35,2.67.52,3.5l-2.67,2.67c-.82.82-2.39.59-3.5-.52l-10-10c-1.11-1.12-1.34-2.68-.52-3.5l2.67-2.68c.82-.82,2.39-.59,3.5.53Zm70.82-7.9L99,16.43c-.83-.82-2.39-.59-3.5.53L85.44,27c-1.11,1.11-1.35,2.67-.53,3.5l2.68,2.67c.82.82,2.39.59,3.5-.52l10-10C102.25,21.49,102.48,19.93,101.66,19.11Z"/></g></g></g></g></svg>