<svg xmlns="http://www.w3.org/2000/svg" viewBox="0 0 117 305.74"><defs><style>.cls-1{fill:#fffbb8;}.cls-2{fill:#f4d242;}.cls-3{fill:#3c3c3b;}.cls-4{fill:#fff8ee;}.cls-5{fill:#35770b;}</style></defs><title>pole+2</title><g id="Layer_2" data-name="Layer 2"><g id="assets_copy" data-name="assets copy"><g id="pole"><g id="pole_2" data-name="pole+2"><circle class="cls-1" cx="92.5" cy="24.5" r="24.5" transform="translate(34.47 100.58) rotate(-67.5)"/><circle class="cls-1" cx="24.5" cy="24.5" r="24.5" transform="translate(-7.51 37.76) rotate(-67.5)"/><path d="M103.16,16.68l-4.62-4.61a3.62,3.62,0,0,0-5.14,0L80.55,24.91a3.65,3.65,0,0,0,0,5.15l1.3,1.3-9.39,9.43A54.19,54.19,0,0,0,58.62,64.51,54.19,54.19,0,0,0,44.78,40.79l-9.87-9.91.82-.82a3.65,3.65,0,0,0,0-5.15L22.88,12.07a3.62,3.62,0,0,0-5.14,0l-4.62,4.61a3.63,3.63,0,0,0,0,5.14L26,34.67a3.65,3.65,0,0,0,5.15,0l.95-1,9.87,9.91A50.37,50.37,0,0,1,56.61,79.18V243.35h0a3.23,3.23,0,0,0-3.23,3.09l-2.42,53.73H49.45a3.21,3.21,0,0,0-3.21,3.2h0a2.37,2.37,0,0,0,2.37,2.37h20A2.37,2.37,0,0,0,71,303.37h0a3.21,3.21,0,0,0-3.21-3.2H66.31l-2.42-53.73a3.23,3.23,0,0,0-3.23-3.09h0V79.18A50.37,50.37,0,0,1,75.3,43.63l9.39-9.43.47.47a3.65,3.65,0,0,0,5.15,0l12.85-12.85A3.63,3.63,0,0,0,103.16,16.68Z"/><path class="cls-2" d="M30.84,27c1.11,1.11,1.35,2.67.52,3.5l-2.67,2.67c-.82.82-2.39.59-3.5-.52l-10-10c-1.11-1.12-1.34-2.68-.52-3.5l2.67-2.68c.82-.82,2.39-.59,3.5.53Zm70.82-7.9L99,16.43c-.83-.82-2.39-.59-3.5.53L85.44,27c-1.11,1.11-1.35,2.67-.53,3.5l2.68,2.67c.82.82,2.39.59,3.5-.52l10-10C102.25,21.49,102.48,19.93,101.66,19.11Z"/><rect class="cls-3" x="60.39" y="125.68" width="12.25" height="1.5"/><rect class="cls-3" x="60.39" y="135.27" width="12.25" height="1.5"/><circle class="cls-4" cx="84.27" cy="131.22" r="14.08" transform="translate(-68.11 98.02) rotate(-45)"/><path class="cls-5" d="M92,136.66v2.76H83.15v-2.31q3.94-6.47,4.7-8a6.11,6.11,0,0,0,.74-2.39,1.77,1.77,0,0,0-.22-1,.78.78,0,0,0-.69-.33.76.76,0,0,0-.69.36,3.1,3.1,0,0,0-.22,1.44v1.54H83.15v-.59a12.17,12.17,0,0,1,.14-2.15,3.73,3.73,0,0,1,.69-1.55,3.45,3.45,0,0,1,1.43-1.15,5.2,5.2,0,0,1,2.11-.39,5,5,0,0,1,3.65,1.2,4.05,4.05,0,0,1,1.23,3,7.29,7.29,0,0,1-.69,2.94,62.42,62.42,0,0,1-4.1,6.58Z"/><path class="cls-5" d="M74.75,132.92h2.87v-2.87h1.94v2.87h2.89v2H79.56v2.86H77.62v-2.86H74.75Z"/><path d="M84.27,145.81a14.59,14.59,0,1,1,14.58-14.59A14.61,14.61,0,0,1,84.27,145.81Zm0-28.17a13.59,13.59,0,1,0,13.58,13.58A13.61,13.61,0,0,0,84.27,117.64Z"/></g></g></g></g></svg>