<svg xmlns="http://www.w3.org/2000/svg" viewBox="0 0 221.68 259.19"><title>tree1</title><g id="Layer_2" data-name="Layer 2"><g id="assets_copy" data-name="assets copy"><g id="tree"><path id="tree1" d="M219,94.09c1.64-1.65-.76-3.44-.76-3.44A3.72,3.72,0,0,0,215.86,86s1.37-1.37.75-2.61-3.36-.41-3.36-.41c1.37-3.29-2.6-3.64-2.6-3.64A5.1,5.1,0,0,0,213.46,76c.34-1.51-.76-1.78-.76-1.78s1.79-3.5-.07-4.33-3.77,2.89-3.77,2.89a9.26,9.26,0,0,0-3.84-.9s1.1-1.1.2-3.36-4.52-1.85-4.52-1.85,2.81-1.51,2-3.3C201.66,61.22,199,62,199,62s1.24-2.6-.69-2.6-2.12,1.3-2.12,1.3c-2.81-.34-3.37,1.51-3.37,1.51-1.23-5.56-5.89-4-5.89-4s2.16-3.6,1-4.8-3,.48-3,.48,1.92-4.25-.07-5.08a3.38,3.38,0,0,0-1.88-.21s0-.07,0-.1c0-4-1.52-5.71-2.79-6.42,1.22,0,2.73-1,3.2-5.4.81-7.74-4.89-8.14-4.89-8.14s2-1.64-2.45-7.34-8.56-3.26-8.56-3.26,4.08-2.85,0-7.74c-3.72-4.47-7.44,3-8,4.28.13-.44,0-1.52-4.17-1.84-5.29-.4-7.33,4.89-7.33,4.89s-.41-5.29-2.85-5.7-4.49,9-4.49,9,.82-6.52-5.7-6.11c-4.57.29-3.94,4.18-3.15,6.48-1.08-2.21-3.47-5.7-7.44-4.85-5.71,1.22,2.44-2,1.63-7.74-.55-3.81-4.73-1.26-7.44.86,1.34-1.43,2.48-3.37.92-4.93-2.86-2.86-8.15,2-8.15,2s-6.52-6.52-13,.82S101.83-2.85,94.49.41c-7,3.12-6.2,12.58-6.12,13.38-.06-.55-.69-4.77-4.88-4-4.48.82-5.71,6.52-5.71,6.52s-2-7.33-8.55-4.89,2.44,9,2.44,9S66.78,24,61.49,15.08c0,0-1.22,10.19,5.29,10.19,0,0-5.29,6.11.41,8.14,0,0-5.7.82-2.85,5.3,0,0-6.93-6.11-11,.41s2.44,7.33,2.44,7.33-3.66.41-3.26,2.45c0,0-5.7-4.89-8.55.41l-.82,2s-6.52-4.89-9,.41,5.29,6.52,5.29,6.52-4.48,2-1.63,6.52,4.49,0,4.49,0l2.44,2.85-.4.1a2.47,2.47,0,0,0-1.88-1c-2-.08-1.39,1.6-1.39,1.6s-1.52-1-2.44-.1-.17,4.3-.17,4.3a3,3,0,0,0-2,.65s.46-4.82-3.44-5a1.45,1.45,0,0,0-1.58,1.39s-1.25-3.49-3.87-2.47c-1.34.48-.47,5-.47,5s-2.8-1.17-3.42,1.19c-.62.57,2.69,2.29,2.69,2.29s-5-.4-5.12,2c0,1,1.95,1.13,1.95,1.13s-2.4.3-2.44,1.3c0,.83.34,1,.45,1-.59-.11-8.6-1.54-9.42-.11s.92,3.41.92,3.41-1.63,1.07-1.69,2.45,1.71,1.93,1.71,1.93-3.46,2.24-3.05,5.3c.47,1.48,3.29.4,3.29.4a4.2,4.2,0,0,0-2,3.16c-.08,2,.91,2.09.91,2.09s-1.26.15-1,2.54c0,0-1.79-3.18-4.68-.52-1.1,1,.11,2.32.11,2.32S1.14,103,0,108.23c-.09,2.38,2.87,2.9,2.87,2.9s-1.42.54-1.54,3.58c-.05,1.25,1.75.86,1.75.86s-1.48,3.29.32,5.25a1.79,1.79,0,0,0,1.9.47s-2.1,2.89-1.57,4.57,2.32,0,2.32,0S5.66,128,6.58,129s3.13-.47,3.13-.47.17,2.45,1,3.35a3.6,3.6,0,0,0,2.22.95S12.38,136.27,15,138c0,0-1.57,4.5-.61,6.86.8,1.62,4.32,1.23,4.32,1.23s-.9,2.74-.11,4.3a1.64,1.64,0,0,0,2.08,1S20.46,156.05,25,154c0,0,1.39,3.36,5,1.26a3.06,3.06,0,0,0,3.13,2.9c3,.12,4.61-2.79,4.61-2.79s.7,2.28,2.15,2.34,2-2.17,2-2.17,1.12,3.42,4.79,1.12c0,0-2.32,8.31,3.08,9,3.9.15,4.05-3.61,4.08-4.28a1.85,1.85,0,0,0,2.31,1.75c2.2-.37,1.84-4.69,1.84-4.69s1.72,3.44,4.52,2.83,2.44-3,2.44-3,.2,1.56,1.49,1.62a2.93,2.93,0,0,0,2-.63s.61,3.54,3.78,3.67,3.27-2.38,3.27-2.38.57,2.27,2.58,1.89a1.82,1.82,0,0,0,1.54-2.26s2.21,5.91,6.11,4.55c1.94-.72.26-4.89.26-4.89s1.68,1.69,2.89.58-.74-4.66-.74-4.66a4.26,4.26,0,0,0,5.63-3l.48-.09a2.32,2.32,0,0,0,.83.71c-.39.9-.58,2.07.77,2.49a2.51,2.51,0,0,0,1.58,0,30.51,30.51,0,0,1,.21,3.46c0,4.05-2,28.61-2,36.05s-2.48,27.95-4.44,32.91a46.38,46.38,0,0,1-8,12.22c-1.44,1.43-4.63,2.08-5.42,2.87s-6.14,1.5-10.64,1.18-6.79,3.2-6.79,4.24-3.66,3.85-4.8,4.41-1.41,1.4.75,1.4A12.91,12.91,0,0,0,63,252.06c1-1,2.87-2.87,4.44-2.87s4.11,1.3,6.79.71,5.09,0,8.36.66,4.64-.85,6.53-1.77,7.7.53,7.7.53a31.79,31.79,0,0,1-2.8,4,19.72,19.72,0,0,1-4.58,2.87c-1.17.53-2.48,2.22-1.82,2.88s4.34-1.15,5.35-2.16a6.93,6.93,0,0,1,4.25-1.76,29.3,29.3,0,0,0,7.25-1.76c2.08-.85,4.5-.85,5.42-1.77s3.91-4.76,5.22-3.46,1.37,3.36,3.36,3.36,1.7,1.05,3.35,1.36,10.5-2.27,12.1-.67,2.08,1.7,3.07,1.7.22-2.58-.85-3.66-3.53-3.92-1.44-5.09a9.57,9.57,0,0,1,7.84-.2c2.67,1.05,2.67,1.05,4.18,1.05s7.64,3.33,9.66,1.3c.65-1.24-1.76-2.74-5.16-3.52s-4.34-1.47-5.55-2.68-11.69-8.23-13.06-9.6-3.07-6.27-4.77-14.11-3.39-17.63-3.39-20.76-2-22.6-2-25.73v-7.45c0-.27,0-.56,0-.85.77.54,1.9,1.12,2.14.07.37-1.62.35,1.79,2,1.22s1.32-3.3,1.32-3.3.59,2.4,2,2.15.14,2.69,2.89,3.12a2.83,2.83,0,0,0,3.41-1.68s-.1,3.76,2.59,3.62,2.79-2.27,2.79-2.27.56,1.71,1.28,1.87-2.17,3.67.36,4.25,3.35-2.27,3.35-2.27.43,1.43,1.29,1.81,3.24-1.72,3.24-1.72a2.09,2.09,0,0,0,1.21,2.17s2.77,2,3.54.24c0,0,4.59.66,5.06-2.26s.17-.72.17-.72,1.75,2.3,3.17-.6.14-3.95.14-3.95a2.86,2.86,0,0,0,3.35-.56s1.25-2.18-.91-2.67c0,0,3.63-.12,2.67-3.37,0,0,6.87,3.08,7-1s-4.27-2.87-4.27-2.87a2.24,2.24,0,0,0,1.24-2.11c3.37-.06,3-4.32,3-4.32s1,2.12,3,1.37,1.38-3.64,1.38-3.64c5.9.62,4.39-4.25,4.39-4.25,4.94-.34,4.73-3.64,4.73-3.64s1.17,3.43,4,1.65.86-5.18.86-5.18,1.16,1.17,3-.65-.68-4.33-.68-4.33c2.81,0,3-2.91,3-2.91a4,4,0,0,0,3.67.65c2.47-.55,2.47-3.84,2.47-3.84s2.61,2.6,5.22-1.65-1-7.75-1-7.75c2.67,0,2.12-3.16,2.12-3.16,6.73-1,3.5-5.08,3.5-5.08,1.58,0,4.53-1.78,5.35-5.55A4.78,4.78,0,0,0,219,94.09Zm-58.09,36.68-.38-.73a2.49,2.49,0,0,0,.48.49A2.52,2.52,0,0,0,160.86,130.77Z"/></g></g></g></svg>