<svg xmlns="http://www.w3.org/2000/svg" viewBox="0 0 146.07 259.19"><title>tree6</title><g id="Layer_2" data-name="Layer 2"><g id="assets_copy" data-name="assets copy"><g id="tree"><path id="tree6" d="M145.41,53.35a.51.51,0,0,0-.37-.27c.24-.2.5-.65.27-1.66a3.09,3.09,0,0,0-.32-1c.4-.13,1-.52.91-1.76-.19-1.75-1.88-.77-1.88-.77s1.08-2.19.29-2.43,2.12-.31,1-2.06-2.72.62-2.72.62l-.32-1.21s1.75-1.4,1.26-2.25-2.66-.1-2.66-.1a2.28,2.28,0,0,0-.5-3s-1.28-1.09-1.88-.48.66-.73-.86-1.63c0,0,1.63-.55,1-1.64,0,0,1.15-.19.6-1.21s-3.16-.65-4.24.93c0,0,.84-1.4-.91-1.51a2.36,2.36,0,0,0-1.64.41,1.18,1.18,0,0,0-.21-1.31,1.08,1.08,0,0,0-.49-.28,3.53,3.53,0,0,0-.33-.7s1,1.48,1.56.62-.77-2.16-1.17-2.57L132,28a.49.49,0,0,0,.14-.17.46.46,0,0,0,.08-.45,1.08,1.08,0,0,0,0-.18c-.09-1-.71-.61-.71-.61l.62-.41a1.79,1.79,0,0,0,1,.09c.18-.06.15-.28.06-.49.34.57.94,1.41,1.33,1,.55-.53,0-1.64,0-1.64s1,1.06,1.43.23-1.19-1.35-1.19-1.35,1.15.14,1.22-.59-1.39-.86-1.39-.86,1.14-.31.72-1.09-1.15,0-1.15,0a1.56,1.56,0,0,0-.73-1.91s.77-.57.18-1.1-1.49.81-1.49.81.13-1.15-.74-1a.76.76,0,0,0-.69.91s-1.32-2.44-2-1.39-.16,1.55-.16,1.55-.94-.88-1.22-.11-.11-1.63-.9-1.67-1.6,1.87-1.6,1.87,0-2-.77-1.46a2,2,0,0,0-.73,1.21c0-.35.08-1.21-.58-1.17-.81.06-.53,1.44-.53,1.44s-1,.25-1.09.59c-.1-.37-.51-1.4-1.48-1.51,0,0,.85-.84-.56-1.31-1.12-.37-1,.49-.94.86a1.06,1.06,0,0,0-.87-.65s.74-.48-.3-1-1.46.71-1.46.71.81-2.05,0-2.75c0,0,.38-.29-.07-1.12s-1.34.8-1.34.8-.1-1.33-.91-1a1,1,0,0,0-.5,1.2s-1.38-1.41-1.47-.59a6.39,6.39,0,0,0,.08,1.73s-1.8-1.49-1.93-.73c0,0-.63-1.58-1.8-1.18s-.51,1.74-.51,1.74-2,.21-1.32,1.4c0,0-.2.07-.44.18a.5.5,0,0,0-.26-.64c-.74-.35-1.17,1-1.17,1s-1-.3-1.24,0a1.94,1.94,0,0,0-.55-2s1.16-.32.16-1.42c-.8-.88-1.14-.08-1.25.29a1,1,0,0,0-.43-1s.88,0,.22-1S99.12,12,99.12,12s1.71-1.4,1.32-2.42c0,0,.48-.06.49-1s-1.56.05-1.56.05.57-1.21-.31-1.3a1,1,0,0,0-1,.8s-.51-1.9-1-1.23a6.3,6.3,0,0,0-.78,1.54s-.84-2.18-1.32-1.58c0,0,.23-1.69-1-1.91s-1.31,1.26-1.31,1.26-1.81-.78-1.83.58c0,0-1.49-.29-1.5.31,0,0-1.07-.62-1.08,0s-.26-.62-.81-.29-.22,1.28-.22,1.28-.4-.82-.87-.62-.25-1-1.27-.9a1,1,0,0,0-1.1.86s-.25-1.36-1.2-1.1a1,1,0,0,0-.83,1s-.33-.57-.6-.57.5-1.48-.45-1.5-1,1.07-1,1.07-.26-.48-.6-.55-1,.86-1,.86S78.16,6,77.62,6c0,0-1.14-.49-1.29.18,0,0-1.69.11-1.64,1.19s0,.28,0,.28-.8-.7-1.09.45.25,1.43.25,1.43a1,1,0,0,0-1.16.45s-.29.88.53.89c0,0-1.29.32-.71,1.41a5.15,5.15,0,0,0-1.59-.06,1.68,1.68,0,0,0-.67-.07s1-1.4-.16-1.9a.77.77,0,0,0-.22-1.33c-.61-.3-1.51.21-2.15,1.06a1.5,1.5,0,0,0-1,.24A2,2,0,0,0,67.57,9c.24-.89-1.64-.15-1.64-.15S67.37,7.4,67,6.69s-2.48.37-1.88-.19-.58-1.07-.58-1.07.66.26,1.37-.75-2-1.3-2-1.3a.75.75,0,0,0,.58-1c-.19-.86-1.2-.3-1.2-.3s.88-1.34.17-1.69S62.5,1,62.5,1a1.57,1.57,0,0,0-2,.07S60.89.09,60,0s-.72,1.09-.72,1.09S58.6-.21,58,.14s-.06,1.36-.06,1.36S56.79.23,56.18.92s.76,1.23.76,1.23-1.22,0-1.5.66c-.18.5.82.73,1.48.82-.23,0-.44.05-.42.24a1.71,1.71,0,0,0,.45.86l-.14.74S57,4.73,56,5s-.56.83-.56.83-2.41-1-3-.16,1.18,1.21,1.18,1.21-1.67-.3-1.29.62a1.19,1.19,0,0,0,1.22.8c-2,.71-.47,2.16.09,2.61a2.47,2.47,0,0,0-.29.43,3,3,0,0,0-.26.21c-.41-.46-2-2.12-2.66,0a1.19,1.19,0,0,0-.88-1.17c-.94-.32-.54,1.33-.54,1.33s-.41-1.72-1.27-1.1.34,3,.34,3-.55-.39-.8.61.48.81.48.81l-.72.19a1.75,1.75,0,0,0-.89-.41c-.19,0-.23.21-.22.44-.13-.65-.42-1.64-.9-1.42-.7.32-.58,1.53-.58,1.53s-.62-1.34-1.27-.69.68,1.68.68,1.68-1.05-.52-1.35.14,1,1.28,1,1.28a1.42,1.42,0,0,0-.86.23c-.44.09-.5.78-.51,1.08a2,2,0,0,0-.56-1.3c-.65-.65-1,1.35-1,1.35s-.57-2-1.35-2.06-.94,2.33-1.11,1.53-1.22,0-1.22,0,.56-.43,0-1.56-2.15,1.12-2.15,1.12a.75.75,0,0,0-.56-1c-.84-.27-.86.88-.86.88s-.72-1.44-1.37-1,0,1.11,0,1.11a1.57,1.57,0,0,0-1,1.8s-.63-.87-1.14-.15.57,1.17.57,1.17-1.46-.06-1.49.67,1.14.74,1.14.74-1.65.31-1.36,1.19c.16.49.6.41.95.26a4,4,0,0,0-.1,2.41s-.25-1.27-1.35-.89-.43.94-.43.94a1,1,0,0,0-1,.56c.13-.34.37-1.23-.82-1-1.46.28-.72,1.23-.72,1.23-1,0-1.52.95-1.67,1.3,0-.35-1-.73-1-.73s.46-1.33-.34-1.49-.72.73-.72,1.08a2,2,0,0,0-.58-1.3c-.64-.65-.94,1.35-.94,1.35s-.57-2-1.35-2.06-.94,2.33-1.11,1.54-1.22-.05-1.22-.05.56-.43,0-1.56-2.15,1.12-2.15,1.12a.75.75,0,0,0-.56-1c-.84-.27-.86.88-.86.88s-.72-1.43-1.37-1,0,1.11,0,1.11a1.57,1.57,0,0,0-1,1.8s-.62-.86-1.14-.15.58,1.17.58,1.17-1.47-.06-1.5.67,1.14.74,1.14.74-1.65.32-1.36,1.19,1.45,0,1.45,0-.66,1-.18,1.63c.34.41,1-.34,1.45-.87-.11.2-.18.41,0,.49a1.69,1.69,0,0,0,1,0l.57.49s-.57-.49-.79.51.43.9.43.9-2.12,1.56-1.63,2.5,1.63-.41,1.63-.41-1.1,1.29-.11,1.42a1.16,1.16,0,0,0,1.3-.64C13,40.22,16,38.86,16,38.86c-.14,2.74,2.45,1.94,2.45,1.94s-1.13,2-.51,2.31A3,3,0,0,0,19.66,43,2.93,2.93,0,0,0,20,44a2.76,2.76,0,0,0-.05.71c-.16-.31-1.23-.19-1.23-.19s-.2-1.4-1-1.18-.3,1-.15,1.3a2.06,2.06,0,0,0-1.1-.9c-.87-.29-.23,1.63-.23,1.63s-1.41-1.51-2.14-1.22.23,2.5-.29,1.88-1.1.51-1.1.51.3-.64-.68-1.4-1.4,2-1.4,2a.75.75,0,0,0-.95-.63c-.87.14-.37,1.17-.37,1.17s-1.29-1-1.67-.25.54,1,.54,1a1.57,1.57,0,0,0,0,2.05s-1-.49-1.09.38,1.05.78,1.05.78-1.33.62-1,1.28S8.47,53,8.47,53s-1.33,1-.67,1.67,1.27-.69,1.27-.69a2.07,2.07,0,0,0,.33,1.34,6.43,6.43,0,0,0,.23,1.13l-.92.84s-.05-2.87-1.93-2,.5,2.52-.29,2.28S5.4,59.69,5.4,59.69s-.87-1.74-2-.39c-.8,1-.47,1.65-.21,2a3.36,3.36,0,0,0-.8.64c-1.25,1.2-.51,1.84-.51,1.84s-1.38-1-1.83.45,2.3,1.25,2.3,1.25c-.74,1,.49,1.49.49,1.49-.8-.1-.65.81-.65.81a1.06,1.06,0,0,0,1.09.61s-.57.2-.45,1.38,1,.6,1,.6.16-.79,0,.27S5.27,72,5.27,72c.05.68,1.25.36,1.25.36.55,0,.69-.6.69-.6s.55,1,.9,1,.67-.46.67-.46-.07,1.09.87,1.2.39-1.45.66-1.41.68-.49.68-.49a.94.94,0,0,0,.67,1.13c.91.39,1.34-.92,1.34-.92a1,1,0,0,0,1,1c1,.2.94-1,1.39-.71s.94-.49.94-.49-.45.9.05,1.3.91-.77.83-.17,1.08.13,1.08.13c-.08.61,1.43.53,1.43.53-.16,1.34,1.74.83,1.74.83s-.12,1.49,1.11,1.44S23.79,74,23.79,74c.39.66,1.54-1.38,1.54-1.38a6.59,6.59,0,0,0,.54,1.64C26.26,75,27,73.14,27,73.14a1,1,0,0,0,.91.93c.88,0,.49-1.23.49-1.23S29.85,74,30,73.1,29.63,72,29.63,72c.53-1-1-2.58-1-2.58s.83,1,1.62.14-.08-1-.08-1a1,1,0,0,0,.57-.92c.06.37.29,1.21,1.2.46,1.14-.95,0-1.43,0-1.43a1.93,1.93,0,0,0,.83-1.94c.13.23.73.21,1,.18.06.07.11.15.18.22a1.2,1.2,0,0,0,.11.12c.11.34.32.77.7.8,1.55,1.81,4.16,5,5.17,6.08a17.55,17.55,0,0,1,3.25,5A20.07,20.07,0,0,1,44,79.71a1.52,1.52,0,0,0-1.45.86s.31-1.18-1.2-2.09-1.61.72-1.61.72c0-1.91-1.92-3.7-3-3.17a.77.77,0,0,0-.2,1.34c-1.17.51-.14,1.9-.14,1.9-1.76-.13-1.48,1.69-1.64.85S33,79.44,33,79.44a2.28,2.28,0,0,0-2.1,2.15s-1.37-1.84-2.25-1.42-.24,2.56-.24,2.56l-.94.82s0-2.87-1.89-2.06.45,2.53-.33,2.28-1.14,2.16-1.14,2.16-.84-1.77-2-.43c-.82.94-.51,1.63-.25,2a2.64,2.64,0,0,0-.64.46c-.65-.78-1.51-1.24-2.09-.93a.77.77,0,0,0-.2,1.33c-1,.45-.37,1.56-.18,1.84l0,.06c-1.66,0-1.4,1.68-1.55.85s-1.82-.67-1.82-.67a2.27,2.27,0,0,0-2.09,2.15S11.93,90.7,11,91.12s-.24,2.57-.24,2.57l-.94.81s0-2.87-1.89-2,.45,2.53-.33,2.27S6.5,96.88,6.5,96.88s-.84-1.76-2-.43c-.82,1-.51,1.64-.25,2a3.07,3.07,0,0,0-.82.61c-1.27,1.18-.54,1.84-.54,1.84s-1.36-1-1.84.41,2.27,1.29,2.27,1.29c-.76,1,.46,1.51.46,1.51-.8-.12-.66.79-.66.79a1.05,1.05,0,0,0,1.07.64s-.58.19-.48,1.36,1,.63,1,.63.18-.79,0,.27,1.43,1.44,1.43,1.44c0,.69,1.24.39,1.24.39.54,0,.7-.58.7-.58s.53,1,.88,1,.68-.45.68-.45-.09,1.08.84,1.22.42-1.44.69-1.4.69-.47.69-.47a.94.94,0,0,0,.65,1.14c.9.41,1.36-.89,1.36-.89a1,1,0,0,0,.8,1,3,3,0,0,0,.09,1,3,3,0,0,0-1.57.72c-.43.55,1.5,1.83,1.5,1.83s-2.66.47-1.28,2.84c0,0-3.27.17-1.7,2.17a1.16,1.16,0,0,0-1.45,0c-.82.57.75,1.21.75,1.21s-1.63-.67-1.63.39S12,121.87,12,121.87s-.63.21,0,1,.94.09.94.09l-.27.7a1.76,1.76,0,0,0-.85.48c-.12.15,0,.31.23.43-.61-.27-1.58-.62-1.69-.1-.15.76.91,1.36.91,1.36s-1.45-.27-1.31.63,1.76.43,1.76.43-1,.55-.67,1.18,1.63-.08,1.63-.08-.76.9,0,1.3.94-.67.94-.67a1.57,1.57,0,0,0,1.69,1.16s-.3.91.48,1,.76-1.51.76-1.51.56,1,1.17.39a.75.75,0,0,0,.05-1.14s2.48,1.25,2.42,0-.75-1.36-.75-1.36,1.27.18,1.06-.6,1,1.27,1.69.85.25-2.45.25-2.45,1.2,1.64,1.46.76a2,2,0,0,0-.09-1.42c.16.31.63,1,1.14.64s-.39-1.49-.39-1.49.73-.8.56-1.11a2,2,0,0,0,2.08.39s-.22,1.18,1.21.77c1.13-.34.56-1,.28-1.26a1,1,0,0,0,1.08.05s-.33.82.82.64.81-1.37.79-1.42h0s.52,2.15,1.6,2.24c0,0-.16.45.69.88s.64-1.42.64-1.42.85,1,1.3.28a.87.87,0,0,0-.08-1.09.59.59,0,0,0,.53-.1c.39,0,.78,0,.86-.2l.13,0s-.74.48.3,1,1.47-.71,1.47-.71-.82,2.06,0,2.76c0,0-.38.28.07,1.11s1.33-.79,1.33-.79.1,1.33.91,1a1,1,0,0,0,.51-1.2s1.38,1.41,1.47.59a6.29,6.29,0,0,0-.08-1.72s1.8,1.49,1.93.73c0,0,.62,1.58,1.79,1.18s.53-1.74.53-1.74,2-.21,1.32-1.4c0,0,1.43-.47,1.14-1,0,0,1.25,0,1-.51s.53.41.84-.15-.43-1.23-.43-1.23.74.52,1.06.12.69.71,1.55.16a1,1,0,0,0,.54-1.28s.88,1.06,1.58.37a1,1,0,0,0,.23-1.3s.56.34.8.21.29,1.53,1.13,1.09.37-1.44.37-1.44a1.24,1.24,0,0,0,.8.19c.33-.1.47-1.26.47-1.26a.77.77,0,0,0,.86.31l.14,0c-.05.43,0,.86.25,1,.72.31,2.14-1.19,2.14-1.19s-.66,1.91.21,1.64a1.92,1.92,0,0,0,.57-.31c0,1.73-.12,3.53-.26,5.48-.39,5.42-.49,10.4-.48,14.25,0,2.51,0,4.62.08,6.13,0,2,.29,6,.56,10-.39,2.59-.73,5.13-.84,7.39-.31,5.78-1.63,11.66-1.63,15.52s-.5,16.83-.81,20.79a50.35,50.35,0,0,0,.09,5.6c-.56,2.65-1,5-1.23,6.26-.51,3.56-1.22,5.48-1.42,9.13s-2.74,8.32-3.65,11.77S49.7,240,48,242.61a13.7,13.7,0,0,1-4,.53,23.63,23.63,0,0,0-6.29.4c-1.12.41-4.26,1.32-5.78,3.15a7.14,7.14,0,0,1-3.26,1.93c-1.7,0-3.6,0-4.57.09-1.63.11-4.57,2.44-6.6,2.64s-1.92,1-1.31,1.32h0c-.63.33-.47.79,0,1a6.17,6.17,0,0,0,4.05-.51,9.71,9.71,0,0,1,4.16-.81c1,0,4.77.5,6,.5s3-.08,4.51,0a4.84,4.84,0,0,0-.64.73A4.59,4.59,0,0,1,36,252.9c1.22,0,2-.14,4.13-.23,2.44-.1,1.93-.1,3.55-1.11a9.22,9.22,0,0,1,3.62-1c-.69.79-1.62,1.86-2.3,2.66-1.22,1.42-4.26,1.72-5.38,2.13s-3.54.81-4,1.82c-.22.56-.25,1,0,1-.4,1-.2,1.52,1.22.41s2.94-1,4.56-1.12,6.19-.61,7.91-2.84a11.08,11.08,0,0,1,5.78-4.23,1.43,1.43,0,0,0,.87-.2c.83-.18,1.3-.2,1.49.05,0,0,0,.07,0,.12-.35,1.3-.55,1.71-.34,2.25h0a3.34,3.34,0,0,0-1.06,1.8c-.1.91.81,3.55,1,2.23a2.19,2.19,0,0,1,.71-1.21,2.12,2.12,0,0,1,0,.5c-.1.71.91.1,1.22-.92a5,5,0,0,1,.39-.87,3.65,3.65,0,0,0,.44-.44c.79-1,2.15-2.44,3.71-2.52a5.3,5.3,0,0,0,.94.79c1.11.71,3.34.51,5,.51s3,1.52,3.85,2.53,2.53,1.63,2.74,2.95,1.11-1.32,1-2.24a1.14,1.14,0,0,0-.06-.25,2.7,2.7,0,0,0,.06-.76,3.61,3.61,0,0,0-1.26-2,.91.91,0,0,1,.07-.14c.4-.71.2-1-.2-2.54a.45.45,0,0,1,0-.11,2.09,2.09,0,0,1,.2.22c.82,1,1.63,2.33,3.35,1a6,6,0,0,1,1.51-.84,14.07,14.07,0,0,1,3.08,3c1.72,2.23,6.29,2.74,7.91,2.84s3.15,0,4.57,1.12,1.62.6,1.21-.41-2.84-1.42-4-1.83-4.16-.71-5.38-2.13l-1.26-1.46a4.19,4.19,0,0,0,1.34.86,29.57,29.57,0,0,0,4.06,1c.71.2,6.08.91,6.69,1.62a5.24,5.24,0,0,0-2.36-1.82,6.13,6.13,0,0,1,2.36.81A5.12,5.12,0,0,0,96.34,252c-.89-.26-1.86-.42-2.64-.57a32.37,32.37,0,0,0,4.09.17c1.62-.11,3.85,0,5.07,0s5-.51,6-.51a9.68,9.68,0,0,1,4.16.81,6.19,6.19,0,0,0,4.06.51c.61-.31.71-1.12-1.32-1.32s-5-2.54-6.59-2.64c-1.25-.08-4.06-.15-6,0a5.48,5.48,0,0,1-1.86-1.37c-1.52-1.83-4.66-2.74-5.78-3.14a23.14,23.14,0,0,0-6.29-.41,13.18,13.18,0,0,1-3.52-.39q-.27-.36-.51-.72c-1.72-2.64-5.38-8.63-6.29-12.08s-3.45-8.11-3.65-11.76-.91-5.58-1.42-9.13c-.18-1.26-.63-3.44-1.16-6,0-1.2.08-2.28.06-3.19s0-1.53,0-2.11c-.3-3.95-.81-16.94-.81-20.79s-1.32-9.74-1.62-15.52c-.13-2.4-.5-5.12-.92-7.88.29-4.32.58-8.95.64-11.08.09-3.33.17-9.46-.23-16.6.33.46,1.43-.5,1.43-.5s-.37,1.28.51,1.22a1,1,0,0,0,.89-.94s.79,1.8,1.16,1.07a6.72,6.72,0,0,0,.52-1.65s1.16,2,1.54,1.36c0,0,0,1.71,1.26,1.74s1.09-1.45,1.09-1.45,1.9.49,1.71-.85c0,0,1.5.06,1.42-.54,0,0,1.15.45,1.06-.15s.35.57.84.16,0-1.31,0-1.31.51.75,1,.49.39.9,1.38.69a1,1,0,0,0,1-1s.45,1.31,1.34.91a1,1,0,0,0,.66-1.14s.41.51.67.48-.26,1.53.67,1.41.85-1.22.85-1.22.33.44.68.46.87-1,.87-1a.76.76,0,0,0,.7.58s1.19.32,1.23-.37c0,0,1.65-.37,1.43-1.43s0-.27,0-.27.48.29.77,0c.29.76.79,1.31,1.34,1.29,1.17,0,.76-1.12.76-1.12,1.28,0,.95-1.65.95-1.65,1.53.87,2.07-.88,1.84-.06s1.34,1.4,1.34,1.4a2.29,2.29,0,0,0,2.82-1s.44,2.26,1.42,2.26,1.33-2.21,1.33-2.21l1.2-.33s-1.26,2.59.81,2.67.69-2.47,1.29-1.91,2-1.45,2-1.45,0,1.95,1.6,1.25c1.15-.5,1.17-1.26,1.08-1.66a3.16,3.16,0,0,0,1-.2c1.17-.37,1.32-.92,1.32-1.21l.09,0a1.26,1.26,0,0,0,.9.61,1,1,0,0,0,1,.33c1.5-.23.12-2.62.12-2.62,1.22.23,1.13-1.09,1.13-1.09.26.77,1,.23,1,.23a1,1,0,0,0,.08-1.24s.43.42,1.44-.2.1-1.18.1-1.18-.79.2.26-.09.63-1.93.63-1.93c.6-.34-.22-1.28-.22-1.28a.77.77,0,0,0-.84-.36,5.33,5.33,0,0,0,.38-.61,2.28,2.28,0,0,0,1.51-2.27s1.59,1.66,2.41,1.13-.07-2.57-.07-2.57l.83-.93s.34,2.85,2.13,1.81-.76-2.45.05-2.3.86-2.28.86-2.28,1.05,1.65,2,.18c.69-1,.3-1.68,0-2a3.23,3.23,0,0,0,.73-.71c1.11-1.33.31-1.89.31-1.89s1.47.85,1.78-.64-2.42-1-2.42-1c.64-1.07-.64-1.43-.64-1.43.81,0,.56-.87.56-.87a1,1,0,0,0-1.14-.5s.55-.26.31-1.42-1.07-.5-1.07-.5-.09.81,0-.27-1.6-1.25-1.6-1.25c-.12-.68-1.28-.23-1.28-.23-.54.05-.62.66-.62.66s-.66-1-1-.9-.62.52-.62.52,0-1.08-1-1.1-.24,1.48-.51,1.47-.62.55-.62.55a1,1,0,0,0-.79-1c-.94-.3-1.24,1-1.24,1a1,1,0,0,0-1.06-.9c-1-.09-.84,1.06-1.31.85s-.89.59-.89.59.36-.94-.17-1.29-.84.86-.82.25-1.09,0-1.09,0c0-.62-1.48-.38-1.48-.38,0-.7-.46-.85-.93-.83a.45.45,0,0,0-.3,0l-.08,0a3.35,3.35,0,0,0-.5.13s0-1.49-1.25-1.31-1.07,1.87-1.07,1.87c-.21-.3-.53,0-.81.46a.45.45,0,0,0-.47.59,1.18,1.18,0,0,0-.33-.15,5.36,5.36,0,0,0-.28-.61c0-.2-.13-.42-.58-.63-1.35-.61-1.3.58-1.3.58a1.91,1.91,0,0,0-2.06.07,10,10,0,0,0,.84-1.2A8.13,8.13,0,0,0,109,86.23a7.82,7.82,0,0,1,.56-1.34,10,10,0,0,1,3-2,21.5,21.5,0,0,1,5.88-1.72,22,22,0,0,0,7.61-2.74,24.35,24.35,0,0,0,4.41-3.61,1.55,1.55,0,0,0,.72-.84,1.18,1.18,0,0,0,.69,1.28c.88.47.73-1.22.73-1.22s.15,1.75,1.1,1.27.11-3,.11-3,.47.47.87-.48-.35-.88-.35-.88l.75-.07a1.73,1.73,0,0,0,.82.53c.18,0,.25-.17.27-.4,0,.67.18,1.69.68,1.55.74-.22.8-1.44.8-1.44s.42,1.42,1.16.87-.42-1.75-.42-1.75.95.66,1.35,0-.82-1.41-.82-1.41,1.15.26,1.14-.62-1-.53-1-.53a1.58,1.58,0,0,0,.25-2s.95-.14.67-.88-1.69,0-1.69,0,.64-.95-.19-1.21l-.11,0a2.8,2.8,0,0,0,.1-1s.15,1.76,1.09,1.28.11-3,.11-3,.48.47.88-.49-.35-.87-.35-.87l.74-.08a1.78,1.78,0,0,0,.82.54c.19,0,.26-.18.28-.4,0,.67.17,1.68.68,1.54.74-.21.8-1.43.8-1.43s.42,1.42,1.16.87-.42-1.76-.42-1.76.95.67,1.35.06-.83-1.41-.83-1.41,1.15.25,1.15-.63-1-.53-1-.53a1.54,1.54,0,0,0,.5-1.11.77.77,0,0,0,1-.57A.92.92,0,0,0,145.41,53.35ZM128.19,74.46c-1.12,1-2.23,1.52-5,2.44a63,63,0,0,1-6.84,1.57,6.73,6.73,0,0,0,.65-.66c.58-.68,1.79-1.81,3-2.91,0,.24.14.43.51.53a2.83,2.83,0,0,0,2.57-.7s.68.94,1.36,1.07.93-2.18.93-2.18,1.64,2.15,3.11-.16a4.85,4.85,0,0,0,.29.43C128.54,74.12,128.34,74.33,128.19,74.46ZM98.07,70.1c-.61,1.42-2.34,5.78-2.34,6.19a35.3,35.3,0,0,1-1.92-6.5c-.19-1.22-.52-2.86-.78-4.26a.62.62,0,0,0,.19,0,1,1,0,0,0,.92-1s.49,1.29,1.38.87a1,1,0,0,0,.64-1.15s.42.51.69.46-.23,1.55.7,1.4.83-1.23.83-1.23a1.34,1.34,0,0,0,.59.4c0,.11.06.22.08.32A9.52,9.52,0,0,1,98.07,70.1ZM86.35,80.37c-.31-.55-1.14.39-.84-.15s-1-.52-1-.52c.29-.53-1.15-1-1.15-1,.65-1.19-1.31-1.41-1.31-1.41s.65-1.34-.51-1.74-1.8,1.17-1.8,1.17c-.13-.76-1.94.72-1.94.72a6.33,6.33,0,0,0,.1-1.72c-.1-.82-1.48.58-1.48.58a1,1,0,0,0-.5-1.2c-.81-.36-.91,1-.91,1s-.88-1.64-1.34-.81-.07,1.12-.07,1.12c-.84.7,0,2.76,0,2.76s-.41-1.23-1.46-.72-.3,1-.3,1a1,1,0,0,0-.87.65c.08-.37.18-1.24-.94-.87-1.41.46-.57,1.31-.57,1.31-1,.1-1.39,1.14-1.48,1.51,0-.35-1.09-.6-1.09-.6S67.19,80,66.37,80c-.65,0-.62.82-.58,1.16a2,2,0,0,0-.73-1.21c-.72-.57-.77,1.46-.77,1.46s-.81-1.91-1.6-1.88c-.46,0-.6.85-.69,1.38a.82.82,0,0,0-.27-.21c-.18-.08-.33,0-.45.2a1.83,1.83,0,0,0-.71.4s.5-.49-.15-1.55c-.43-.67-1.12.08-1.56.7a.41.41,0,0,0-.18.08s1.17-2.36.3-3-1.26,1.11-1.26,1.11.38-1.65-.56-1.31a1.16,1.16,0,0,0-.85,1.17c-.74-2.43-2.76.14-2.76.14-.56-1.22-1.3-1.38-1.92-1.23a36.9,36.9,0,0,1-.52-5.17c-.1-2.84.5-3.45,1.62-5.07s3.85-5.73,5-7.89a2.2,2.2,0,0,0,1.55-1.07s.37,2.27,1.34,2.31S62,58.34,62,58.34l1.21-.29s-1.33,2.54.73,2.69.77-2.45,1.35-1.86,2-1.39,2-1.39-.07,1.95,1.57,1.3a1.71,1.71,0,0,0,1.08-1c.24-.22.41-.4.41-.4s-.63,1.92.24,1.63a2.11,2.11,0,0,0,1.1-.91c-.16.31-.49,1.12.15,1.3s1-1.19,1-1.19,1.07.12,1.22-.19A2,2,0,0,0,75,60s-1.08.51.1,1.42c.93.73,1.13-.12,1.18-.5a1,1,0,0,0,.59.9s-.85.21,0,1,1.61-.2,1.61-.2S77,64.3,77.54,65.24c0,0-.46.14-.31,1.07S78.76,66,78.76,66s-.34,1.29.53,1.21a.94.94,0,0,0,.88-1s.83,1.79,1.2,1a6.69,6.69,0,0,0,.48-1.65s1.22,2,1.59,1.32c0,0,.07,1.7,1.3,1.71s1.06-1.48,1.06-1.48,1.93.45,1.71-.89c0,0,1.52,0,1.42-.57,0,0,1.16.43,1.07-.17s.37.56.84.14,0-1.3,0-1.3a2.11,2.11,0,0,0,.23.25c.17.86.36,1.82.51,2.92a19.59,19.59,0,0,0,1.31,5.17c.6,1.91.91,4.4,1.7,6.13a13.27,13.27,0,0,1-.76,3.43.51.51,0,0,0-.44.2.52.52,0,0,0-.11.42.94.94,0,0,0-.48-.65c-.84-.45-.9,1.21-1.14,1.08s-.8.2-.8.2a.93.93,0,0,0-.22-1.29c-.7-.7-1.59.36-1.59.36a1,1,0,0,0-.52-1.29c-.86-.55-1.23.56-1.55.16s-1.07.11-1.07.11S86.66,80.93,86.35,80.37ZM93.28,83a1,1,0,0,0,.18.38c0,.08-.07.16-.11.25l-.13,0A1.37,1.37,0,0,0,93.28,83ZM51.87,60.38c.71-.21.43-1.06.43-1.06,1.27.09,1-1.61,1-1.61,1.5.92,2.1-.82,1.84,0a.78.78,0,0,0,.27.78c-1.1,1.47-3.23,4-3.95,4.83A18.35,18.35,0,0,1,51.87,60.38Zm-5.12-1a8.12,8.12,0,0,1-1.27-2.57s0-.06,0-.08a.55.55,0,0,0,0-.47.64.64,0,0,0-.13-.15c-.05-.37-.09-.74-.11-1.1a1.7,1.7,0,0,0,.53-.13c.77-.32.84-.8.72-1.23a1.57,1.57,0,0,0,2,.11,2,2,0,0,0,.1,2.41c.92,1.5,1.76.11,1.76.11a3.68,3.68,0,0,0,0,3.11c-.11,1.16-.33,2.33-.74,2.33C49,61.69,48,61,46.75,59.35Zm-6.32-4.42a.42.42,0,0,0,.13-.07l.18.21L40.42,55A.17.17,0,0,1,40.43,54.93Zm56.46,46a6.5,6.5,0,0,0,.14.69,1.59,1.59,0,0,0-.23-.5ZM42.08,62.08a.75.75,0,0,0,1,.6c.86-.17.33-1.19.33-1.19s1.32.92,1.68.21-.56-1-.56-1a2.14,2.14,0,0,0,.35-.86,40.08,40.08,0,0,0,2.4,3.82,14.25,14.25,0,0,1,1.8,3.45c0,.11,0,.22,0,.31,0,1-.31,5.67-.2,8.41,0,.1,0,.21,0,.31l-.24.19a31.53,31.53,0,0,0-3.33-4.66C43.7,70,44,70.2,43.5,68.68c-.45-1.34-1.29-3.54-1.76-5.23A6.82,6.82,0,0,0,42.08,62.08Zm73,9.66c.17.32.55.55,1.35.21,1.62-.7,1.48-1.91,1.48-1.91a1.6,1.6,0,0,0,1.9,1.06l.1.18c-2,2-5.6,5.21-5.6,5.21S114.74,73.75,115.06,71.74Zm19-9.59.22.31a.87.87,0,0,0-.18.11C133.8,62.81,133.89,62.55,134,62.15ZM39.14,66.76a10,10,0,0,1-2.34-2.24l-.22-.35c0-.12-.06-.21-.06-.21s1.44,1.49,2.17,1.17-.3-2.5.23-1.88a.52.52,0,0,0,.25.15,3.13,3.13,0,0,0,.47,1.12,9.08,9.08,0,0,1,1,3.5Zm57,54.2h0Zm10.79-38.38a31.28,31.28,0,0,0-2.3,2.71.88.88,0,0,0-.23-.57c-.61-.51-2.12,1.36-1.8.61s-1-.75-1-.75.71,0,.94-1.24-2.4-.34-2.4-.34a.75.75,0,0,0,.12-1.13c-.53-.71-1.21.22-1.21.22s.24-1.58-.54-1.6a33,33,0,0,1,1.9-4.91c1.42-3.15,1.12-5.07,1.62-6.8.13-.44.26-1.1.41-1.88.73-.45.92-1.87.92-1.87l.82.94s-.93,2-.11,2.57,2.43-1.1,2.43-1.1a2.28,2.28,0,0,0,1.78,2.42s1.63.39,1.89-.43-.26.95,1.5,1.07c0,0-1.08,1.12-.22,1.8,0,.1-.06.19-.08.28a.72.72,0,0,0-.2.69c-.47,1.59-1,3.21-1.32,4.64a12.34,12.34,0,0,1-1.17,3C108.07,81.58,107.45,82.06,106.89,82.58ZM67.06,11.27a3.51,3.51,0,0,0-.09.65,3.55,3.55,0,0,0-.06-.61ZM43.58,18.94a1.4,1.4,0,0,0-.3.58l-.05,0a2.6,2.6,0,0,0,.1-.47A2,2,0,0,0,43.58,18.94ZM11.24,54.33a2.59,2.59,0,0,0,.41-.27l.71.18h0c-.06,0-.64-.11-.47.73A5,5,0,0,0,11.24,54.33ZM18,110.1l-.13,0C18,110,18,110,18,110.1Zm-1.26-.64a2,2,0,0,0,.39-.4A1.71,1.71,0,0,0,17,110C16.91,109.82,16.84,109.64,16.76,109.46Zm.27.73a.58.58,0,0,0,.14.17l0,0-.09.06ZM34.9,246.89a11.66,11.66,0,0,1,5.58-.2,13,13,0,0,0,3.63,0,7,7,0,0,1-3.35,1.22A16.33,16.33,0,0,0,35.69,249a10.55,10.55,0,0,1-4.26-.2,6,6,0,0,0-.6-.09A13.53,13.53,0,0,1,34.9,246.89Zm62.58,1.83a18.07,18.07,0,0,0-3.43-.94,13.51,13.51,0,0,1,4.22.43c.57.16,1.13.36,1.67.57A6.77,6.77,0,0,1,97.48,248.72ZM70,124.94a.53.53,0,0,0-.29.36c0-.61-.08-1.22-.12-1.85,0-.27,0-.51,0-.78.72.49,1.39-.32,1.39-.32S69.47,124,70,124.94ZM137.05,64.1s0-.21,0-.5a1.88,1.88,0,0,0,.23.16A.91.91,0,0,0,137.05,64.1Z"/></g></g></g></svg>