<svg xmlns="http://www.w3.org/2000/svg" viewBox="0 0 189.59 259.19"><title>tree4</title><g id="Layer_2" data-name="Layer 2"><g id="assets_copy" data-name="assets copy"><g id="tree"><path id="tree4" d="M.32,105.64s0,0,0,0c.41.59,2-.1,2.55-.28a3.2,3.2,0,0,0,2-2.65,18,18,0,0,1-1.1-3.83,12.48,12.48,0,0,1-.21-2c-.55,1-1.22,2-1.79,3-.08.14-.26,0-.31-.08a5.44,5.44,0,0,1-.18-2.89,30.56,30.56,0,0,1,.89-5.2,21.23,21.23,0,0,1,1.84-5,10.32,10.32,0,0,1,2-2.63,4.84,4.84,0,0,0-4.4,2.43c-.09.17-.32,0-.34-.13a19,19,0,0,1,1.25-10.8,11.86,11.86,0,0,1,2.51-3.81,12.11,12.11,0,0,1,1.62-1.43,8.14,8.14,0,0,1-1.47.29,4,4,0,0,1-2.19-.57A4.79,4.79,0,0,1,.42,67.51a.2.2,0,0,1,.18-.27,12.07,12.07,0,0,0,2.75-.15,8.31,8.31,0,0,0,2.78-1.45A11.39,11.39,0,0,0,8.86,63c-1.57.43-3.17-1.28-4.3-2.12-1.34-1-2.82-3.8-2.15-5.46a.15.15,0,0,1,.23-.08,6.06,6.06,0,0,0,3.56.87A5.85,5.85,0,0,0,8,55.83a3.73,3.73,0,0,0,.88-.47,2.35,2.35,0,0,1,.27-.13,6.47,6.47,0,0,1-2.95-1.07c-1.34-.94-3.49-2.5-3.3-4.37a.14.14,0,0,1,.22-.12c1.62.82,3.59.24,5.2-.33s4.3-1.79,4.71-3.51A6.74,6.74,0,0,0,7.5,48.19c-.16.18-.47-.11-.33-.28A.22.22,0,0,1,7,47.76a9.15,9.15,0,0,1,2.27-8.18,12.68,12.68,0,0,1,7.57-4.13A5.12,5.12,0,0,1,13.65,32c0-.17.12-.33.28-.22,2.06,1.25,5.05.55,6.92-.87a4.29,4.29,0,0,1-.55-.31c-.87-.57-2-2.28-1.37-3.33.07-.11.19,0,.26,0,1.18,1.28,3.37,1.1,4.95.91,1.3-.15,5.1-1.2,5-3.05a4.78,4.78,0,0,0-1.79.76.22.22,0,0,1-.31-.21c.22-2.44,3.09-4.41,5.07-5.44,2.26-1.19,5.81-1.88,8.37-1-2.08-1.73-3.4-4.73-2.61-7.13,0-.13.19-.13.29-.05a9.92,9.92,0,0,1,1,1,5.44,5.44,0,0,0,2.92,1.59,16.15,16.15,0,0,0,2.93.41,6.81,6.81,0,0,0,1,0,5,5,0,0,1,1.29-.23,8.2,8.2,0,0,0-3.41-6.36c-.1-.08-.15-.33,0-.33a20,20,0,0,1,7.79,1.84c1.55.67,3.32,1.74,4,3.37.95-3.25.93-7.09-2-9.3-.13-.09-.18-.43.06-.42A9,9,0,0,1,59,5.84a26.8,26.8,0,0,1,4.38,3.83,9.07,9.07,0,0,1,.27-6C64.29,2.3,65.63-.14,67.43,0a.27.27,0,0,1,.24.37c-.85,1.54,0,3.83.64,5.28.35.82,2,2.63,3.07,2.64.52-1.74-.7-3.81-1.81-5a.19.19,0,0,1,.05-.3,4.58,4.58,0,0,1,2.54.09,11.22,11.22,0,0,1,3.53,1.13,8.48,8.48,0,0,1,2.9,2.4A6.92,6.92,0,0,0,78,3.72,14.09,14.09,0,0,0,75.78,1c-.1-.12-.11-.4.11-.39A18,18,0,0,1,86,4.61a22.41,22.41,0,0,1,5.65,6c-.37-3.12,1.1-6,3.07-8.49.14-.18.45,0,.42.22-.27,2.16.37,6.56,2.7,7.93a13,13,0,0,1,.38-5.43c.3-1.48,1.94-.17,2.54.26a31.3,31.3,0,0,1,4.34,4,5.26,5.26,0,0,1,1.33,1.93,11.28,11.28,0,0,0-1.3-7.39.18.18,0,0,1,.28-.22c.89.74,2,1.17,2.91,1.87a20.08,20.08,0,0,1,2.5,2.55,11.32,11.32,0,0,1,2.74,4.91,9.93,9.93,0,0,0,.5-7.93c-.07-.18.09-.32.25-.19a28.43,28.43,0,0,1,3.28,2.71,38.94,38.94,0,0,1,2.84,3.46,21.66,21.66,0,0,1,2.31,3.27l0-.39c-.08-1.34,0-2.69,0-4a13.1,13.1,0,0,1,.1-3.19.16.16,0,0,1,.24-.09,16,16,0,0,1,5.41,5,20.42,20.42,0,0,1,1.83,3.21,8.27,8.27,0,0,1,.46,1.35,4,4,0,0,0,.7-2.71,6.09,6.09,0,0,0-.72-2.73c-.17-.12-.33-.25-.5-.36s-.21-.44.05-.37a1.45,1.45,0,0,1,.78.6,19.09,19.09,0,0,1,4.12,5.71c1.18,2.24,2.21,4.88,1.66,7.41,1.41-1.72,3-4.46,1.36-6.1-.14-.13-.09-.49.15-.33l0,0h0a8.34,8.34,0,0,1,3.72,5.33,10.56,10.56,0,0,1,.82-4c.38-.88,1-2.22,2.07-2.4a.11.11,0,0,1,0-.12c.16-.17.11-.15.31-.19a.2.2,0,0,1,.22.23,1.25,1.25,0,0,0,0,.19c0,.07,0,.13,0,.16-.29,2.14.31,4.51.74,6.58a15.62,15.62,0,0,0,1.47,4.75,22.33,22.33,0,0,0,2.58-3.1,5.32,5.32,0,0,0-.15-4.89c-.1-.19.1-.32.26-.2,4.65,3.64,8.78,8.46,8.12,14.57a12.26,12.26,0,0,1,3.63-3c1.28-.76,2.8-1,4.11-1.76,1-.57,3.52-1.79,3.12-3.31a.08.08,0,0,1,.14-.06,1.65,1.65,0,0,1,.17.39c1.48.72-2,7.4-3.8,10a12.94,12.94,0,0,1,3.14-.22,17.49,17.49,0,0,1,3.15.38c1.35.25,2.25,1,3.52,1.47.2.07.28.46,0,.4l-.17,0a.08.08,0,0,1-.06.11c-1,.22-2,.24-3,.49-.46.12-.94.27-1.39.41a4,4,0,0,0-.9.51,6.23,6.23,0,0,1,1.48.17c1.1.3,2.2.68,3.26,1.08A26.87,26.87,0,0,1,181,44.41a35.84,35.84,0,0,1,5.26,4.41,17.38,17.38,0,0,1,1.95,2.65,12.66,12.66,0,0,1,.79,1.26c.24.49.19,1,.53,1.45.13.18,0,.44-.24.26-2-1.71-4.38-2.28-6.85-2.82-1.69-.36-3.67.32-5.31-.13l.31.35c1,1.14,2.26,2.14,3.35,3.23a6.78,6.78,0,0,0,3.79,2c.12,0,.29.2.15.31l-.1.07c.05,1.59-1.39,2.21-2.72,2.41a23,23,0,0,1-2.75.51,20.12,20.12,0,0,1,5.8,5.71c1.93,2.84,3.39,6.89,2.24,10.32a.14.14,0,0,1-.17.09c0,.12-.23.13-.31,0a7,7,0,0,0-3.33-3.07c-1.2-.64-2.53-.84-3.76-1.37.45.48.93.94,1.32,1.41a13.52,13.52,0,0,1,1.79,2.77,16.29,16.29,0,0,1,2,7.25c0,.23-.26.2-.38.07-1.16-1.36-2.26-2.73-4-3.3a16.42,16.42,0,0,0-4.42-1.17c1.94,2.77,2.33,6.52,2.52,9.79a22.24,22.24,0,0,1-.06,3.56l.09,0c5.66,2.45,8.42,9.12,8.45,14.93,0,.24-.32.13-.36,0-.65-3-3.93-5.38-6.84-5.83,2,3.56,4.09,7.63,4.27,11.67,0,.27-.33.17-.41,0-1.28-2.49-4.76-4.27-7.44-4.74a15.4,15.4,0,0,1-.1,4.39,15.72,15.72,0,0,1-1.18,3.63c-.71,1.56-2,2.76-2.68,4.3-.08.18-.29,0-.3-.11a10.76,10.76,0,0,0-2.69-6.46,5.28,5.28,0,0,1,0,.55,18.14,18.14,0,0,1-.46,4.65,9.62,9.62,0,0,1-2,4.09,21.15,21.15,0,0,1-2.22,3c-.12.11-.29-.07-.29-.19a12.7,12.7,0,0,0-1.38-7,7.94,7.94,0,0,1-1.56,4.39c-1.37,1.94-3.2,3.19-4.92,4.79-.14.13-.38-.12-.32-.28a14.07,14.07,0,0,0,1.16-5.3,13.52,13.52,0,0,0-1.08-4.81,8.48,8.48,0,0,1-.46,2.56,12.73,12.73,0,0,1-2.86,3.67,34.86,34.86,0,0,1-3.46,3c-1,.77-2.71,1.27-3.31,2.37-.13.24-.43-.05-.43-.22,0-1.1,0-2.28-.07-3.44a36.32,36.32,0,0,0-1.21,4.61,16.76,16.76,0,0,0-.24,3.16c0,.74-.23,2.14.14,2.8.07.12,0,.31-.17.26a4.73,4.73,0,0,1-2.82-3.08c-.2.63-.56,1.25-.76,1.77-.48,1.23-1.14,3.14-2.24,3.94-.13.09-.3-.07-.3-.2a14.7,14.7,0,0,0-.18-2.65,10,10,0,0,0-.73-2.57l-.13.31a120,120,0,0,1-10.9,18.91c-2,2.83-4.24,5.34-6.33,8.06-2.41,3.14-3.56,7-4.69,10.74a.15.15,0,0,1,0,.08c.42,4.54,1.63,9,2.25,13.55a107.55,107.55,0,0,1,1.34,19.13,79.69,79.69,0,0,1-3,19.22c-1.62,5.45-3.16,11.73-6.9,16.22a7.45,7.45,0,0,1,1-.22c2.33-.37,4.13.74,5.77,2.28,1.83,1.71,2.24,4.36,3.18,6.58a3.19,3.19,0,0,0,4.45,1.84,5.25,5.25,0,0,1,2.94-.63,9.66,9.66,0,0,1,4.12,2.26,9.13,9.13,0,0,0,2.57,1.55,4.64,4.64,0,0,0,3.48-.57c2.74-1.19,6.56,2.38,5.54,5.19a3.83,3.83,0,0,1,.1.59c0,.23-.31.1-.33-.08a1,1,0,0,0,0-.17c-.11,0-.22-.17-.18-.28s0-.13.07-.2a5.26,5.26,0,0,0-2.34-2.65c-1.2-.7-2.69.52-3.77,1a6.67,6.67,0,0,1-4.66.52,6.84,6.84,0,0,1-3.28-2.76,6.22,6.22,0,0,0-1.76-1.78c-1.38-.8-2.89.29-3.93,1.14-1.22,1-2.3,2.36-3.93,2.61a8.69,8.69,0,0,1-5.18-1,8.55,8.55,0,0,1-3.51-3.15c-1.39-2.21-3.07-3.41-5.72-2.7a3.13,3.13,0,0,0-.34.83c-.36,1.44-.39,2.39-1.44,3.55-1.63,1.83-4.23,2.15-6.52,1.71-1.44-.28-3.2-1.86-4.6-.93-.93.62-1.15,1.92-2.17,2.48-1.45.79-3.52-.38-4.75-1.33a2.69,2.69,0,0,1-.71-.43c-.17-.14-.09-.51.16-.36,1.49.83,4,.71,4.68-1.15a18.3,18.3,0,0,1,.41-2.22,5.36,5.36,0,0,1-2.82.29,6.56,6.56,0,0,1-2.78-1.74c-1.53-1.3-3.47-2.24-5.49-1.68a10.37,10.37,0,0,0-2,1.08,14.89,14.89,0,0,1-2.58,1.06c-2.41.76-4.87.81-6.92-.77-1-.8-1.9-1.81-2.94-2.6a5.37,5.37,0,0,0-2.19-1,4,4,0,0,0-1.81.12c-.63.18-1.5,1-1.16,1.8a3.65,3.65,0,0,0,.27.3.28.28,0,0,1,.07.13c.24.23,0,.63-.28.39a1.75,1.75,0,0,1-.73-1.06,1.77,1.77,0,0,1-.43-1.67A4.15,4.15,0,0,1,59,243.7a8.5,8.5,0,0,1,4.63.27c1.88.49,3.52,2,5.46,2.15,3.88.25,5.55-3.8,9.07-4.39a6,6,0,0,1,3.85.67.18.18,0,0,1,.1-.24A58.75,58.75,0,0,0,88,239.53a14.81,14.81,0,0,0,5.14-4.72,52.48,52.48,0,0,0,6.11-11.57,65.38,65.38,0,0,0,3.08-13.05,90.8,90.8,0,0,0,1.13-14.91c-.1-14.87-3.12-31.45-13.5-42.74a34.52,34.52,0,0,0-4.49-4.06.19.19,0,0,1-.06-.07.35.35,0,0,1-.23-.15l-1.12-.46a92.89,92.89,0,0,1-9.49-4.56,154.55,154.55,0,0,1-17.38-10.87c-.7-.51-1.39-1-2.07-1.55.1.22.2.45.29.69.39,1,1.41,2.75,2.58,2.91.19,0,.3.41.05.42a8.12,8.12,0,0,1-6-3,7.18,7.18,0,0,1,.38,2.2c.06,2.19.21,4.57-.63,6.64-.09.22-.41.1-.43-.11-.48-4.08-2.41-7.87-6.06-9.9a6.21,6.21,0,0,1-.67,2.63,18.82,18.82,0,0,1-3.59,5.1c-.12.11-.31,0-.36-.14a6.52,6.52,0,0,1-.39-2.19c-.14-1.13-.6-2.13-.83-3.22a27.9,27.9,0,0,1-.75-4.35,25.72,25.72,0,0,0-1.68,3.26c-.49,1.27-.77,2.62-1.28,3.87-.05.12-.16.13-.27.09-1.5-.56-2.71-3.34-3.28-4.68a14,14,0,0,1-1-4,9.79,9.79,0,0,1,.13-2.55,11.83,11.83,0,0,1-2.2,2.84c-1.14,1.11-2.58,1.87-3.67,3-.11.12-.29-.06-.32-.16-.34-1.65-1.08-4.25-.81-6.32a14.38,14.38,0,0,1-2.53,1.3,10.67,10.67,0,0,0-3.17,2.5c-.11.11-.3,0-.31-.16a11.65,11.65,0,0,1,.08-4,4.28,4.28,0,0,0-2.24,2.72c-.07.18-.3.11-.36,0-1.14-2.69-2.21-5.06-2.12-8a10.91,10.91,0,0,1,1-3.83,14.19,14.19,0,0,0-6.54-.55c-1.38.13-3.66.57-4.28,2-.12.25-.46-.05-.45-.23a7.8,7.8,0,0,1,2.32-4.94,5.32,5.32,0,0,1-1.64-.77c-1.62-1-2.52-2.43-3.84-3.72a1.66,1.66,0,0,1-.18-.19C-.1,105.73.1,105.44.32,105.64Zm80.1,3.65A7.28,7.28,0,0,1,78,105.18a5.24,5.24,0,0,1,0,.57,13.54,13.54,0,0,1-.51,2.61,27.75,27.75,0,0,1-1,2.64,2.67,2.67,0,0,1-.5,1.06c.76,1.52,1.64,3,2.5,4.45,1.23,2.11,2.32,4.67,4,6.52.41-1.07.87-2.13,1.23-3.23a30.54,30.54,0,0,0,.91-4.53c-1.6-.79-2.57-3.81-3-5.16a20.2,20.2,0,0,1-1-6.87c0,.23-.1.47-.13.71a14.31,14.31,0,0,0,.37,5.13C80.87,109.34,80.61,109.44,80.42,109.29Zm33.51,14.28a37.11,37.11,0,0,1,1.7-4.43c.16-.37.32-.74.46-1.11a.22.22,0,0,1-.23-.18c-.38-2-1.09-4-1.27-6a11.14,11.14,0,0,0-.28,3.8.18.18,0,0,1-.3.16,8.75,8.75,0,0,1-3-5.9,8.42,8.42,0,0,1-1.1,2.57l0,.23C110.44,116.6,112.4,120,113.93,123.57Zm21.68,8.24c-.35-1.16-.89-2.23-1.34-3.36a10.82,10.82,0,0,1-.44-1.87c-.23,2.31-.66,4.6-.93,6.91,0,.27-.32.19-.42,0A14.18,14.18,0,0,1,130.8,128a9.77,9.77,0,0,1,0-2,45.62,45.62,0,0,1-2.88,4.27,9.3,9.3,0,0,1-2.87,2.4c-.16.06-.34-.15-.29-.3a16.17,16.17,0,0,0,.09-9s-.07,0-.09.06h0c-1,2.44-2,4.79-2.12,7.47,0,.24-.29.12-.34,0-.43-1.5-1.15-2.89-1.46-4.43a9.82,9.82,0,0,1-.11-2.55,3.47,3.47,0,0,1-.35.43,27.72,27.72,0,0,1-2.08,2.42c-.15.13-.34-.09-.34-.23a11.42,11.42,0,0,0-.09-2.68c-.18-.68-.33-1.37-.48-2-.43,2.26-.76,4.54-1.11,6.77a160,160,0,0,0-1.82,16.19c-.13,2.55-.08,5.1-.1,7.66a17.25,17.25,0,0,0,.76,6.39,40.48,40.48,0,0,0,10.07-10.11,118.8,118.8,0,0,0,10.24-16.41l.23-.48Zm-28.67,24.51a11.26,11.26,0,0,1,.53,1c0-2,.23-3.9.38-5.82.23-3,.46-6.08.86-9.1.35-2.73.8-5.48,1.4-8.16.31-1.38.66-2.77,1.07-4.13a12.19,12.19,0,0,0,.93-3.49c-.5-1.08-1.08-2.14-1.47-3.24a34.14,34.14,0,0,1-2.33-11.62.31.31,0,0,1-.13-.08c-.61-.68-1.29-1.3-1.87-2a19.34,19.34,0,0,1-1.6-2.66,18,18,0,0,1-1.85-4.57,18.21,18.21,0,0,0-.27,6.59,16,16,0,0,0,1.09,3.79,30,30,0,0,0,1.71,2.83.19.19,0,0,1-.19.29c-3.49-.55-6.1-3.38-7.59-6.55,0,.18,0,.35,0,.47a9.66,9.66,0,0,1-1.28,3.76c-.81,1.39-2,2.24-3,3.47A5.57,5.57,0,0,1,91,119.08a.24.24,0,0,1-.28-.29,12.81,12.81,0,0,0,.52-7.66,11.16,11.16,0,0,0-2.18,2.11c-.61.74-1.45,1.71-1.36,2.73,0,.13-.08.17-.17.14a35.25,35.25,0,0,1-2,9,13.7,13.7,0,0,1,2,2.8c1.09,1.79,2.16,3.54,3.4,5.23,2.37,3.22,4.85,6.33,7.13,9.62,1.12,1.61,2.41,3.1,3.68,4.59a25.79,25.79,0,0,1,2.86,4.62C105.42,153.45,106.15,154.89,106.94,156.32ZM84.09,137c-1-2.32-2-4.61-3-6.9-2-4.44-4.29-8.73-6.39-13.11-.1-.21-.19-.43-.29-.64,0,.37,0,.75-.06,1a23,23,0,0,0,.62,5.6c0,.18-.15.25-.28.15a9.78,9.78,0,0,1-3.8-7.27,7.44,7.44,0,0,0-.9,2.84,12.34,12.34,0,0,0,.81,6.3c.06.16,0,.34-.22.25a13.11,13.11,0,0,1-6.5-7.26c-.06,3.13-.78,6.31-3.12,8.57-.13.13-.32-.08-.32-.21a12.29,12.29,0,0,0-1-6.41,13.41,13.41,0,0,0-2.17-3.5c-.47,1.74.08,3.65.33,5.35a.17.17,0,0,1-.25.2,5.78,5.78,0,0,1-2.9-3.24c.08.44.14.88.18,1.3a10.67,10.67,0,0,1-.89,5.63c-.11.2-.4,0-.42-.17A4.2,4.2,0,0,0,51.89,123c0,.29.08.59.13.88a8.16,8.16,0,0,1,.33,1.17c1,.82,2.11,1.62,3.19,2.42,4.59,3.42,9.43,6.48,14.32,9.47,4.62,2.84,10.38,5.54,15.94,4.85A34.22,34.22,0,0,0,84.09,137Z"/></g></g></g></svg>