<svg xmlns="http://www.w3.org/2000/svg" viewBox="0 0 184.33 259.19"><title>tree2</title><g id="Layer_2" data-name="Layer 2"><g id="assets_copy" data-name="assets copy"><g id="tree"><path id="tree2" d="M182.73,58a4.82,4.82,0,0,0-6.28.43,2.7,2.7,0,0,0-2.61-2.11h0a2,2,0,0,0-.13-.39c1.18-.74,2.16-1.89,1.85-3.37-.4-1.91-2.08-2.83-3.84-3.3v0a2,2,0,0,0,0-.26,4.15,4.15,0,0,0,2.46-2.55,4.32,4.32,0,0,0-.57-4.33c-1.5-2.16-5.83-3.31-7.07-.38-.9-3.07-5.84-2.21-7.12.31a2.93,2.93,0,0,0-1.59-1.78,5.2,5.2,0,0,0-4.07.12c.69-1,1-2.61-.16-3.38a3.55,3.55,0,0,0-1.95-.46,2,2,0,0,0-2.75-1.36c-.74-1.53-2.9-2-4.65-1.24-2.08.85-3.75,3.09-3.17,5.34a3,3,0,0,0-1.73.58,4.13,4.13,0,0,0-1.81,3.38,5.66,5.66,0,0,0-2.82.14,3.84,3.84,0,0,0-1.33.72,3.2,3.2,0,0,0-1-2.24,2.55,2.55,0,0,0-2.86-.61,5.6,5.6,0,0,0,.46-1.81c.16-1.67-.4-3.66-2.19-3.87a3,3,0,0,0,2-3.08,3.14,3.14,0,0,0-3.16-2.81,3.28,3.28,0,0,0,.43-4.66,5,5,0,0,0-5.25-.91,3.11,3.11,0,0,0-.06-3.59,2.75,2.75,0,0,0-2.63-1.22,4.46,4.46,0,0,0,.93-5.5c-1-1.71-4.27-2.35-5.1-.28a2.26,2.26,0,0,0-2.33.14,2.16,2.16,0,0,0-.17-1,2.83,2.83,0,0,0-1-1,1.52,1.52,0,0,0-1.63,0,2.41,2.41,0,0,0-2-3.41,3.48,3.48,0,0,0-2.74.87c.14-1-.73-1.79-1.7-2.22-1.51-.68-3,.13-4.2,1a2.72,2.72,0,0,0-.13-.49h0c1.53-1.43,1.75-4.13-.51-5a3.27,3.27,0,0,0-3.3.75c.29-2.54-2-3.82-4.41-2.63a4.67,4.67,0,0,0-2.6,5.34,3.72,3.72,0,0,0-3-.16A3.9,3.9,0,0,0,83.17,7c-1.35-1.16-3-.78-4.39.1a5,5,0,0,0-1.84,2.24,4,4,0,0,0-2.5-1.62,2.4,2.4,0,0,0-1.9.7c.1-1.76-1.92-3.47-3.63-3.57a4.31,4.31,0,0,0-4.57,3.43C63.58,6.12,60,6.71,58.6,8s-1.78,4.3,0,5.31a1.38,1.38,0,0,0-.25.48,1.85,1.85,0,0,0,0,.81,2,2,0,0,0,.06.23c-3.46-.47-7.06,3.83-4.69,6.87-1.07-.87-3.22.06-4,.9A7.08,7.08,0,0,0,48.06,26a5.4,5.4,0,0,0,.61,3.2c-1.42-.33-3.26,0-3.79,1.56a4.47,4.47,0,0,0-.34,3,1.86,1.86,0,0,0,.34.58,5.36,5.36,0,0,0-4.2,1.48,6.63,6.63,0,0,0-2.26,4.32,4.51,4.51,0,0,0,1.51,4.07c.81.61,2,1.41,3.1,1.15a.37.37,0,0,0,0,.11A2.43,2.43,0,0,0,44.29,47c-1.3,1.58-2.67,4.06-1,5.77a3,3,0,0,0,1.76.87,2.93,2.93,0,0,0-.64.49.16.16,0,0,0-.08,0,3.75,3.75,0,0,0-4.91,1.47c-.33-1.38-1.46-2.56-3-1.95a4.46,4.46,0,0,0-1.64,1.5l-.1.18a3.8,3.8,0,0,0-4.88-3.46c-2.6.65-4.21,3-2.66,5.38a8,8,0,0,0-1.66.34c-1.3.48-2.57,1.59-2.22,3a4.07,4.07,0,0,0-2.71,1.62,6.69,6.69,0,0,0-1.3,3.08c-1.05-2.15-3.58-2.32-5.58-.93a5.31,5.31,0,0,0-2.1,3.89A3.33,3.33,0,0,0,12.92,71a3.58,3.58,0,0,0-1.22,2.13,3,3,0,0,0,1.41,3.07,1.93,1.93,0,0,0-.81.75,3.56,3.56,0,0,0-.55,2.83,3.1,3.1,0,0,0,2.67,2.4,3.69,3.69,0,0,0-1.51,2.19,2.34,2.34,0,0,0,.8,2.42c-2.35.23-3.67,3.81-2.53,5.86,1.62,2.91,6.49,2.76,8.27.08a3.76,3.76,0,0,0,1.37,2.65,3.82,3.82,0,0,0-1.49,4.15c.51,1.73,2.38,2,3.88,1.48a4.57,4.57,0,0,0-1,1.63,4.14,4.14,0,0,0,3.21,5.76c.9.18,1.53-.48,2.06-1.1,0,0,0,0,0,0a4.18,4.18,0,0,0,1.27.07,3.37,3.37,0,0,0,1.87-.83c1.58,1.27,3.44,0,4.34-1.52a4.07,4.07,0,0,0,.76-2.87,7.35,7.35,0,0,0-1.6-2.62,3.57,3.57,0,0,0,1.41-.92,4.06,4.06,0,0,0,.69-1.11.92.92,0,0,0,.15.24s0,0,.06,0l0,0c.12.22.25.43.38.64s.43.6.66.89a12.84,12.84,0,0,0,1.31,1.35,22.54,22.54,0,0,0,3.69,2.57A89.61,89.61,0,0,1,50.64,108c3.12,2.29,5.55,5.66,8,8.58A60.9,60.9,0,0,1,66,126.13a20.59,20.59,0,0,1,2.58,12c-.18,2-.61,3.93-.63,6s.26,4.25.11,6.37c-.29,4.23-2.14,7.71-4,11.4a16.21,16.21,0,0,0-1.43,9.6c-1.15-1.39-2.51-2.64-3.75-3.92a17.08,17.08,0,0,1-3.52-4.71c-.74-1.66-1.35-3.43-1.92-5.15a36,36,0,0,0-5.5-9.74c-1.16-1.56-2.39-3.08-3.54-4.64-.55-.73-1.05-1.5-1.6-2.23s-.76-1.51-1.28-2.2a1.75,1.75,0,0,0,.14-1.1,2.78,2.78,0,0,0,2.55-1.31,3.55,3.55,0,0,0,2.22,1.9,1.92,1.92,0,0,0,2.22-1.72,2.23,2.23,0,0,0,2-.2,3.55,3.55,0,0,0,1.47-2.47,2.57,2.57,0,0,0-.1-.76c.94.44,2.71-.29,3.29-.84a3.52,3.52,0,0,0,.2-4.52,4.35,4.35,0,0,0,2.25-3,3.77,3.77,0,0,0-.5-2.94,3,3,0,0,0-.74-.81c.68-1.49-.64-2.94-1.81-3.73-1.52-1-3.06-.36-4.14.86a3.6,3.6,0,0,0-1.35-2,5.86,5.86,0,0,0-1.63-.88,1.27,1.27,0,0,0-.84,0c2.6-2.53-1.63-7.45-4.7-5.45.1-2.09-1.41-4.5-3.76-4.07A3.83,3.83,0,0,0,35,110.47a3.3,3.3,0,0,0-3.35,1.74c-.4-.43-.61-1-1.12-1.29a4,4,0,0,0-2-.65A5.15,5.15,0,0,0,25,111.6a2.88,2.88,0,0,0-2.58-2.24,2.68,2.68,0,0,0-1.92.37,2,2,0,0,0-.53.67,2.93,2.93,0,0,0-.08.45,1.21,1.21,0,0,0-1.42-.67,3.42,3.42,0,0,0-2.06,1.55,2,2,0,0,0-.2,1,2.29,2.29,0,0,0-2.15,2.55,1.45,1.45,0,0,0-.72-.49c-.8-.24-1.81.48-2.4.92a3.4,3.4,0,0,0-1.24,4.17,2.63,2.63,0,0,0-2.17,1,2.43,2.43,0,0,0-.37,2.59,1.84,1.84,0,0,0-.43.17A1.3,1.3,0,0,0,6,124.68,2.51,2.51,0,0,0,7.11,127a3.87,3.87,0,0,0-1.5.88c-1.09,1-.54,2.82-.08,4l-.14,0a5.73,5.73,0,0,0-4.29,2.42,6,6,0,0,0-.54,5.9c.49.92,1.7,2.45,2.94,2.48a4.41,4.41,0,0,0-.22,2.35c.1.62.75,1.84,1.47,2a4.18,4.18,0,0,0-1.95,3c-.34,2.17,2.85,6.09,5.15,4.58,1.11,3,6.79,3.91,8,.33a2.39,2.39,0,0,0,3-.18,2.89,2.89,0,0,0,1.75,1.33,2.66,2.66,0,0,0,2.26-.74,1.79,1.79,0,0,0,.6-1.68,2.59,2.59,0,0,0,3.14-1.55c.25-.61.52-2.11,0-2.72a3.26,3.26,0,0,0,1.93-1.3c1-1.46.18-4.24-1.26-5.16a1.93,1.93,0,0,0,.38-.19,2.32,2.32,0,0,0,1.15-2c3.06,4.67,5.94,9.73,10.24,13.4,2.23,1.91,4.57,3.6,6.65,5.69a58.86,58.86,0,0,1,5.3,6.28c3.28,4.39,6.1,9.11,9.07,13.71a46.41,46.41,0,0,0,3.42,4.25h0c.14.17.28.34.41.52a2.8,2.8,0,0,0,.11.31,11.05,11.05,0,0,1,.48,1.58c.23.95.36,1.92.52,2.88.39,2.39.94,4.74,1.19,7.16a50.45,50.45,0,0,0,1.09,6.09c.49,2.12,1.33,4.15,1.89,6.26a39.46,39.46,0,0,0,5.26,11.93c1.3,1.88,2.6,3.77,3.73,5.76A20.75,20.75,0,0,1,79.82,230c.33,1,.47,2,.73,3a9,9,0,0,0-3.9,1.18,10.3,10.3,0,0,0-4.8,5.88,38.57,38.57,0,0,1-1.49,4.44A8.13,8.13,0,0,1,66.25,248a13,13,0,0,1-2.7,1,19.54,19.54,0,0,0-2.4.46c-1,.36-2.66,1-3.59,0a2.52,2.52,0,0,0-1.16-.83c-1.84-.56-4.48.91-5.7,2.2a8.32,8.32,0,0,1-1.79,1.61c-1,.58-2.4.16-3.5.12s-1.7.65-2.74.07a3.7,3.7,0,0,0-1.36-.45c-1.64-.2-4.62.77-5.1,2.61-.27,1.05,1.44,2.4,1.67,1.14,0-.13-.08-.18-.18-.16.38-2.21,2.53-1.07,3.71-.4a4.73,4.73,0,0,0,2.29.64c1.18.07,2.35.45,3.52.63a14.57,14.57,0,0,0,3.3,0,5.49,5.49,0,0,0,2.34-.7c.94-.53,1.43-1.55,2.39-2.09a6,6,0,0,1,2.13-.21c.84,0,1.32.57,1.85,1.11a2.66,2.66,0,0,0,1.5.8,24.79,24.79,0,0,0,7-.35c.75-.12,1.48-.34,2.24-.39a7.31,7.31,0,0,1,2,.35,5.34,5.34,0,0,0,2.18.08A6.53,6.53,0,0,0,77.88,253a2.22,2.22,0,0,0,.52-1.57c-.05-1.09,0-1.78,1.3-2.22a7.28,7.28,0,0,1,1.63-.13,1.34,1.34,0,0,0,.11.14c.43.53,1.36.45,1.94.57a7.72,7.72,0,0,1,3,1.05c1.12.75.79,1.95,1.32,3S89.92,255,91,255c.88,0,1.78-.1,2.66-.22a8,8,0,0,1,2.71,0c.66.14,1.26.45,1.94.53a12.24,12.24,0,0,0,3.47-.09c1.62-.24,2.82.71,4.13,1.51a5.93,5.93,0,0,0,5.85.32,11.38,11.38,0,0,1,3.74-1.11,3.33,3.33,0,0,1,2.1.6c.7.46.82,1.26,1.13,2,.52,1.19,2,.74,3,.32,0,.05,0,.09.08.09.83,0,2.68.44,3-.79,0-.2,0-.46-.21-.53-1-.26-2.27.38-3-.4-1-1-1-2.26-2.69-2.49-1.27-.17-2.13-.23-2.16-1.8a1.83,1.83,0,0,0-1.06-1.58,3.84,3.84,0,0,0-2.08-.2c.32-1.17,1.9-1.6,2.84-2a13.1,13.1,0,0,0,2.7-1.77c1-.76,3.8,0,4.57.84s.68,2,1.2,2.93c.73,1.28,2.83,1.4,4.1,1.41,2.41,0,4.58-1.12,6.95-.37a5.16,5.16,0,0,0,4.78-.58,5.24,5.24,0,0,0,1.3-1.82,5.44,5.44,0,0,1,1.1-1.6c.77-.72,1.94-.49,2.87-.36,1.1.17,2.91-.21,3.75.65a2.06,2.06,0,0,1,.44,2,1.6,1.6,0,0,0-.26.9c.35,1.3,2.69,1,3.94.8,0,.16.27.23.43.07a1.21,1.21,0,0,0,.48-1,.19.19,0,0,0-.25-.17c-1.28.29-1.89-.92-1.53-1.94a1.34,1.34,0,0,0,0-1.23c-.16-.36-.66-.57-1-.72a15.36,15.36,0,0,1-1.67-1.08c-1.7-1.17-3.66-2.24-5.76-1.39-1.18.49-2.17,1.29-3.35,1.77a9.21,9.21,0,0,1-4.78.63,2.72,2.72,0,0,0-2.29.72c-.66.56-.94,1.19-2,1.2a5.58,5.58,0,0,1-2.2-.64.29.29,0,0,0,.05-.22,20.08,20.08,0,0,1-.54-2.06,1.51,1.51,0,0,0-.17-.7c-.42-.71-1.59-.84-2.26-1.25-1.14-.71-1.72-2.16-2.64-3.11a7.78,7.78,0,0,0-3.41-2.31c-2.49-.68-4.56,1.26-6.63,2.23-1.87.88-3.25-.88-4.78-1.64a5.73,5.73,0,0,0-3.08-.49c-.27-1.25-.62-2.5-1-3.71a48.65,48.65,0,0,0-3.32-7.63,77.56,77.56,0,0,0-4.43-7.08c-1.66-2.48-2.79-5.28-4.33-7.85a53,53,0,0,1-3.55-8.14A60.92,60.92,0,0,1,87,196.26c-.65-2.84-1.21-5.7-1.81-8.54a22.67,22.67,0,0,1-.53-5.39,14.14,14.14,0,0,0,2.29-2.6,40.3,40.3,0,0,0,2-4.12c1.48-3.1,2.73-6.23,5.38-8.55,2.21-1.94,4.5-3.83,6.62-5.87,2.34-2.27,4.48-4.74,6.82-7a20.66,20.66,0,0,1,4-3.13,25.54,25.54,0,0,1,4-1.54,22.29,22.29,0,0,0,7.35-4.6c2.17-1.93,4.66-3.43,6.88-5.29,1.1-.91,2.12-1.93,3.25-2.82a34.45,34.45,0,0,1,4.44-2.48.23.23,0,0,0,.3.14l.06,0a2.58,2.58,0,0,0,.74.92,3,3,0,0,0-.46,1.76,2.51,2.51,0,0,0,.95,1.83,3.21,3.21,0,0,0,2.34.14,1.41,1.41,0,0,0,.56,1,2.46,2.46,0,0,0,2.87-.42,3,3,0,0,0-.15.82,4.9,4.9,0,0,0,1.36,2.9c.62.64,1.77.51,2.56.45a3.19,3.19,0,0,0,1.47-.52c.47,1.66,3.38,1.1,4.49.38a4.71,4.71,0,0,0,2.13-2.19,3.6,3.6,0,0,0,.09-2.25,2,2,0,0,0,.9.38c1.48.22,2.54-.7,3.38-1.83a9,9,0,0,0,1.63-4,5,5,0,0,0-.19-2.5l-.14-.29a1.13,1.13,0,0,0,.32.05,4.72,4.72,0,0,0,5.49-.31c1-.72,3-2.63,2.06-3.9a4.87,4.87,0,0,0,2.59-.47,3.74,3.74,0,0,0,1.76-2,3.57,3.57,0,0,0,.2-1.65,4.42,4.42,0,0,0-.51-1.2,3.31,3.31,0,0,0,1.57-1.19c1.22-1.91.46-3.78-.83-5.44a2.57,2.57,0,0,0,1-.42,2.79,2.79,0,0,0,1-3.2,3.79,3.79,0,0,0-2.93-2.49,1.82,1.82,0,0,0-.87.09,2.32,2.32,0,0,0-.75-1.4,3.4,3.4,0,0,0-3-.78,5.08,5.08,0,0,0-4.41,4.64,3.24,3.24,0,0,0-2.9-1.42c.51-1.16,1.36-2.62.1-3.65-1-.82-2.44-.66-3.68-.62a5.7,5.7,0,0,0,.81-2.17,4.46,4.46,0,0,0-.07-1.46c-.15-.74-.73-1-1.21-1.55a3.33,3.33,0,0,0,.57-1.22,4.6,4.6,0,0,0,5,.93,3.46,3.46,0,0,0,2.07-3.33c2,1,4.3-.68,5.53-2.3a4.51,4.51,0,0,0,.8-3.4,3.79,3.79,0,0,0-.55-1.42,2.35,2.35,0,0,0-1.26-1,3.92,3.92,0,0,0,2.93-1.79c.81-1.41.14-2.42-.55-3.66a.85.85,0,0,0,.19-.1,2.51,2.51,0,0,0,.66-.41c.05,0,.08-.1.13-.15a.61.61,0,0,0,.05.18.12.12,0,0,0,0,0c.28,2.35,4.45,2.43,6,1.35a4.55,4.55,0,0,0,2-3.54,3,3,0,0,0-1.44-2.47,3.31,3.31,0,0,0,.38-.86,2.46,2.46,0,0,0-.53-1.78,2.09,2.09,0,0,0-1.51-.85,2.44,2.44,0,0,0,1.57-2c.27-1.34-.36-1.93-1.4-2.38h0a1.7,1.7,0,0,0,.61.21,2.88,2.88,0,0,0,2.32-5,3,3,0,0,0,0-1.11.18.18,0,0,0,.14,0c1.22-.14,1.9-1.63,2.18-2.67A3.75,3.75,0,0,0,182.73,58ZM140.65,95.68c-.49-.93-.91-2.38-2-2.84a6.44,6.44,0,0,0-3.59,0c-2.48.42-3.36,2.09-4.6,4.06h0a.25.25,0,0,0-.26.19c-2.64-1.17-5.53,1.47-5.71,4.12a4.69,4.69,0,0,0-2.38.92,4.42,4.42,0,0,0-1.55,2l-.12,0a2.44,2.44,0,0,0-2-1.59,3.77,3.77,0,0,0-3.3,1,4.44,4.44,0,0,0-1.59,3.15,2.33,2.33,0,0,0,.25,1.14c-1.31-.29-2.55,1-3.22,2a4.62,4.62,0,0,0-.56,2.7c0,.7.6,1.18,1,1.72a3.08,3.08,0,0,0-2.76,2.62c-.1,1.17.25,2.75,1.35,3.27a2.38,2.38,0,0,0-1.82,2.61,2.47,2.47,0,0,0,2.64,1.81l0,0a2.27,2.27,0,0,0-.6.87,2.8,2.8,0,0,0,.28,2.31,2.63,2.63,0,0,0,3.8.84c0,.73,1.35,1,2,.89a2.29,2.29,0,0,0,1.76-2.77h.15a2.56,2.56,0,0,0,1.91-1.24,2.08,2.08,0,0,0,1,.85l.12,0a19,19,0,0,0-4.14,5.14,59.66,59.66,0,0,0-2.61,6.9c-.82,2.4-1.27,5-2.43,7.26s-4,4-6,5.47a50.59,50.59,0,0,1-7.06,5c-2,1-4.29,1.82-5.92,3.38-.84.79-1.58,1.67-2.39,2.49a16.37,16.37,0,0,1-3.88,2.52,8,8,0,0,0-2.88,2.26,21.91,21.91,0,0,1,.92-2.16,11.57,11.57,0,0,0,.72-5.65,22.21,22.21,0,0,1-.31-3.26,16.94,16.94,0,0,1,.8-4,31.62,31.62,0,0,1,1.29-3.21,15.35,15.35,0,0,1,1-2.32,18.3,18.3,0,0,0,2.83-2.45c2-2.1,3.28-5.24,4.51-7.84.59-1.24,1.48-2.32,2.16-3.51a30.25,30.25,0,0,0,1.9-3.93,17.87,17.87,0,0,0,.89-3.19c1.12-2.31,2.44-4.51,3.55-6.82a69.39,69.39,0,0,0,2.7-7,27.39,27.39,0,0,1,4.28-7.28,64.09,64.09,0,0,1,4.55-6C119,94.3,124,92,129.06,90.47a63.65,63.65,0,0,0,6.87-2c2.53-1.08,4.8-2.76,7.27-4l.09.12c-1.35,1.08-2.95,3.66-1.9,5.36a2.92,2.92,0,0,0,3.72.95,13.32,13.32,0,0,0,0,1.42,2.26,2.26,0,0,0,.27,1.12,3.42,3.42,0,0,0-3.06,1.81,3.76,3.76,0,0,0-.3,1.36,5.09,5.09,0,0,0-1.34-.73A.19.19,0,0,0,140.65,95.68ZM79.48,109.86a25.4,25.4,0,0,1-1.54,6.19c-.6,1.68-1.31,3.32-1.86,5a45,45,0,0,0-1,5.86c-.37,2-1.1,3.9-1.53,5.87-.15-.38-.34-.74-.5-1.12a16.92,16.92,0,0,1-.85-3.27,9.41,9.41,0,0,0-1.74-3.53c-1-2.27-1.23-4.82-1.94-7.18a28.8,28.8,0,0,1-1.21-4.84,21.55,21.55,0,0,1,.1-4.54,64.2,64.2,0,0,0,.42-9.2c-.13-2.93-.83-5.8-.91-8.75a4.18,4.18,0,0,0,1.3-1.28c.31.61,1.25.63,1.94.63A4.52,4.52,0,0,0,74,87.9c1.13-1.52,1.86-5.3-.45-6.12a1.43,1.43,0,0,0,.25-.33,2.61,2.61,0,0,0-.7-3.21A3.51,3.51,0,0,0,75,75.41a35.28,35.28,0,0,1,3.4,7.35c.62,1.76,1.17,3.53,1.64,5.33a41.17,41.17,0,0,1,.69,5.28c-.29,1.94-.3,3.92-.57,5.87-.23,1.74-.62,3.47-.73,5.22S79.65,108,79.48,109.86ZM40.09,92.49a2.67,2.67,0,0,0,.45.12A10.63,10.63,0,0,0,43,97.3c.71.87,1.4,1.82,2.06,2.74a6.16,6.16,0,0,1,1.39,2.74l-1.13-.41a35.73,35.73,0,0,1-3.82-1.77,12.29,12.29,0,0,1-5-4.83,3.54,3.54,0,0,0,.58,0,3.74,3.74,0,0,0,1.68-.6A3,3,0,0,0,40.09,92.49Zm6.22,6.87a63.86,63.86,0,0,1-4.57-6.86,4.31,4.31,0,0,0,1.78-1.24c1.06-1.26,1.46-4.12,0-5.21a2.84,2.84,0,0,0,.62-.27,3.64,3.64,0,0,0,1.09-1.06c.48,2.61,2.23,5,3.62,7.23.72,1.14,1.45,2.25,2.23,3.34a18.92,18.92,0,0,0,2.71,2.58c2.45,2.22,3.25,5.35,4.28,8.4a36.14,36.14,0,0,1,.72,4c.07.31.12.63.21,1-.37-.38-.74-.73-1.11-1.07-2-1.88-4.6-3.13-6.43-5.23C49.78,103,47.9,101.34,46.31,99.36ZM65.43,49a2.35,2.35,0,0,0,.34-1.63,1.69,1.69,0,0,0-.28-.59l.15,0a1.54,1.54,0,0,0,1.24-.3,11.06,11.06,0,0,1,.31,1.52,15.54,15.54,0,0,0,1,2.37,26.84,26.84,0,0,1,1.27,4.75c-.56-.61-1.54-1.09-2.12-.53-.39-1.16-1.71-2.42-2.83-1.78a3.81,3.81,0,0,0-1.06-2.39l-.06-.07a10.54,10.54,0,0,0,1.06-.19C64.86,50,65.19,49.4,65.43,49Zm7.9-8.31a3.37,3.37,0,0,0,3.1-.35,2.41,2.41,0,0,0,0,.6.14.14,0,0,0,0,.08c-.17,2.75-.68,5.46-.74,8.24A82.27,82.27,0,0,0,76.29,58c.1,1.17.24,2.32.45,3.48A26.84,26.84,0,0,1,77,66.39c0,2-.21,4.24.64,6.1-.6-.56-1.24-1-1.83-1.62.77-.47.39-2.35.17-3-.12-.33-1.1-1.42-1.34-1a4.69,4.69,0,0,0,.49-2.14,4,4,0,0,0-.4-2.1A1.73,1.73,0,0,0,74.1,62c-.49-.32-.52,0-.34-.76a4.39,4.39,0,0,0-.51-3.19c-.59-1-1-1.34-2.17-1.07-.23-1.09-.5-2.18-.8-3.28-.35-1.35-.7-2.69-1.17-4-.38-1-1.14-2.31-1.09-3.42a5.23,5.23,0,0,0,2.45.29C72.66,45.85,74.82,42.81,73.33,40.7Zm7.32,1.92a6,6,0,0,0-.43,2.76,3.53,3.53,0,0,0,3,3c3.11.24,4.7-2.41,4.61-5.08C89.59,49.22,89.4,55.78,89,61.81a60.44,60.44,0,0,1-1.6,10.54,23.33,23.33,0,0,1-2.12,5.17,13.62,13.62,0,0,0-1,3.09,12.64,12.64,0,0,0-.94-2.23c-.53-1.1-1.44-2-2-3-.15-.55-.28-1.11-.39-1.7-.29-1.57-1-3.1-1.37-4.66-.76-3.23-1-6.56-1.4-9.83-.42-3-.71-6.1-.85-9.14-.07-1.44,0-2.9,0-4.34a18,18,0,0,0,.11-3.19A3.41,3.41,0,0,0,80.65,42.62Zm10.57-3.54a4.84,4.84,0,0,0,1.34,2.66,2.54,2.54,0,0,0,1.65.54,5.37,5.37,0,0,0-1.37,5c.51,2.13,2.1,2.94,4,3.07a3.93,3.93,0,0,0-.73,3.89,2.6,2.6,0,0,0,2.67,1.31,4,4,0,0,0,.17.62,1.64,1.64,0,0,0,.29.56c-1.95-.05-1.76,2.8-1.46,4.1-1.94-1.37-4.3.93-5.28,2.44A3.8,3.8,0,0,0,92.42,67c.29.63.74,1.5,1.45,1.72a2.83,2.83,0,0,0-1.11,2.85,6,6,0,0,0-1.09,1.12,2.25,2.25,0,0,0-.44,1.6,2.58,2.58,0,0,0-1.8,2.32,2.28,2.28,0,0,0,.76,1.62c.5.54.91.35,1.45.63A2.68,2.68,0,0,0,90.24,81a1.71,1.71,0,0,0,1.35,1.7l-.08.1c-.89,1.05-2,1.87-3,2.83a14.08,14.08,0,0,0-2.16,2.82c0-1.11.19-2.21.3-3.33a41.24,41.24,0,0,1,1.58-6.83c1.18-4.18,1.9-8.43,2.86-12.66a27.15,27.15,0,0,0,.3-6.11,60,60,0,0,0-.14-6.43c-.25-2.27-.69-4.52-1-6.79a27.09,27.09,0,0,0-.46-2.67,9.69,9.69,0,0,1-.62-3A5.24,5.24,0,0,0,91.22,39.08Zm40.67,31.06a2.79,2.79,0,0,0,.87.94,15.26,15.26,0,0,1-1.57,2.54c-.73.82-1.38,1.65-2,2.54-1.44,1.93-3.5,3.31-5.28,4.9-3,2.64-6.29,5.06-8.73,8.21s-3.36,7.34-5.57,10.71c-1.22,1.88-2.79,3.47-4.18,5.22a10.44,10.44,0,0,1-2.21,2.56,1.31,1.31,0,0,0-.38.29,10.28,10.28,0,0,1,.12-2.94c.13-2,.39-4,.35-6.09-.08-3.76-.39-7.58-.21-11.34a1.81,1.81,0,0,0,1.11-.81,1.9,1.9,0,0,0,.37.22,2.54,2.54,0,0,0,2.46-.68,2.2,2.2,0,0,0,3,1.3c2-.74,4-2.81,3.76-5,.77.38,1.64-.25,2-1a3.32,3.32,0,0,0,2.53.19c1-.33,2.94-1.93,3.12-3.34A4,4,0,0,0,125,77a4.49,4.49,0,0,0,.9-1.83,2.29,2.29,0,0,0-.32-1.91c1.91.8,3.29.81,4.87-.73A5.5,5.5,0,0,0,131.89,70.14ZM137,75.48a22.11,22.11,0,0,0-.64,2.55,2.77,2.77,0,0,0,.74,2.06,2.44,2.44,0,0,0,3.08,0,2,2,0,0,0,.91,1.67,3.78,3.78,0,0,0,1.55.5,3.74,3.74,0,0,0-1.82,1.35c-1.12,1.27-2.78,1.34-4.33,1.65a46.94,46.94,0,0,0-8.36,2.88c-2.58,1.06-5.24,1.8-7.84,2.79a9,9,0,0,0-2.93,1.74,21.57,21.57,0,0,1-2.88,2.62,8.07,8.07,0,0,0,.62-1.25,12.64,12.64,0,0,1,2.16-3.75c1.84-2.21,4.36-3.68,6.5-5.55a69.44,69.44,0,0,0,10.3-11,2.32,2.32,0,0,0,.77,1.26,2.84,2.84,0,0,0,2.18.52ZM81.19,134.59c.58-3.6,2-7,3-10.46a79.55,79.55,0,0,0,2.12-10.84c.55-3.56-.35-7.07,0-10.6,0-.08-.06-.09-.13-.06.12-1.3.24-2.61.33-3.92a20.85,20.85,0,0,1,1.66-6.47A21.27,21.27,0,0,1,91.59,87,20.6,20.6,0,0,0,93,85.15a3.85,3.85,0,0,0,1.28,3,1.71,1.71,0,0,0,2.39.18l.07,0a1.56,1.56,0,0,0,.4.1,3.31,3.31,0,0,0,.77.77c.4.25,1.08,0,1.5,0a1.79,1.79,0,0,0,1.32-1,1.93,1.93,0,0,1,0,.24c0,1,.25,2,.39,3.07a37.07,37.07,0,0,1,0,7.88c-.21,2.76-.89,5.42-1.32,8.15a22.32,22.32,0,0,0-.15,2.58s0,0-.06.06a53.54,53.54,0,0,0-2.69,5.08c-.58,1.28-1.69,2.55-1.87,4-.28,2.18-1.73,3.9-3.1,5.53s-2.53,3-3.73,4.55a42.67,42.67,0,0,0-5.81,9.53c-.78,1.85-.88,3.78-2.09,5.42,0-1.41-.11-2.82-.13-4.24a15.69,15.69,0,0,1,.5-2.6C80.78,136.53,81,135.57,81.19,134.59ZM62.6,111.89c-.51-1.25-.86-2.53-1.42-3.76a18.6,18.6,0,0,1-1.27-4.63,81.59,81.59,0,0,0-2.36-9.1c-.44-1.4-.8-2.83-1.12-4.26-.16-.73-.24-1.46-.41-2.19-.06-.24-.11-.48-.17-.72a7.89,7.89,0,0,1-.12-.78,4.57,4.57,0,0,0,3-.71,3.18,3.18,0,0,0,.8,3.5,2.84,2.84,0,0,0,3.93.18,2.78,2.78,0,0,0,1.16,1.17,1.79,1.79,0,0,0,.84.2,62.3,62.3,0,0,0,.65,7A37.27,37.27,0,0,1,66.2,105a27.3,27.3,0,0,1-.57,3.94,10.3,10.3,0,0,0-.41,2.64c.06,2.09.71,4.08.93,6.12-.4-.62-.91-1.19-1.32-1.8A22.07,22.07,0,0,1,62.6,111.89ZM34,144.77a30.74,30.74,0,0,1-2.47-3.55A21.49,21.49,0,0,1,29.46,138a4.54,4.54,0,0,0,2.37-.1c.88-.26,2.21-.69,2.52-1.67h0a2.77,2.77,0,0,0,1.14.62,3.45,3.45,0,0,0,.74.13.16.16,0,0,0,0,.07,2.57,2.57,0,0,0,2.41,3.18,3.11,3.11,0,0,0,1.6-.28,24.64,24.64,0,0,0,3,4.08A27.76,27.76,0,0,1,46.25,149a26.58,26.58,0,0,1,2.35,6.14c.27,1.1.48,2.19.84,3.27.16.49.47,1,.69,1.47a14.18,14.18,0,0,0-2.93-2.71A40.43,40.43,0,0,1,40,151.44c-1-1.05-1.91-2.19-2.82-3.32S35.06,145.93,34,144.77ZM137.93,133.1h0a5,5,0,0,0-.66,0,.29.29,0,0,0-.25.18,6.78,6.78,0,0,0-4.23,1.85,69.11,69.11,0,0,1-5.45,4.34,71.44,71.44,0,0,1-6,4.18c-.89.49-1.84.85-2.74,1.31-1.1.56-2.67.18-3.89.21a2,2,0,0,0,.17-.32,14.28,14.28,0,0,0,.9-2.94c.32-1.87.48-3.76.9-5.63s1.82-3.45,2.89-5c.67-1,1.26-2,1.94-3a13.16,13.16,0,0,0,1.31-2,2.23,2.23,0,0,0,.91.2,2.75,2.75,0,0,0,0,3.94c1.4,1.56,3.46.46,4.66-.83-.16,1.16.28,1.87,1.44,2-1,.77-1.53,2.36-.37,3.19.66.48,2,.18,2.65-.08a8.15,8.15,0,0,0,3.06-2.26,2.91,2.91,0,0,0,2.93.2A2,2,0,0,0,137.93,133.1Z"/></g></g></g></svg>