<svg xmlns="http://www.w3.org/2000/svg" viewBox="0 0 232.37 259.19"><title>tree3</title><g id="Layer_2" data-name="Layer 2"><g id="assets_copy" data-name="assets copy"><g id="tree"><path id="tree3" d="M230.38,96.34c-1.62,1-2.38,2.41-3.41,3.71a34.67,34.67,0,0,1-4.54,4.43,40.2,40.2,0,0,1-5.36,4.22,18.77,18.77,0,0,1-6.4,2.33,30.53,30.53,0,0,0-8.12,2c-1.81.85-4.76,2.44-6.93,1.54a3.4,3.4,0,0,0,.57,1.54c.17.25-.51.58-.71.32-1.37-1.8-.7-3.5,1.11-5,2.55-2.07,4.63-4.28,6.95-6.47a44.78,44.78,0,0,1,7.64-5.24,24.92,24.92,0,0,0,7.73-6.64c1.91-2.65,3.9-5.37,5.56-8.11a18,18,0,0,0,1.18-2.26c.38-.89-.39-1.48-1.42-.67a13.16,13.16,0,0,0-2.92,3.06c-1.62,2.48-2.42,5.14-4.57,7.41-1.64,1.72-3.36,3.58-6,4.42a1.18,1.18,0,0,0,1.46.46c.46-.13.58.3.19.44-3.63,1.37-3.16-5.18-3.29-6.54a14.84,14.84,0,0,1,2.1-8.63,39.9,39.9,0,0,0,2.41-4.62,12.5,12.5,0,0,1,1.69-3.68c.91-1.22,4-2,3.77-3.54,0-.31-2.05.35-2.35.46a3.49,3.49,0,0,0-2.46,1.92c-1.19,3-3.19,5.48-4.87,8.3-2,3.45-2,7-2.32,10.72-.15,1.93,0,3.88-1.08,5.58.35-.33.71-.65,1.09-1s.76,0,.46.23c-2.17,1.93-4.06,4.11-6.41,5.92-.87.68-2,1.51-3.31,1.13s-1.23-1.91-1.2-2.68a10.47,10.47,0,0,1,.94-4.61c1.11-2.11,2.88-4,3.76-6.17a12.94,12.94,0,0,0,.94-5.87A3.2,3.2,0,0,0,202,83.5c-.94-.35-1.44-.26-1.5.28,0,.11-.06.21-.08.31a13.47,13.47,0,0,0-.08,2.46c-.05,2.19-1,3.68-2.57,5.5a12.18,12.18,0,0,0-3.06,7.27c-.13,2.09.33,4.32-.58,6.33-.83,1.86-2.79,3.43-3.82,5.26s-2,3.76-4.12,5c-2.37,1.37-4.79,2.69-7.18,4a33.71,33.71,0,0,0-7.41,5.19,28.3,28.3,0,0,1-2.95,2.71c-1.44,1.1-3.78,2.66-5.68,1.67a2.81,2.81,0,0,0,.76,1.71c.27.32-.48.74-.74.43-2.53-3,1.32-5.36,2-8.28.39-1.6.5-3.27,1.54-4.74a17.43,17.43,0,0,1,3.49-3.54c3.41-2.66,7.08-5.13,10.31-7.91,2.5-2.16,5.17-4.25,6.72-6.91.57-1,1.42-2.32,1.25-3.44-.24-1.58-2.09-.23-2.63.53s-.83,1.28-1.26,1.92a15.86,15.86,0,0,1-3.43,4,42.42,42.42,0,0,1-4,2.51,12,12,0,0,0-4.44,4.32,14.17,14.17,0,0,1-2.46,3.34c-1.23,1.09-3.64,2.54-4.76.61-.06-.1.11-.2.22-.2h.21c.25,0,.1.24-.08.25a7.6,7.6,0,0,1,1,.16c-.45-.8-.06-2,.11-2.79a12.17,12.17,0,0,1,2.51-4.48c1.87-2.49,1.3-5.5,1.69-8.22a6.89,6.89,0,0,1,.7-2.48,3.93,3.93,0,0,1,.7-1,2.66,2.66,0,0,1,.4-.34l-.59-1A.32.32,0,0,1,172,94a5.77,5.77,0,0,0-2.6,4.89,4.8,4.8,0,0,1-.72,3.47,21,21,0,0,0-2.45,4.75,31.57,31.57,0,0,0-.86,5c-.61,3.49-3.34,6.5-4.19,10a38.85,38.85,0,0,1-3,9.15,33.73,33.73,0,0,1-6.41,8.67c-1.63,1.54-3.19,3.12-4.64,4.76a24.57,24.57,0,0,1-2.25,2.68c-1.36,1.2-3.47,2.09-5.26.82-.37-.26-2-1.49-.79-1.73.28-.06.22.24,0,.29s1.23,1.11,1.19,1.09a3.36,3.36,0,0,0,1.73.48c-1.33-.93-.76-3.16-.45-4.29,1-3.63,3.14-7.19,2.08-11-.77-2.72-1.4-5.8-.45-8.54,1.06-3.06,4.68-5.25,4.83-8.51,0-.14.32-.23.34-.06a5,5,0,0,1-1,3.21,18.92,18.92,0,0,0,1.82-1.88c3.2-4,4.13-8.41,5.8-12.8a17.88,17.88,0,0,1,3.3-5.7c1.55-1.76,3.85-3,5.74-4.56,4.26-3.43,7.74-7.38,12.66-10.32A31.86,31.86,0,0,1,184,80.34c2.56-.73,5.24-1,7.89-1.51a22.64,22.64,0,0,0,9-3.45c2.14-1.48,4-3.15,6.11-4.69s4.35-3,6.45-4.54A9.16,9.16,0,0,0,216,63.87c.58-1-1.12-.14-1.29,0-.54.28-1.05.57-1.57.87a73.9,73.9,0,0,0-8.43,5.47c-2.1,1.63-4.12,3.34-6.27,4.94a12.4,12.4,0,0,1-6.32,2.47c-2.67.27-5.39-.42-8.07-.36H184a4,4,0,0,1-1.16.51c-2.24.56-3.78,1.18-4.46,3-.09.25-.72.31-.62,0a4.88,4.88,0,0,1,2.4-2.82c.72-.44,1.8-.38,2.57-.72a8.28,8.28,0,0,0,2.86-2A62,62,0,0,0,193,65.72,5.66,5.66,0,0,1,195.74,63c2-.87,3.86-2.19,6-2.88,5.67-1.8,7.84-5.38,11.06-9.06a39.78,39.78,0,0,0,3.41-4.59,8,8,0,0,1,3-3c1.07-.54.57-.7.36-1.48-.13-.52,0-.79-.93-.64a10.77,10.77,0,0,0-1.52.31c-2.34.73-3.06,2.39-3.95,4-1.64,3.06-2.89,6.23-6,8.64-1.41,1.1-3.22,1.54-4.88,2.36a15.79,15.79,0,0,1-3.4,1.6c.27.25.58.5.89.82.11.1,0,.34,0,.44,0,.28-.67.45-.68.12s-.95-.88-1.28-1.27a.1.1,0,0,1-.06-.09,3.59,3.59,0,0,1-.74-1.52A3.7,3.7,0,0,1,198,54.1a40.79,40.79,0,0,1,3-3.25,11.89,11.89,0,0,0,2.78-4.54c.12-.35.3-.9.07-1.24a1.35,1.35,0,0,0-1.35.64c-.47.63-.91,1.28-1.39,1.91a51.16,51.16,0,0,1-3.61,4.1c-2.83,3-3,6.73-5.4,9.84-2.19,2.83-5.08,5.33-7.61,8a47.81,47.81,0,0,1-7.66,7c-3.16,2.14-7.21,3.57-9.75,6.21a40.19,40.19,0,0,1-3.37,3.56,9.83,9.83,0,0,1-1.89,1.29,5.09,5.09,0,0,0-.66.32,1.67,1.67,0,0,0-.08.2.21.21,0,0,0,.1.12c.12.1-.09.25-.24.23-.08.18-.13.36-.22.53-.3.64-1.08.92-1.3,1.65-.09.31-.84.37-.73,0a3.87,3.87,0,0,1,1.09-1.47,3.31,3.31,0,0,0,.64-1,.13.13,0,0,1,0-.24l.06,0a12,12,0,0,0,.41-1.83,9.84,9.84,0,0,1,2-4.85A29,29,0,0,1,167,76.39a19,19,0,0,0,4.4-5,35.29,35.29,0,0,1,6.37-7.78c0-.07,0-.16.07-.26a16.34,16.34,0,0,1,2.25-1.73l0,0a17.66,17.66,0,0,1,1.79-1.22c.29-.2.56-.41.83-.63,1.11-.89,2.2-1.8,3.27-2.71a11.1,11.1,0,0,1,2.29-2.41c1.19-1.28,2.58-2.44,3.82-3.69A9.47,9.47,0,0,0,194.72,46c.64-2.54,2.39-4.46,4-6.67,1.76-2.41,3.36-5,4.92-7.45s2.22-4.86,4.6-6.89c1.23-1.05,2.59-2,3.78-3.08.76-.67,2.54-1.79,2.73-2.69.26-1.27-2-.24-2.51,0a9,9,0,0,0-2.61,1.7,16.17,16.17,0,0,0-2.47,3.14c-2.71,4.37-4.82,9.31-9.62,12.67a5,5,0,0,0,.16,1.7c.08.32-.66.6-.75.26-.87-3.2,1.57-5.23,2.56-8.19a31.65,31.65,0,0,0,1.2-5.72c.08-.62,0-1.58-.87-.51a11.32,11.32,0,0,0-.81,1c-1,1.57-1.11,3.23-1.5,4.93a17,17,0,0,1-1.84,4.21,16.8,16.8,0,0,0-1.77,5.69,11.89,11.89,0,0,1-1,3.5c-1.54,3.11-4.85,5.38-7.2,8.12-2.17,2.53-4.15,5.34-7.17,7.36s-5.83,3.59-8.25,5.88c-.21.2-.82.77-1.2.77,0,1.39.13,2.78.16,4.18,0,.27-.67.43-.67.11a32.51,32.51,0,0,1,0-6,11.7,11.7,0,0,1,2.23-4.72c2.36-3.4,3.44-7.11,5.6-10.58a18.94,18.94,0,0,0,2.85-6.06c.41-2,.6-4,1.14-6,.83-3.11,1.61-6.53,4.57-8.93,2-1.61,4.31-3.2,5.73-5.15a48.59,48.59,0,0,0,2.87-5,21.67,21.67,0,0,1,3.19-4.25,15.82,15.82,0,0,0,3.36-4.22c.18-.43.53-1.13.26-1.56-.75-.44-1.34-.38-1.76.17a13.24,13.24,0,0,0-1.79,1.71,51.4,51.4,0,0,0-3.07,4.67,13.35,13.35,0,0,1-3.48,3.95c-1.51,1.08-3.22,2-4.77,3.06.28.64.57,1.28.85,1.93.11.25-.49.49-.62.22-1.41-2.92-3-6.15-2.94-9.3s2-5.41,3.09-8.25a4.09,4.09,0,0,0,.39-3.12c-.07-.14-.88-1.86-1.3-.84-.6,1.44-.86,2.91-1.51,4.34-1.44,3.21-2.48,6.21-2.35,9.63.11,3,.57,6.47-.25,9.47-.79,2.85-3.11,5.33-3.77,8.2-1,4.32.45,11.23-4.85,14.29a9.65,9.65,0,0,1,.3,3.89c0,.3-.78.48-.74.13a9.94,9.94,0,0,0-.79-5.3,11.69,11.69,0,0,1-1.35-3.9c-.08-2.24,1.18-4.37,1-6.57,0-.41,0-1.55-.67-1.78-1.18-.43-1.86,1.43-2,1.94a23.12,23.12,0,0,0-.45,3.4,30.31,30.31,0,0,0,.79,9.43c.66,3,.78,5.81-.68,8.68s-3.62,5.29-4.78,8.19a46.24,46.24,0,0,0-2.29,9.6,7.71,7.71,0,0,1-3.7,5.33.21.21,0,0,1-.15,0,3.19,3.19,0,0,0,1.95,1.28c.41.1,0,.53-.33.46-2.53-.5-3-2.62-3.09-4.36a25,25,0,0,1,.22-3.45c.16-1.34.74-2.75.67-4.09-.12-2-1.31-3.93-1-6a23.67,23.67,0,0,1,1.6-5.16c.74-1.78.58-3.47,1-5.27s1.14-3.54,1-5.41c-.07-1.26-.73-3.22,0-4.37,1-1.64,2.29-3.17,3.28-4.83a28.86,28.86,0,0,0,4-11.49c.4-3.42,0-6.92.8-10.31.34-1.47.65-3.45,1.72-4.73.93-1.1,1.27-1.72.28-2.89a6.43,6.43,0,0,1-.47-.63c-1.9,2.07-3.59,4.35-3.56,6.94a24.74,24.74,0,0,1-.38,6.13c-.84,3.68.14,8.64-3.7,11.54a13.79,13.79,0,0,0,1.3,1.37c.22.21-.31.51-.55.31a15.73,15.73,0,0,1-3.88-5.5c-1.05-2.08-2.37-4-2.68-6.23a9.28,9.28,0,0,1,.95-6.15c1.24-2.1,3.31-3.92,3.93-6.22A20.2,20.2,0,0,0,160.64,4a6.86,6.86,0,0,0-.39-1.64c0-.62-.52-.85-1.43-.7a15.25,15.25,0,0,0,.11,1.66,14,14,0,0,1,.25,3.3c-.2,2.31-2,4.52-2.52,6.8A13.67,13.67,0,0,1,154,18.54l-.06,0a2.86,2.86,0,0,0,.65,1.29c.13.12-.17.32-.32.22-1.06-.69-.75-1.76-1-2.75a22.4,22.4,0,0,1-.95-3.59A10.49,10.49,0,0,1,153,9.93c.23-.77.5-1.71-.52-2.19a2.58,2.58,0,0,1-.42-.22,18.35,18.35,0,0,0-1.09,4.3c-.21,2.45,1.14,4.84,1.42,7.28s0,5,.45,7.48c.51,2.66,2.08,5.09,2.79,7.72A33.26,33.26,0,0,1,157.12,41a23.31,23.31,0,0,1-1.2,7.07c-.61,2.4-.91,4.83-1.53,7.22-.68,2.58-1.36,5.17-2.19,7.73s-1.71,5.17-1.58,7.83.74,5.26.7,7.91a15.58,15.58,0,0,1-1.56,6.41,32.28,32.28,0,0,0-2.66,7.52,24.64,24.64,0,0,1-2.19,7,42.86,42.86,0,0,1-3.69,6.67c-1.46,1.92-3.61,3.25-5.37,5-2,2-3,4.41-4.74,6.51a4.47,4.47,0,0,1-2.68,1.52,8.22,8.22,0,0,0,2.63,1.67c.36.16-.15.56-.48.42a8,8,0,0,1-3.13-2c-.17,0-.21-.11-.16-.21a2.47,2.47,0,0,1-.24-.49,7.47,7.47,0,0,1,.23-4.31,7.82,7.82,0,0,0,.11-4.57,30,30,0,0,1-1-2.91,9.05,9.05,0,0,1,.13-4.76A40.31,40.31,0,0,0,129,89.65c0-3.91-.05-7.77,1.49-11.55.81-2,1.56-4,2.37-5.95a6.17,6.17,0,0,1,2.65-3.39c2.45-1.49,4.48-2.78,5.7-5a22.27,22.27,0,0,1,2.87-4.62c1.41-1.56,3.3-3,4.44-4.72a3.08,3.08,0,0,0,.68-1.64l-1.65-.69A4.46,4.46,0,0,0,146,53a9.77,9.77,0,0,0-1.74,2.41,20.31,20.31,0,0,1-2.63,4.37,15.28,15.28,0,0,1-4.12,2.92,1,1,0,0,0,.94.86c.39,0,.12.41-.2.37a1.23,1.23,0,0,1-1.22-1c-.15,0-.23-.16-.06-.26l0,0a2.51,2.51,0,0,1,.11-.72c.25-.91.74-1.77,1-2.7a11.48,11.48,0,0,1,.81-2.72,8.52,8.52,0,0,1,1.89-2.38c1.38-1.28,1.46-2.63,1.52-4.2.11-2.33-.63-4.72-.26-7,.42-2.54,1.83-4.86,1.92-7.46a45.22,45.22,0,0,0-.78-7.5,9.58,9.58,0,0,1,.61-5.92c.29-.58,1.18-1,.18-1.28a2.31,2.31,0,0,1-1.08-.8c-2.67,3.51-2.15,7-1,10.89.54,1.78-.63,3.63-.7,5.38a26,26,0,0,1-.36,4.49c0,.11-.21.21-.35.2-2.89,0-2.44-2.94-2.41-4.37,0-.45-.67-1.45-1-.71-.46,1.15-1,2.4-.49,3.6.69,1.73,2.05,3.26,2.74,5a4.5,4.5,0,0,1-.42,4.24,12.35,12.35,0,0,0-1.91,5.83,8.07,8.07,0,0,1-2.12,4.87,22.16,22.16,0,0,0-3.07,5.55.23.23,0,0,1-.22.13h0a9.57,9.57,0,0,0,.58,3.22c.1.25-.5.49-.62.21-1.07-2.64-.54-5.45-1.51-8.14-.87-2.37.25-4.16,1-6.47.9-2.81.29-5.68-.59-8.45-.69-2.16-1.8-4.39-1.66-6.63a8.57,8.57,0,0,1,.84-3.51,7.85,7.85,0,0,0,.58-4.42c-.14-2.59,1-5.05,1.17-7.62a5.83,5.83,0,0,1,.55-2.51c.69-1.3,2.34-2.62,2.13-4.11q.25-1.55-1.89-1.11c-.1.3-.2.6-.29.9a3.71,3.71,0,0,1-.39.89,25.35,25.35,0,0,0-1.78,3,3.57,3.57,0,0,0,.47,1.35c.11.17-.34.39-.48.22-1-1.29-.28-2.92-.78-4.35-.66-1.9-1.76-3.67-2.21-5.62A14.6,14.6,0,0,1,127,6.76c.09-.68.26-1.36.41-2a1.92,1.92,0,0,0-1.14-2.34L125.54,2c0,.1-.23.15-.27.05a1.69,1.69,0,0,1,.22.91c-.13.55-.29,1.09-.43,1.63a15.07,15.07,0,0,0-.22,3.79,20.34,20.34,0,0,0,2,7.69,8.62,8.62,0,0,1,.46,6,13.85,13.85,0,0,0-.48,3.88c0,.91-.57,2.21-.34,3.09a12.45,12.45,0,0,0,1.56,1.33c.23.17-.28.52-.51.36-2-1.4-3.67-3.13-4.07-5.23-.48-2.5,0-5.09-1.06-7.51-.31-.75-.73-2.13-1.7-2.53-1.21-.5-.19,2.74-.09,3,.78,2,.72,4,.92,6.06a7.57,7.57,0,0,0,1.79,4.7A6.39,6.39,0,0,1,125,31.91a8.59,8.59,0,0,1-.43,3.5,11.22,11.22,0,0,0,0,5.78,24.75,24.75,0,0,0,1.54,4.69,20.4,20.4,0,0,1,1.91,4.19c.56,2.3-.77,4.21-2.2,6.18a.4.4,0,0,1-.19.11c-.11,1.73-.41,3.57,1.26,4.8.2.15-.22.42-.43.3-1.76-1-1.55-2.94-1.46-4.42a7.94,7.94,0,0,0-.47-3.76A11.94,11.94,0,0,0,122,50c-1.94-2.06-2.69-5-3.57-7.38a8.45,8.45,0,0,1-.18-1.67c-.09-.61-.78-2.18-1.54-1.63,0,0,0,0,0,0A19.93,19.93,0,0,0,118.89,46a24,24,0,0,1,2.42,5.58c.86,4.07,1,8.25,2.47,12.25,1.37,3.68.16,7.26-.47,10.94a28.13,28.13,0,0,0-.38,7,32.52,32.52,0,0,1,.42,6.06A28.42,28.42,0,0,1,122,93c-.65,2.16-.24,4.19,0,6.37a83.75,83.75,0,0,1,.09,12.37c0,.7-.55,11.38-3.43,10.64a11.43,11.43,0,0,0,1.06,1.78c.2.29-.42.67-.68.39-4.2-4.6-1.11-10.1-3.49-15.06-.67-1.4-1.68-2.74-2-4.22a10.45,10.45,0,0,1,.35-3.59c.42-2.81-.56-6-1.51-8.7s-2.85-5.28-3.52-8.07c-.6-2.5.84-4.6,1.42-7a27.35,27.35,0,0,1,.79-4.11,12.11,12.11,0,0,0,.76-1.84c-1.55-1.71-2.46-1.92-2.73-.6,0,.12-.07.25-.11.38-.23,1.15.2,2.45-.23,3.54a5.8,5.8,0,0,1-1.18,1.79c.33.44.66.89,1,1.34.21.25-.39.58-.59.33s-.62-.8-.91-1.21c-.17.09-.4,0-.25-.19l.06-.06a35.86,35.86,0,0,1-3.15-5.44c-1-2.06-2.28-4.36-2.2-6.59a19.32,19.32,0,0,0,.09-4,34.39,34.39,0,0,0-1.11-4.06,8.18,8.18,0,0,1,0-5.5c.9-2.21,2.74-4.15,3.48-6.4s.82-4.68,1.82-6.91c2.18-4.92,5.83-10,6.11-15.26.14-2.55-.66-4.88-1.07-7.38a19.1,19.1,0,0,1,0-2.93c0-1.32.19-2.93-.39-4.2S109.23,9.67,109.2,10a15.44,15.44,0,0,0,0,2c.17,4.15,2.4,8.28,1.1,12.43-.21.68-1.82,7.35-4.16,6.18C104,29.61,103.53,26.85,103,25c-1.12,1.78-.42,3.53.26,5.41.41,1.12,1.67,2.48,1.56,3.66-.13,1.45-.83,2.83-1,4.29a13.07,13.07,0,0,1-1.36,3.57c-.37.84-2.09,6.66-4.5,6.32a3.5,3.5,0,0,0,1.19.69c.33.1,0,.44-.26.37a4.37,4.37,0,0,1-2.32-2c-.85-1.22-.31-1.91-.4-3.2-.12-1.82-.85-3.7-.79-5.51,0-1.65,1.48-2.71,2-4.26.53-1.73,1.24-4.41.55-6.14a15.08,15.08,0,0,1-1.53-4.93c-.06-1.6-.43-3.06.33-4.61a4.13,4.13,0,0,1,.82-1.07c.65-.63,1-1.57.19-2.1a.76.76,0,0,1-.31-.1,2,2,0,0,0-1.13.08c-.5.78.12,2.22-1.12,2.66-1.42.5-1.5-.86-1.42-1.56.17-1.45-1-2.38-1.45-3.71a5,5,0,0,1-.14-2.6c.22-1,.51-2,.81-3a3.56,3.56,0,0,0,.2-1C93,5.33,92.51,5,91.6,5.35l-.72,1.57c-.76,1.64-1.63,3.49-1,5.24.49,1.28,1.29,2.49,1.78,3.77a9.2,9.2,0,0,1,.48,3.71,6.07,6.07,0,0,0,1.13,3.71c2.09,3.26,2.87,7.66-.23,10.7a.28.28,0,0,1-.13.07c.92,2,1.86-.49,2.63-1,.13-.1.44-.07.31.11-.43.62-.7,1.75-1.58,2.11a1.49,1.49,0,0,1-1.89-.91,6.34,6.34,0,0,0-1.18-2.63,6,6,0,0,1-1.51-1.82c-.5-1.44.46-4-1.59-4.51a8.32,8.32,0,0,0,.09,4.37A17.52,17.52,0,0,0,90,33.56c1.26,2.09,2.76,4,2.58,6.41A15.34,15.34,0,0,0,94,48.12c.54,1,1.8,1.72,2.13,2.8A7.41,7.41,0,0,1,96.18,54c-.29,2.64-.34,5.62.88,8.12,1.06,2.17,2.18,4.55,2.13,6.92a5.31,5.31,0,0,1-1.31,3.67,2.1,2.1,0,0,1-.59.46,2.33,2.33,0,0,0,2.26.27c.29-.12.45.18.21.31-1.64.94-3.29-.45-4.23-1.39a6.49,6.49,0,0,1-2-3,4.7,4.7,0,0,0-2.35-3.58,4.92,4.92,0,0,1-2.43-2.49C88.44,62.26,89,61,89,60a3.12,3.12,0,0,1,.42-1.36.89.89,0,0,0,0-1.06c-1.39-.85-2-.89-1.83-.14a7,7,0,0,1-.68,2.85l.49.72c.13.2-.41.46-.56.25l-.27-.37c-.17.08-.44.07-.35-.11s.06-.16.1-.24c-.94-1.25-1.94-2.48-2.88-3.73a13.39,13.39,0,0,1-2.32-3.65c-.49-1.72-.33-3.54-.94-5.24-.55-1.54-1.4-3-2-4.53-1.31-3.18-2.59-6.41-3.64-9.64-.83-2.54-1.84-5.75-1.16-8.37.78-3,3.83-5.4,4.38-8.54a40.69,40.69,0,0,0,.17-5.63,8.26,8.26,0,0,0,0-1.86c0-1.23-.62-1.16-1.87.2a7.06,7.06,0,0,0,.22,1.51c.29,1.2.85,2.54.62,3.78a7.85,7.85,0,0,1-2,3.52,11.71,11.71,0,0,0-2.57,4.06c-.12.45-.25.62-.82.76a.1.1,0,0,1-.08,0,3.94,3.94,0,0,0,1.36,1c.3.14-.13.47-.4.35-2.15-.95-2.21-2.72-2.9-4.36-.45-1.08-1.52-1.92-2-3a15.33,15.33,0,0,1-.64-3.32c-.51-2.66-3.17-4.49-4.54-6.87a6,6,0,0,1-.43-4.81c.29-.92.72-1.28,0-2.08-.94-1-2.07,2.72-2,3.17C60.12,6,61.65,8,63.44,10.23c1.64,2,1.62,3.93,2.14,6.23a2.75,2.75,0,0,1-.13,2.35c.81.24,1.51.26,1.68-.33,0-.15.42-.23.43,0,.07,1-1.1,1.13-2.11.8a3.59,3.59,0,0,1-.35-.12.71.71,0,0,0-.09.07c-.09.05-.21,0-.13-.09s0,0,0,0c-.82-.31-1.59-.67-2.35-1a11.61,11.61,0,0,0-3.38-1c-3-.57-5.74-2.34-6.62-4.61-.17-.47-.48-2.95-1.38-2.32a.73.73,0,0,1-.58.11,17.94,17.94,0,0,1,1,2.41,14,14,0,0,0,2,2.66,10.8,10.8,0,0,0,6.33,3.41c2.34.29,3.77,1,4.9,2.58A11.91,11.91,0,0,0,67.24,24c.76.61,1.67,1.22,1.94,2.07.66,2.12,1.95,3.94,2.34,6.1.45,2.49,2.06,4.9,3,7.31a56.3,56.3,0,0,1,2.21,6.69c.25,1,.65,2.18-.32,3h0c.62.37,1.29.66,1.66.44s.44,0,.29.2c-1,1.06-2.33-.35-3.23-.81a14.07,14.07,0,0,1-2.65-1.37,8.44,8.44,0,0,1-1.56-2.38c-.87-1.41-2.07-2.67-3-4-.63-.88-1-1.88-1.51-2.78s-.66-1.89-1.72-2.48c-.28-.16-1.72-.91-1.14-.25,0,0,0,.08-.09.06h0A39.05,39.05,0,0,0,65.86,39,14.38,14.38,0,0,1,68,41.58a9.13,9.13,0,0,1,.79,2.91A6.25,6.25,0,0,0,72,48.69a12.24,12.24,0,0,1,4.89,5.1,18.33,18.33,0,0,0,3.66,5.89c.2.18-.28.46-.48.27h0c-.09,0-.19-.06-.15-.14a.28.28,0,0,0,0-.08l0,0c-.32-.33-1.42-1.22-1.64-1.41a15.75,15.75,0,0,0-4.35-2,2.36,2.36,0,0,0,.1,1.25,3.57,3.57,0,0,0,1.78,1.39,12.23,12.23,0,0,1,2.73,1.67,43.42,43.42,0,0,1,5.28,5c1.39,1.66,2.91,3.29,4.2,5,.6.79.93,1.68,1.46,2.49A10,10,0,0,0,92,75.63,18.23,18.23,0,0,1,97.83,83c.32.93.37,1.92.74,2.83.93,2.28,5.05,6.14,2.27,8.38A5.55,5.55,0,0,0,105,95.45c.52-.08.42.43,0,.52-4.07.81-6.33-3.06-8.33-5-1.48-1.46-3.32-2.21-5.14-3.34a26.85,26.85,0,0,1-3.93-3.27c-2.79-2.53-5.63-5.09-5.34-8.58.07-.9.29-2.26-1-2.74s-.23,2-.24,2.06A6.33,6.33,0,0,0,81,77.82c.32,1,.75,1.88,1.09,2.83a.11.11,0,0,1,0,.08l1.2,1c.27.22-.35.58-.62.35-.64-.53-1.29-1.06-2-1.57-4.12-3.11-8.74-5.94-11.22-10a31,31,0,0,1-3.18-6.53,27.56,27.56,0,0,0-2.71-6.76c-1.37-2.14-2.95-4.28-3-6.74-.1-2.3.64-4.55.65-6.85a9.78,9.78,0,0,0-.11-2,3.75,3.75,0,0,0-.35-1.2.87.87,0,0,0-1.6.1A16.43,16.43,0,0,0,58.71,44c-.29,2.7-2.86,1.3-3.86-.35a27.28,27.28,0,0,1-2.32-6c-.88-2.58-3-4.39-4.92-6.54-.5-.56-2.83-2.73-1.74-1,.42.68.89,1.35,1.32,2,1.31,2.11,2.47,4.24,3.6,6.42,2.48,4.77,4.75,9.78,8,14.3a.21.21,0,0,1,0,.3c-.92.92-2,.45-2.91-.19-.28-.18-2.24-1.44-2.23-1.36.29,1.71,2,2.62,3.87,3.34,2.84,1.13,4,3.71,5.47,5.78s1.61,4.67,1.58,7a7.27,7.27,0,0,0,1.06.64c.23.11-.07.37-.28.31C63.7,68.31,63,67.19,62,66.3,60.53,65,58.66,64.14,57.09,63c-2.87-2.11-6.22-3.66-8.07-6.43a3.22,3.22,0,0,0,.23.5,37.89,37.89,0,0,0,2.68,3.3c.13.17-.21.37-.39.23-1.25-1-2.75-2.37-3.18-3.78s-.17-3-.79-4.39-1-2.92-1.6-4.4c-.47-1.19-1.38-2.47-1.48-3.73a13.68,13.68,0,0,1,.42-3.91c.31-1.5-.19-2.67-.69-4.1-.07-.19-.57-1.83-1-1.35a3.91,3.91,0,0,0-1,1.8c-.05.24-.11.52-.15.8a.09.09,0,0,1,0,0,.46.46,0,0,0-.06.23,2.83,2.83,0,0,0,0,.29h0a1.61,1.61,0,0,0,.1.58c.12.34.06.34-.06.23l.16.27c0,.05-.05.13-.12.09a1.56,1.56,0,0,1-.76-1.59c-1-1.08-2-2.07-3-3.14a35.09,35.09,0,0,0-3.17-3.43c-1.66-1.4-.64.89-.17,1.42s1,1.1,1.47,1.63a29.43,29.43,0,0,1,2.94,3.44c1.84,2.6,2.55,5.53,3.22,8.4A44.45,44.45,0,0,0,44,50.76c.38,1.11,1.18,2.61.94,3.8l.1.06c.09,0,.2,0,.19.07v0c.31.16.62.32.94.45s-.15.55-.46.42a25.11,25.11,0,0,1-6.44-4.43c-2-1.75-2.71-4-4.52-5.76-3.33-3.31-7.17-6.28-10.15-9.79a7.58,7.58,0,0,0-2.12-2.06c-1.61-.8,0,2,.06,2.09A14.42,14.42,0,0,0,26,39.05c2,1.4,4.27,2.67,5.57,4.55.5.73.73,1.56,1.2,2.29a3,3,0,0,1,.77,2.19A3.23,3.23,0,0,0,36,48c.19-.11.41,0,.26.19-1.68,1.65-5.74-.78-7.3-1.43-2-.85-3.71-1.53-5-3-.4-.45-3.49-4.64-4.43-4.79.07,0,.12.09,0,.15l-.18.14a.76.76,0,0,0,.06.16.09.09,0,0,1,0,.12s0,.09.05.14a33.35,33.35,0,0,0,3.83,4.86,19.7,19.7,0,0,0,3.88,3.73,9.6,9.6,0,0,0,4.27,2.11,8.79,8.79,0,0,1,3.55,1.33c2.82,1.69,4.21,4.46,7.13,6.11C44.28,59,47,59.89,47.43,62a.2.2,0,0,1-.09.17c.25,0,.51,0,.78,0s.17.4-.13.39c-3.57-.09-5.8-1.58-8.25-3.4,1.16.86-2.11.08-.19.51a1.44,1.44,0,0,1,.5.28c.45.27.82,1.07,1.06,1.35a6.66,6.66,0,0,0,6.51,2.47c1.38-.26,3.18-.75,4.44.07,1.52,1,2.55,2.33,4.13,3.29s3.47,1.6,5.16,2.49a14.26,14.26,0,0,1,3.56,2.75,40.32,40.32,0,0,0,4.83,3.87c1.18.87,2.74,1.84,3.44,3s1.82,2.9,1.13,4.08c-1,1.71-4.73-.19-6-.59S65.47,82,64.76,81a16.88,16.88,0,0,1-.8-1.51c-.29-.51-1.61-.74-2.54-.85a.1.1,0,0,1-.06,0,34.37,34.37,0,0,0,4.2,4.25A16,16,0,0,0,72,85.58a17.84,17.84,0,0,1,5.69,1.83,13,13,0,0,1,3.54,3.86c2.57,3.63,6.63,6.54,10,9.74a19.62,19.62,0,0,1,5.87,9.31c1.12,4.14,2.15,8.3,3.24,12.45a14.72,14.72,0,0,1,.61,6.17c-.31,1.91-1.19,3.75-1.4,5.67-.45,4.13,1.36,8,2.07,12,.48,2.7-.14,4.61-4.08,4.7-.6,0-.27-.63.22-.64a3.42,3.42,0,0,0,2.81-1,10.29,10.29,0,0,1-7.28-2.17A20.08,20.08,0,0,0,90,145a7.35,7.35,0,0,1-2-1.56,13,13,0,0,0-4.38-3.55c-1.33-.7-2.89-1.53-3.44-2.75-.84-1.88-.38-3.84-1.47-5.71-1-1.69-2.75-3.06-3.69-4.74-1-1.85.12-3.5.06-5.42,0-.16.38-.26.41-.06a2.31,2.31,0,0,1,0,.37,2.32,2.32,0,0,0,.14-.23c1.26-2,.74-3.79,1-5.92.19-1.4,0-2.86.29-4.24.31-1.75,1.39-3.29,1.66-5a11,11,0,0,1,1.47-3.61,11.05,11.05,0,0,1,1.18-2.22,9.7,9.7,0,0,0,1.14-1.38A2.29,2.29,0,0,0,82,96.17c-.74-.79-.76,1.3-.78,1.6-.08,1.23-1,2-2.12,2.87-.19.14-.74.24-.73-.09,0-1.08.31-2.22-.32-3.25a13.67,13.67,0,0,1-1.39-2.38,2.81,2.81,0,0,1-.28-1.83c-1.24.49-1.57,1.07-1,1.75l.3.5c.2.3.39.61.58.92a21.74,21.74,0,0,1,1,3.28,5.64,5.64,0,0,1,.5,2.22c-.1,1.86-1.52,3.51-1.28,5.42,0,.28-.67.43-.68.11s0-.35,0-.53a.17.17,0,0,1-.16-.09A12,12,0,0,0,74,104.24c-.53-.61-1.12-1.71-2-2.06a5.74,5.74,0,0,1-2.67-1.91c-1.46-2-2.2-4.24-3.31-6.37a17.54,17.54,0,0,0-2.44-3.57c-.61-.69-1.44-1.56-2.84-.93-.16.08.95.91,1,1a14.58,14.58,0,0,1,3.86,5.89,17.35,17.35,0,0,0,5.86,7.6c.93.69,2.85,1.61,3.24,2.59a20.6,20.6,0,0,1,.58,2.81,3.15,3.15,0,0,1-.35,2.49,14.16,14.16,0,0,0-1.25,5,22,22,0,0,1-.48,3.42l0,.07c-.35.91-1.5,1.51-1.73,2.47,0,.24-.64.28-.57,0a2.86,2.86,0,0,1,.9-1.37,4,4,0,0,0,.72-1.11,5.44,5.44,0,0,1-1-1c-.2-.29-.19-.62-.37-.91-.75-1.28-1.2-2.44-2.8-3.3-2.55-1.36-3.28-3.15-4.87-5.11-1.45-1.78-3.89-3.33-4.73-5.36-.93-2.24-1.12-4.51-2.44-6.68a66.94,66.94,0,0,0-5.09-6.71c-1.56-2-2.2-4.1-3.13-6.24a15.11,15.11,0,0,1-1.56-6.64,4.72,4.72,0,0,0-1.53-4,8,8,0,0,1-1.48-1.71c-.63,1.19.06,1.54.84,2.57a3.36,3.36,0,0,1,.88,2.63c-.16,1.32-.76,2.91-.23,4.29a.12.12,0,0,1,0,.1,3.1,3.1,0,0,0,.6.89c.14.14-.14.36-.34.3a1.33,1.33,0,0,1-.84-1.08,36.27,36.27,0,0,1-2.58-2.68,18.89,18.89,0,0,1-3.6-3.73c-.93-1.51-1.35-3.13-2.13-4.68A37.79,37.79,0,0,0,33,66.4c-2-2.7-5.09-5.47-5.78-8.58-.38-1.71-.3-3.16-1.77-4.61-1-1-1.56-2.25-2.75-3.12-.46.75-1.21,1.77-.37,2.49a10.48,10.48,0,0,1,1,1,7.61,7.61,0,0,1,1.12,1.59c.45,1.06.51,2.19.86,3.27a6.48,6.48,0,0,0,1.5,2.09c.17.2-.31.48-.48.28A8.71,8.71,0,0,1,25,58.84l-.05,0c-1.66-1-3.69-1.75-5.29-2.81a7.26,7.26,0,0,1-1.05-1c-1.17-1.19-4.41.14-1.35,1.38s4.46,3.63,7.21,5.07a9,9,0,0,1,3.34,2.39c1,1.6,1.64,3.43,2.91,4.92,2.07,2.42,4.83,4.45,6.56,7a39.77,39.77,0,0,0,3.57,4.52A16.81,16.81,0,0,1,43,83.9c1.47,2.75,4.12,5,5.47,7.8A18,18,0,0,1,49.76,96a9.22,9.22,0,0,0,2.63,4.42,22.6,22.6,0,0,1,4.23,7.69c.1.26-.52.52-.66.23s-.35-.78-.52-1.17a3.6,3.6,0,0,0-1.65-.68,5.42,5.42,0,0,1-1.44-.29c-1.34-.47-2.06-1.49-3.56-1.91-2.69-.77-4.08-2.51-5.62-4.28-1.84-2.12-4.44-3.65-6.43-5.67s-2.4-4.15-3.48-6.44c-.58-1.25-1.38-2.42-2-3.65a30.64,30.64,0,0,1-1.33-3.88c-.86-2.45-1.77-6.12-4.71-7.61-2.34-1.19-2.8-2.36-3.75-4.28-.68-1.36-2.16-2.06-3.6-2.91-1-.59-1.94-1.37-3-1.93a1,1,0,0,1-.18.43c-1,1.75.22,2.15,1.58,3s2.15,2.24,3.49,3.18a13.92,13.92,0,0,1,5.06,6c1.19,2.93,3.38,5.45,5.12,8.2A7.49,7.49,0,0,1,31.49,88a5,5,0,0,0,1.67,3.91c.23.21-.3.5-.54.31a4.12,4.12,0,0,1-1.79-3.07,1.49,1.49,0,0,0,0-.21c-.77-.25-1.3-1.32-2.17-1.54a15.88,15.88,0,0,1-4.29-1.24,35.32,35.32,0,0,1-3.21-2.56c-1.23-1-2.76-1.56-3.64-2.75a26.73,26.73,0,0,1-2.16-3.34c-.85-1.56-2.35-2.2-4-3.18a29.29,29.29,0,0,1-3.58-2.64c-.74-.6-1.87-1.13-2.32-1.9a4.53,4.53,0,0,0-.39,1c-.19,1.09,2.38,2,3.24,2.65A51,51,0,0,1,12.85,77a14.75,14.75,0,0,1,3.46,4.31c.4.82.13,1.53,1.18,2.12h.06c.08,0,.11,0,.12.1.72.4,1.42.82,2.19,1.17.26.13-.09.42-.32.36A8.73,8.73,0,0,1,17,83.85a23.15,23.15,0,0,1-3.68-.45A19.87,19.87,0,0,1,9.07,82C6.73,80.93,4.9,79.4,2.66,78.25,2.4,78.12-.28,77,0,77.5c.8,1.34,2.66,2.19,4.19,3,3.32,1.74,6.47,4,10.44,4.74a32.69,32.69,0,0,1,9.78,3.28c3,1.61,5.56,2.73,7.48,5.21a42.49,42.49,0,0,0,6.68,6.42c1.26,1.06,2.27,2.24,3.46,3.34a15,15,0,0,0,5.15,2.89.16.16,0,0,1,.09.07,5,5,0,0,1,1.85-.74c.42,0,.34.36,0,.42-.86.14-1.45.86-2.3,1a7,7,0,0,1-1.7-.11,12.14,12.14,0,0,1-4.34-.91s0,0,0,.06a.08.08,0,0,1,0,0c.13,1.06,1,1.09,2,1.26.74.13,1.33.37,2.05.54a32.35,32.35,0,0,1,3.62.85A9.33,9.33,0,0,1,48,107.6c0-.09.16-.16.21-.07A5.27,5.27,0,0,0,50.45,110a16.66,16.66,0,0,0,3.26.77,19.89,19.89,0,0,1,5.75,1.78c3.29,1.93,6.78,4,8.24,7.06.84,1.78.55,4,2.13,5.47a9.92,9.92,0,0,1,2.55,4.41c1.18,3.57,3.42,7.12,3.54,10.83,0,.29-.64.46-.7.11l0-.13a1.46,1.46,0,0,1-1.09,0,8,8,0,0,0-3.84-.29,12.58,12.58,0,0,1-4.85-.26,48.33,48.33,0,0,0-6.34-.66,3.4,3.4,0,0,1-2.58-1.44c-.41-.74-.48-1.74-1.17-2.37l-1.69-1.48a12.45,12.45,0,0,1-3-3.41c-.74-1.52-.3-3-.88-4.57a7.47,7.47,0,0,0-2.44-3.39c-.8,1,1.15,3.07,1.59,4a7.84,7.84,0,0,1,.87,3.41,34.11,34.11,0,0,0-.21,3.44h0c.11,0,.23,0,.23.09a1.09,1.09,0,0,0,0,.18c0,.08-.09.15-.2.18.2,1.13.88,2.12,2.73,2.77.36.12,0,.43-.28.4-2.68-.36-3.26-1.93-3.27-3.66-.92-.78-1.48-1.77-2.47-2.49-1.2-.87-2.86-1.7-3.5-2.91-.86-1.62-.79-3.38-1.29-5.07s-.44-3.6-1-5.35-2-3.09-3-4.71-1.46-2.82-3.3-4a26.46,26.46,0,0,1-4.65-3.36,12.17,12.17,0,0,1-2.3-4.4c-.94,1,.69,2.31,1.1,3.22a12.9,12.9,0,0,0,2.95,4.57,3.44,3.44,0,0,1,.7.27c.19.1.11.27-.05.37a10.71,10.71,0,0,0,2.61,1.81c.29.13-.13.46-.39.34A11.6,11.6,0,0,1,31,109.26a11.51,11.51,0,0,1-2.21-.15c-.71-.24-.88-.84-1.32-1.28-1.42-1.42-3.56-2.15-5.25-3.35a7.89,7.89,0,0,1-2.45-3.89,7.18,7.18,0,0,0-1.24-2.25,1.79,1.79,0,0,1,.22.38c.7,1.68.51,3,2.13,4.47.13.12-.14.26-.28.2a3.14,3.14,0,0,1-1.74-1.93h0c-2.42-.89-3.67-2.17-5.39-3.66A7,7,0,0,0,12.32,97c-.24-.13-.5-.26-.76-.37l-1.09,1.05A12.14,12.14,0,0,1,13.19,99c1.94,1.65,3.12,3.76,4.93,5.5a9.25,9.25,0,0,0,3.94,2.43,6.81,6.81,0,0,1,2.21,1,35.48,35.48,0,0,0,3.17,2.64c1,.61,2.24,1.08,3.22,1.75,2,1.36,3.22,3.22,4.93,4.78,1.45,1.32,2.64,2.55,2.27,4.37a8.12,8.12,0,0,0,2.23,7.19c.18.22-.33.52-.53.3a9.84,9.84,0,0,1-1.67-2.39l-.17-.14c-.07,0,0-.11,0-.15l-.19-.07a7.06,7.06,0,0,0-1.39-1c-.57-.29-1.12-.54-1.73-.79a28.66,28.66,0,0,1-4.57-2,38.59,38.59,0,0,0-4.13-2.48,12.52,12.52,0,0,1-3-2.43,35.31,35.31,0,0,0-3.5-2.46,6,6,0,0,1-2.06-2.78,10.6,10.6,0,0,0-2.62-3.75,31.78,31.78,0,0,0-3.14-2.23c-.81,1,1.5,2.52,2.07,3.4a7.49,7.49,0,0,1,1.26,3.94c0,.22-.44.37-.58.14a7.81,7.81,0,0,0-3.14-3.16c-1.32-.72-2.68-1.43-4.05-2.1a7.42,7.42,0,0,1-2.75-2c-.54-.71-.46-1.47-1.16-2.1-.43.82-1.22,2-.41,2.64s1.65,1.06,2.37,1.68c1.76,1.49,3.38,3.08,5.28,4.47a11.41,11.41,0,0,0,4.43,2.08,10.21,10.21,0,0,1,2.57.85,71.26,71.26,0,0,1,5.87,4.1c2,1.37,4.24,2.58,6.12,4,1.08.82,2,2.08,3.3,2.72,1,.49,2,.87,3,1.3a40.65,40.65,0,0,1,5.75,2.89c1.71,1.09,2,2.59,3.49,3.77,2.15,1.75,4.72,2.67,7.31,4,1.95,1,2.36,2.16,3.68,3.57a11.36,11.36,0,0,0,5.5,3.56c2.65.65,5.1.18,7.78,0a10.43,10.43,0,0,1,5.52.77,21.14,21.14,0,0,0,4.11,1.74c1.06.23,2.16.27,3.21.49,2.32.51,2.55,1.83,4.06,3.07.87.71,1.81,1.71,2.86,2.48-1-1.07-1.94-2.14-2.88-3.24-.1-.12.17-.28.28-.16,1.31,1.43,2.67,2.85,4.07,4.23l.15.07c.13,0,.15.12.12.2.34.33.67.68,1,1,1.72,1.64,3.74,3.08,5.42,4.75a18.37,18.37,0,0,1,5,9.85,62.61,62.61,0,0,1-.58,24.58c-1.9,9.33-2,18.74-3.07,28.12-.38,3.51-.34,7.58-2.4,10.83-1.9,3-5.39,5.07-8.67,7.13-.23.15-4.49-.42-6.67-.1s-4.59.71-6.85,1.16a58.1,58.1,0,0,0-7.47,1.51c-2.49.85-3.93,2.65-6.18,3.73a15.74,15.74,0,0,1-4.48,1.41c-1.93.28-4,.2-5.8.9-2.2.85-3.84,2.18-4,4.09l.07,0a7.82,7.82,0,0,1,5.72-2.44c2.46,0,4.79.42,7.24,0a13.54,13.54,0,0,1,4.75-.47,29.53,29.53,0,0,0,4.29.71,11.85,11.85,0,0,0,4.62-1c1.94-.79,3.81-1.72,5.84-2.38a21.66,21.66,0,0,1,5.36-1c2.22-.13,6,1.64,5.46,2.43a5.11,5.11,0,0,1-2.19,1.52c-1.34.63-2.37,1.53-3.69,2.16a33,33,0,0,0-3.67,1.58,8,8,0,0,0-2.13,1.91,3.85,3.85,0,0,0-.61,1.1l.16.22a11.41,11.41,0,0,1,1.93-1.8c.83-.51,2.49-.23,3.41-.42,1.71-.36,3.23-1,4.89-1.5a16.13,16.13,0,0,1,3.87-.25c3.66-.1,5.81-2,9-3,3-1,6.32-.53,9.45-.93a21.6,21.6,0,0,0,9.25-3.14c.36-.23.72.13.36.36s-.71.43-1.08.63a1.11,1.11,0,0,0,.07.16s0,.07-.07,0l-.16-.12.08.08a2.33,2.33,0,0,0,.2,1.41,6.5,6.5,0,0,0,2,1.29c1.21.55,3,1,3.8,2a1.88,1.88,0,0,1,.35,2.39c-.46.68-1.66,1.6-1.86,2.29-.07.28-.16.56-.26.84a3.18,3.18,0,0,1,1.57-1.46c1.44-.7,3.86-1.32,4.24-2.75s-.82-2.53.62-3.71,2.94-2.32,3.24-4.09c0-.21.61-.31.6,0a3,3,0,0,1-.23,1.05c1.54,1.73,4.77.93,7,2.12,1.4.77,2.56,1.83,4.3,2.18a17.86,17.86,0,0,0,6.48.06c2.3-.37,5.3-1.06,7.55-.14a4.62,4.62,0,0,1,2.52,1.83,1.71,1.71,0,0,0-1.34-2.06c-1.56-.57-2.36-1.73-4-2.29s-4-2.22-2.51-3.73c.08-.08.23,0,.15.08-1.3,1.43.32,2.29,1.9,2.94,1.39-1.59,3.8-1.52,6-.82a28,28,0,0,0,13.62.8,13.24,13.24,0,0,1,5.5,0c2.16.47,4.32,1,6.55,1.27a11.9,11.9,0,0,0,5.18-.16c.84-.28,1.6-.66,2.45-.93a9.48,9.48,0,0,1,1.4-.34c-1.95,0-3.86.34-5.49-1.06a7.66,7.66,0,0,0-2-1.54,13.07,13.07,0,0,0-3.9-.59c-2.09-.18-4.2-.38-6.29-.62a25.61,25.61,0,0,1-5.27-1c-1.63-.55-3.18-1.18-4.85-1.68a15.35,15.35,0,0,1-3.45-1.76c-.84-.49-2.7-.31-3.18-1-3.67-2.36-7.85-4.87-10.7-7.8s-3.5-6.71-4.35-10.18c-1-4.12-2.57-8.16-3.36-12.31a42.13,42.13,0,0,1-.37-12.53c.48-4.39,1.34-8.77,1.57-13.17s.34-8.57.54-12.85c.17-3.66-.3-7.48,1.87-10.85s4.36-6.55,6.58-9.79l0-.05a0,0,0,0,1,0-.06,20.4,20.4,0,0,1,3.67-4.27c1.68-1.56,3.16-3.18,4.63-4.84a44.4,44.4,0,0,1,8-7c2.93-2,6.44-4.63,10.63-4.95a42.89,42.89,0,0,1,12.08,1.28,17.27,17.27,0,0,0,9.19-.31c2.46-.71,4.88-1.52,7.35-2.2.75-.21,1.55-.34,2.28-.57,1.11-.34,2.1-1.4.27-1.43a21.78,21.78,0,0,0-7.25.88c-4.21,1.32-7.72,2.66-12.43,2-2.45-.35-4.59-1.22-7-1.68-3-.56-5.44.34-8.15,1.13-.3.09-.38-.19-.12-.29a17.34,17.34,0,0,1,6.17-1.59h0c-.15-1.25,1-2.31,2.09-3.14a29.87,29.87,0,0,1,4.76-3.45c1.87-1,4.33-.7,6.42-1.17,2.57-.56,4.59-2.07,7.11-2.78,3-.85,6.3-.8,9.12-2a29.63,29.63,0,0,0,7.18-4.17c4-3,6.55-6.93,10-10.28a28.52,28.52,0,0,1,2.47-2.14,5.62,5.62,0,0,0,1.41-1.27C232.72,95.37,230,96.57,230.38,96.34Z"/></g></g></g></svg>