<svg xmlns="http://www.w3.org/2000/svg" viewBox="0 0 166.24 259.19"><title>tree5</title><g id="Layer_2" data-name="Layer 2"><g id="assets_copy" data-name="assets copy"><g id="tree"><path id="tree5" d="M0,87.61c-.06,2.3,3,2.85,4.68,2.86a.19.19,0,0,0,.08,0,.08.08,0,0,1,0,0c-1.26,1.11-1.38,3.9.5,3.74-1.17,1.74-1.91,3.9.2,5.34,1.51,1,3.57-.3,4.65-1.43l.12.15,0,0c-.61.94,0,1.76,1.05,2-1.16,1.35-2.78,3.54-1.25,5.12s3.66.5,4.66-1l.27.23.16.1a.34.34,0,0,0-.06.12h0c-1,1.16.87,2.24,2,2.38-.83,1.67-1.9,3.32-.5,5,.88,1.06,2.53.55,3.54-.18a2.07,2.07,0,0,0,2.46,2c0,1,.48,1.81,1.53,1.82-2,2,.65,5.43,3.44,4.22a1.63,1.63,0,0,0,1,1.59c1.46.68,2.76-.21,3.58-1.4.09,1,1,1.43,2.35,1,2.61-.81,2.43-3.79,2-6a5,5,0,0,0,1.42-.62,1.32,1.32,0,0,0,.86,1.58,2.9,2.9,0,0,0,3.46-1.12,2,2,0,0,0,1.21,1.61c-1.1,1.21-1.7,2.87-.43,4.22,1.42,1.5,3.85-.57,4.68-1.91a1.79,1.79,0,0,0,.65.55,2.41,2.41,0,0,0,2.83-.44c0,1.22,1.74,1.81,3.3,1,2.08-1.08,2.84-4.32,2.37-6.78,1,.23,2.37-.91,3-2.13a3.22,3.22,0,0,0,.55,2.1c.71,4.2,2.88,7.86,4.37,11.8.73,1.93,1.3,3.91,1.84,5.9.83,9.49.91,18.94,1,28.48.06,9.73.86,19.44.86,29.17a83.36,83.36,0,0,1-5.28,28.4c-1.55,4.21-3.32,8.35-4.73,12.62-.68,2.05-1.29,4.12-1.86,6.2a9.45,9.45,0,0,0-1.35,2.53A30,30,0,0,1,52,243.62a9.63,9.63,0,0,1-4.9,3.5c-2,.55-3.88-.47-5.87-.52A2.75,2.75,0,0,0,40,247a6.05,6.05,0,0,1-3.44,1.06c-2-.13-3.93-.6-5.95-.57a4.74,4.74,0,0,0-3.19,1c-.48.39-.89.84-1.37,1.21-1.32,1-2.62.61-3.95-.05a.08.08,0,0,0-.09,0l-.09,0s-.09.05-.08.08c.28,1.55,2.36,1.83,3.61,1.78a16.07,16.07,0,0,0,3.37-.58,10.33,10.33,0,0,1,4.18,0c.08,0,.14-.07.16-.14a10.32,10.32,0,0,0,5.2,1,13.38,13.38,0,0,0,3.33-.91c1.4-.4,3.13.47,4.61.3a5.18,5.18,0,0,0,1.72.49,9.79,9.79,0,0,0,2.53-.24c1-.16,1.9-.88,3-.73a1.5,1.5,0,0,1-.75.85,13.81,13.81,0,0,1-5.64,1.85c-2.11.18-4.31-.21-6.24.87a4,4,0,0,0-1.58,2c-.45,1-.78,1.87-2,2.24a10.47,10.47,0,0,0-1.16.37h0s0,0-.06,0l-.1,0c-.1.05-.12.27,0,.23l.72-.18c.58,0,1.37.08,1.56.06a4.79,4.79,0,0,0,2-.65,4.72,4.72,0,0,0,1.22-1.3A4.36,4.36,0,0,1,44,255.58c1.06.55,3.17.1,3.92-.06,2.37-.5,4.85-.17,7.16-1a4.63,4.63,0,0,0,2.78-3.18c.35-1.2,2.43-.19,3.29-.18a3.74,3.74,0,0,0,2.22-.78,2,2,0,0,0,0,.74c.31,1.29-.38,1.41-1.08,2.09a1.06,1.06,0,0,0-.31,1c.58,2.62,4,1.36,5.85.78a1.52,1.52,0,0,0,1.22.47,8.12,8.12,0,0,0,1.63-.24c.63-.12,1.23-.08,1.85-.14.09,0,.19-.14.1-.21h0c.06-1.27-1.61-.69-2.35-.65-1,0-1.32-1.13-2.22-1.18a2.37,2.37,0,0,0-.76.07c-.36-.32-1-.38-.12-1.15.39-.34.92-.48,1.31-.83l.26-.27a1.25,1.25,0,0,0,.48.54,4.3,4.3,0,0,0,1.75.57c1.42.28,2.65-.59,4,.35.9.62,1.13,1.78,2.14,2.33,1.53.85,3.78-.05,5.33-.37a6.82,6.82,0,0,1,4.49.52,7.56,7.56,0,0,0,3,.61l.16,0c.11,0,.22-.15.1-.21l-.08,0a.1.1,0,0,0-.09-.08l-.18,0c-1.12-.46-2.46-.91-3.06-1.93-.48-.82-.78-1.48-1.69-1.83-1.81-.71-4,.76-5.63-.64,0-.26,0-.5-.06-.74a.09.09,0,0,0,.12-.07c.08-.49,1.42-.57,1.62-.58a3.77,3.77,0,0,1,1.93.81,8.48,8.48,0,0,0,2,.88,5.9,5.9,0,0,0,4-.56c2.11-.87,3.94-1.52,5.82.15a9.54,9.54,0,0,0,4.76,2.31c1.07,1.29,3.66,1,4.86,0,.08-.06.08-.22,0-.2l-.28.07c0-.07,0-.14-.07-.15-1.14-.12-2.58-.23-3.37-1.19-.33-.4-.22-1-.62-1.41-.95-.92-2.33-.62-3.51-.86a2.8,2.8,0,0,1-1.74-1.3c1.2-1.28,2.55-.55,3.92.13a7.66,7.66,0,0,0,2.69.79c2.33.24,3.72-1.58,5.8-2.11a4,4,0,0,0,1.35.41,5.25,5.25,0,0,0,1.81.09,4.93,4.93,0,0,1,2.29.07,1.3,1.3,0,0,0,1.09,0l.11.11c.11.12.31-.12.23-.24a5.61,5.61,0,0,0-4.67-2.17c-2.9-.13-5.49,1.23-8.41.6-2.7-.57-4.87-2.55-7.61-2.93a6.87,6.87,0,0,0-4.08.9s0-.07-.05-.07c-2.81-.53-5.69-.82-7.95-2.74-2.41-2-3.33-5.2-3.65-8.22a66.49,66.49,0,0,1,0-8.47,65.53,65.53,0,0,1,1-10.74s0,0,0,0A103.33,103.33,0,0,0,80,191c-.28-8.45-1.21-16.87-1.88-25.29-.35-4.45-.66-8.9-1-13.35-.17-2.41-.6-4.79-.76-7.18,0-1,0-2,.09-2.93a51.14,51.14,0,0,1,1-7.51c.5-2.47,2-4.35,3.12-6.51.57-1.06,1.17-2.12,1.67-3.21a8.43,8.43,0,0,0,.71-1.61,2.45,2.45,0,0,1,.26-.37.14.14,0,0,0,.05-.09,2.25,2.25,0,0,0,1.41-.3,6.26,6.26,0,0,0,2.24-3.68,2,2,0,0,0,1.79.33A2.25,2.25,0,0,0,91,122.65c2.3-.27,3.58-2.07,4-4.13.53,1.08,1.86,1.24,3,.33a1.09,1.09,0,0,0,1.07.64,2,2,0,0,0,1.63-1.51c.38,1.08,1.8,1.57,3,1.49,2.17-.14,2.75-2.36,2.73-4.17a2.34,2.34,0,0,0,1.1.18c.53,1.79,2.91,3.13,4,1.56a2.49,2.49,0,0,0,4,1.8,5.42,5.42,0,0,0,2.08-3.42.76.76,0,0,0,.17.29,2.66,2.66,0,0,0,2,.55,2.4,2.4,0,0,0,1.85-.91c.82,1.79,2.92,1.74,4.38.16a4.56,4.56,0,0,0,.93-1.61c1,.86,2.81.43,3.63-.42a2.4,2.4,0,0,0,.67-2,1.16,1.16,0,0,0-.08-.32,2.94,2.94,0,0,0,3.08-1.92,2.83,2.83,0,0,0-2.46-3.35l.08-.16a1.51,1.51,0,0,0-.22-1.51,1.73,1.73,0,0,0,2-1.91,2.09,2.09,0,0,0,2.56.45c.7-.33.79-1.19.8-1.93,1.13.91,2.78,1.28,3.81.21a1.78,1.78,0,0,0,2.52,1.59,3.12,3.12,0,0,0,2-3.49h0a1.81,1.81,0,0,0,1.58.15,2.26,2.26,0,0,0,1.25-1.74,1.09,1.09,0,0,0,.82.29c.91-.05,1.37-.81,1.71-1.58a4.27,4.27,0,0,0-.28-3.43A3,3,0,0,0,154,91.37c.61-1.44-.69-2.15-2-2.59,1.56-.14,3-.9,3.16-2.7.06-1-.79-1.41-1.76-1.52a1.65,1.65,0,0,0,.2-.64.88.88,0,0,0-.36-.75,4.06,4.06,0,0,0,.46-.36,2.86,2.86,0,0,0,.61-.87,3.85,3.85,0,0,0,4.14-.85c.95-1.27.37-2.27-.8-2.6,1.42-.91,1.74-3.09-.12-3.74a.76.76,0,0,0,.06-.16,1.64,1.64,0,0,0-.17-1.41,3.18,3.18,0,0,0,2-2.16,7.47,7.47,0,0,0,.06-1.41,5.31,5.31,0,0,0,1.64.13,6.23,6.23,0,0,0,4-1.76c1.22-1.35,1.89-4.2-.49-4.1.47-1.13-.65-1.86-1.74-2.26,1.44-1.46.54-3.35-1.54-3.73l-.3-.24a6.33,6.33,0,0,0,2.84-4,2.7,2.7,0,0,0-2.85-2.78,3.42,3.42,0,0,0-3,2.58c-.07.24-.73.27-.7-.06a1.75,1.75,0,0,0-.19-1,1.1,1.1,0,0,0-.7-.51c1.9-.87,3.89-2.69,2.87-4.52a2.66,2.66,0,0,0-3.86-.3,1.74,1.74,0,0,0-1.53-.64,1.69,1.69,0,0,0-.2-2.67c2.48-.84,5.56-4.21,4.34-6.32-1.41-2.46-5.31-1.58-6.1.82-.84-1.71-3-.09-4.65.58a1.73,1.73,0,0,0-.25-.39l-.17-.18c.7-.54,1.82-1.53,1.38-2.51a3.13,3.13,0,0,0-2.78-1.45,3.1,3.1,0,0,0,2.09-1.75c.52-1.48-1.1-2.28-2.32-2.73a3,3,0,0,0,2.91-2.06c.81-2.73-2-3-3.93-2.32a2.53,2.53,0,0,0-.06-1.65c-.37-1.05-1.58-1-2.54-.83.84-1.22.86-3-1-3.28a3.32,3.32,0,0,0-1.77.63c.92-2.7-2.34-4.13-4-2.14-.42-1.16-2.91-.64-3.67-.15a4.22,4.22,0,0,0-.89.9,2.87,2.87,0,0,0-.55,1.06,2.31,2.31,0,0,0-2.06-1.51l-.05,0A3.89,3.89,0,0,0,129,14.14c-.59-1.29-2.44-2.18-2.82-.63a3.67,3.67,0,0,0-3.35-.21c1.34-2.11-1-4.24-3.36-4.16a6,6,0,0,0-3.73,1.61,3.31,3.31,0,0,0-.45.54c-.3.4,0,.36-.25-.14a1.17,1.17,0,0,0-.79-.67,3.38,3.38,0,0,0-.6-3.32c-1.87-1.71-4.36-.19-5.54,1.59-.68-1-2-.29-2.63.68-1.82-1.39-3.73.33-4.78,2.3a2.73,2.73,0,0,0-4.46-1.87c-.11-1-.87-1.88-1.89-1.6a2,2,0,0,0-1.83-2.57,1.65,1.65,0,0,0-1,.29,3.59,3.59,0,0,0-5.14-2.85A5.83,5.83,0,0,0,83.6,5.61a3.1,3.1,0,0,0-3.93-.06,2.28,2.28,0,0,0-2.75-2,4.4,4.4,0,0,0-1.35.85,2.65,2.65,0,0,0-.78-1c-.49-.32-1.17.08-1.57.38a4.21,4.21,0,0,0-1.08,1.24c0-2.43-.93-4.83-3.69-5.05-3-.25-4.79,2-4.76,4.76C61.62,4,60,8.07,61.39,9.47l-.16.18c-2.15-2.8-4.42,1.13-4.77,3.38-1.25-.83-2.33-.19-3.11,1.11a.09.09,0,0,0,0,0,5,5,0,0,0-.54.08c.59-1.93-.38-3.86-2.55-3.85a2.68,2.68,0,0,0-2.72,3,1.78,1.78,0,0,0-2,.74,2.11,2.11,0,0,0-3.33,0,4.44,4.44,0,0,0-.76,4.17,2.11,2.11,0,0,0-1.87.53,1.76,1.76,0,0,0-.61-.15c.42-1.77-.53-4-2.48-4.22-1.62-.17-2,2.2-2,3.54-2-1.06-3.72,3.78-3.23,5.23a.11.11,0,0,0,.06.06l-.19.17c-1.08-1.85-3.39-2.22-4.65-.3A6.36,6.36,0,0,0,26.12,29l-.46.1a.24.24,0,0,0-.12.07c-.6-.38-1.24-.49-1.71.28-.83,1.35,1.16,3,2.1,3.68A3.78,3.78,0,0,0,24.05,35a6.22,6.22,0,0,0-.72,3.26c-1.21-.42-1.86.95-1.82,2.18-1.86-.5-3,.82-3.24,2.71A4,4,0,0,0,19,45.81c.15.24.34.58.57.89-2.49.34-1.31,4,.24,5a2.34,2.34,0,0,0-.41.82,2.55,2.55,0,0,0-2.94-.44,1.67,1.67,0,0,0-.85,2,4.71,4.71,0,0,0-2.63-1,2.64,2.64,0,0,0-2,1.62,4.86,4.86,0,0,0-.26,2.67c-1.73-.7-3.82.15-3,2.15-1.17-.75-2.29-1.65-3.73-1.74C2.64,57.73,1.56,58.94,1,60c-1.21,2.41.73,5.54,3.13,6.23a3,3,0,0,0,.53,1c-1.5-.23-3.17.22-3.33,2.06s2.25,2.3,3.68,2.22a2,2,0,0,0,.46.75,3.75,3.75,0,0,0-1.56,3c0,.83.4,2.14,1.33,2.31a2,2,0,0,0,0,.35C2.33,76.12-1,82.39,2.6,83.6A4.48,4.48,0,0,0,0,87.61Z"/></g></g></g></svg>